{"glyphs":{"0":{"ha":766,"x_min":102,"x_max":665,"o":"m 383 -10 q 172 65 242 -10 q 102 270 102 141 l 102 718 q 173 924 102 849 q 383 998 244 998 q 594 924 523 998 q 665 718 665 850 l 665 270 q 594 64 665 139 q 383 -10 523 -10 m 383 121 q 493 161 459 121 q 526 270 526 201 l 526 718 q 493 827 526 788 q 383 867 459 867 q 274 827 307 867 q 240 718 240 788 l 240 270 q 274 161 240 201 q 383 121 307 121 z "},"1":{"ha":462,"x_min":61,"x_max":340,"o":"m 340 986 l 340 0 l 201 0 l 201 836 l 61 749 l 61 892 l 201 986 l 340 986 z "},"2":{"ha":718,"x_min":75,"x_max":643,"o":"m 87 0 l 87 120 l 431 578 q 477 660 460 618 q 494 739 494 702 l 494 741 q 459 832 494 800 q 361 865 425 865 q 263 829 301 865 q 218 728 226 793 l 218 728 l 75 728 l 75 728 q 168 926 93 856 q 359 996 242 996 q 565 929 492 996 q 637 739 637 862 l 637 739 q 616 629 637 686 q 555 519 594 572 l 270 132 l 643 132 l 643 0 l 87 0 z "},"3":{"ha":734,"x_min":61,"x_max":640,"o":"m 357 -10 q 211 20 273 -10 q 110 107 148 50 q 61 245 72 164 l 61 245 l 202 245 l 202 245 q 252 152 212 182 q 357 123 293 123 q 463 159 425 123 q 501 262 501 196 l 501 292 q 465 407 501 366 q 363 447 429 447 l 294 447 l 294 578 l 363 578 q 453 613 422 578 q 485 711 485 648 l 485 741 q 451 831 485 800 q 356 863 418 863 q 268 834 304 863 q 218 741 231 804 l 218 741 l 77 741 l 77 741 q 171 929 98 863 q 356 996 244 996 q 553 929 484 996 q 623 740 623 862 l 623 724 q 583 595 623 650 q 470 515 543 541 q 595 436 551 498 q 640 278 640 374 l 640 262 q 566 61 640 132 q 357 -10 492 -10 z "},"4":{"ha":790,"x_min":88,"x_max":722,"o":"m 88 151 l 88 271 l 419 985 l 562 985 l 239 279 l 722 279 l 722 151 l 88 151 m 513 -1 l 513 580 l 648 580 l 648 -1 l 513 -1 z "},"5":{"ha":756,"x_min":102,"x_max":654,"o":"m 377 -10 q 192 55 264 -10 q 102 237 120 119 l 102 238 l 240 238 l 240 237 q 283 153 248 183 q 377 123 319 123 q 480 167 444 123 q 516 292 516 212 l 516 375 q 480 500 516 456 q 377 544 444 544 q 308 524 341 544 q 250 467 275 503 l 123 467 l 123 986 l 626 986 l 626 854 l 262 854 l 262 633 q 319 665 288 654 q 385 677 351 677 q 584 598 513 677 q 654 375 654 519 l 654 292 q 582 69 654 148 q 377 -10 509 -10 z "},"6":{"ha":713,"x_min":81,"x_max":631,"o":"m 356 -10 q 153 68 225 -10 q 81 288 81 146 l 81 288 q 99 424 81 352 q 150 562 117 495 l 364 986 l 513 986 l 262 494 l 262 519 q 388 586 298 586 q 568 509 504 586 q 631 292 631 432 l 631 291 q 559 69 631 148 q 356 -10 488 -10 m 356 123 q 458 163 422 123 q 493 279 493 204 l 493 280 q 456 408 493 363 q 349 453 418 453 q 254 408 288 453 q 220 279 220 362 l 220 279 q 255 163 220 203 q 356 123 291 123 z "},"7":{"ha":699,"x_min":75,"x_max":611,"o":"m 611 986 l 611 863 l 356 0 l 209 0 l 464 854 l 213 854 l 213 713 l 75 713 l 75 986 l 611 986 z "},"8":{"ha":781,"x_min":92,"x_max":690,"o":"m 391 -10 q 233 24 300 -10 q 129 119 166 58 q 92 264 92 181 l 92 280 q 129 419 92 354 q 227 517 165 484 q 144 600 176 546 q 112 713 112 654 l 112 737 q 188 925 112 854 q 391 996 264 996 q 593 925 517 996 q 669 737 669 854 l 669 713 q 637 599 669 652 q 552 517 605 545 q 652 419 614 484 q 690 280 690 354 l 690 264 q 652 119 690 181 q 548 24 615 58 q 391 -10 481 -10 m 391 123 q 508 164 463 123 q 552 274 552 206 l 552 283 q 508 394 552 352 q 391 435 463 435 q 274 394 318 435 q 229 283 229 352 l 229 273 q 274 164 229 205 q 391 123 318 123 m 391 568 q 492 608 454 568 q 531 714 531 648 l 531 724 q 492 825 531 787 q 391 863 454 863 q 289 825 328 863 q 250 723 250 787 l 250 713 q 289 608 250 648 q 391 568 328 568 z "},"9":{"ha":713,"x_min":81,"x_max":631,"o":"m 203 0 l 451 490 l 450 465 q 398 419 433 433 q 318 405 363 405 q 146 484 212 405 q 81 694 81 563 l 81 694 q 154 917 81 838 q 357 996 226 996 q 559 917 488 996 q 631 691 631 837 l 631 690 q 614 560 631 630 q 562 422 596 490 l 352 0 l 203 0 m 357 531 q 457 575 422 531 q 493 699 493 619 l 493 700 q 457 821 493 778 q 357 863 422 863 q 255 821 291 863 q 220 699 220 778 l 220 699 q 255 575 220 618 q 357 531 291 531 z "}," ":{"ha":373,"x_min":0,"x_max":0,"o":""},"A":{"ha":899,"x_min":27,"x_max":872,"o":"m 27 0 l 391 986 l 509 986 l 872 0 l 723 0 l 450 795 l 176 0 l 27 0 m 195 216 l 195 348 l 713 348 l 713 216 l 195 216 z "},"Á":{"ha":899,"x_min":27,"x_max":872,"o":"m 27 0 l 391 986 l 509 986 l 872 0 l 723 0 l 450 795 l 176 0 l 27 0 m 195 216 l 195 348 l 713 348 l 713 216 l 195 216 m 463 1054 l 386 1134 l 573 1300 l 663 1207 l 463 1054 z "},"Ă":{"ha":899,"x_min":27,"x_max":872,"o":"m 27 0 l 391 986 l 509 986 l 872 0 l 723 0 l 450 795 l 176 0 l 27 0 m 195 216 l 195 348 l 713 348 l 713 216 l 195 216 m 566 1262 l 678 1263 q 619 1111 678 1165 q 452 1057 560 1057 l 447 1057 q 280 1111 339 1057 q 221 1263 221 1165 l 333 1262 q 363 1183 333 1211 q 447 1155 393 1155 l 452 1155 q 536 1183 507 1155 q 566 1262 566 1211 z "},"Â":{"ha":899,"x_min":27,"x_max":872,"o":"m 27 0 l 391 986 l 509 986 l 872 0 l 723 0 l 450 795 l 176 0 l 27 0 m 195 216 l 195 348 l 713 348 l 713 216 l 195 216 m 448 1293 l 661 1127 l 580 1053 l 448 1154 l 315 1053 l 235 1127 l 448 1293 z "},"Ä":{"ha":899,"x_min":27,"x_max":872,"o":"m 27 0 l 391 986 l 509 986 l 872 0 l 723 0 l 450 795 l 176 0 l 27 0 m 195 216 l 195 348 l 713 348 l 713 216 l 195 216 m 519 1067 l 519 1205 l 658 1205 l 658 1067 l 519 1067 m 241 1067 l 241 1205 l 380 1205 l 380 1067 l 241 1067 z "},"Ạ":{"ha":899,"x_min":27,"x_max":872,"o":"m 27 0 l 391 986 l 509 986 l 872 0 l 723 0 l 450 795 l 176 0 l 27 0 m 195 216 l 195 348 l 713 348 l 713 216 l 195 216 m 380 -288 l 380 -149 l 519 -149 l 519 -288 l 380 -288 z "},"À":{"ha":899,"x_min":27,"x_max":872,"o":"m 27 0 l 391 986 l 509 986 l 872 0 l 723 0 l 450 795 l 176 0 l 27 0 m 195 216 l 195 348 l 713 348 l 713 216 l 195 216 m 433 1047 l 240 1200 l 323 1293 l 510 1127 l 433 1047 z "},"Ā":{"ha":899,"x_min":27,"x_max":872,"o":"m 27 0 l 391 986 l 509 986 l 872 0 l 723 0 l 450 795 l 176 0 l 27 0 m 195 216 l 195 348 l 713 348 l 713 216 l 195 216 m 202 1202 l 697 1202 l 697 1067 l 202 1067 l 202 1202 z "},"Ą":{"ha":899,"x_min":27,"x_max":872,"o":"m 27 0 l 391 986 l 509 986 l 872 0 l 723 0 l 450 795 l 176 0 l 27 0 m 195 216 l 195 348 l 713 348 l 713 216 l 195 216 m 807 -285 q 603 -111 603 -285 q 804 73 603 73 l 815 73 l 815 0 l 804 0 q 726 -91 726 0 q 807 -172 726 -172 l 869 -172 l 869 -285 l 807 -285 z "},"Å":{"ha":899,"x_min":27,"x_max":872,"o":"m 450 964 q 327 1005 370 964 q 283 1121 283 1046 q 327 1242 283 1200 q 450 1284 370 1284 q 573 1241 530 1284 q 616 1121 616 1198 q 572 1005 616 1046 q 450 964 529 964 m 450 1053 q 501 1072 483 1053 q 519 1124 519 1090 q 502 1177 519 1158 q 450 1197 484 1197 q 398 1178 416 1197 q 380 1124 380 1158 q 398 1072 380 1090 q 450 1053 416 1053 m 27 0 l 391 986 l 509 986 l 872 0 l 723 0 l 450 795 l 176 0 l 27 0 m 195 216 l 195 348 l 713 348 l 713 216 l 195 216 z "},"Ã":{"ha":899,"x_min":27,"x_max":872,"o":"m 27 0 l 391 986 l 509 986 l 872 0 l 723 0 l 450 795 l 176 0 l 27 0 m 195 216 l 195 348 l 713 348 l 713 216 l 195 216 m 574 1057 q 513 1065 539 1057 q 463 1084 486 1073 q 402 1117 429 1099 q 349 1134 375 1134 q 294 1073 294 1134 l 294 1059 l 187 1059 l 187 1076 q 222 1207 187 1164 q 326 1251 256 1251 q 401 1239 370 1251 q 459 1213 432 1227 q 506 1187 484 1200 q 551 1174 529 1174 q 605 1240 605 1174 l 605 1253 l 712 1253 l 712 1237 q 678 1102 712 1147 q 574 1057 644 1057 z "},"Æ":{"ha":1356,"x_min":0,"x_max":1282,"o":"m 0 0 l 547 986 l 696 986 l 154 0 l 0 0 m 241 215 l 241 347 l 719 347 l 719 215 l 241 215 m 648 0 l 648 986 l 787 986 l 787 0 l 648 0 m 715 0 l 715 132 l 1282 132 l 1282 0 l 715 0 m 715 424 l 715 555 l 1207 555 l 1207 424 l 715 424 m 715 854 l 715 986 l 1282 986 l 1282 854 l 715 854 z "},"B":{"ha":897,"x_min":122,"x_max":812,"o":"m 203 0 l 203 128 l 471 128 q 626 170 581 128 q 672 281 672 212 l 672 283 q 633 400 672 356 q 505 444 594 444 l 203 444 l 203 568 l 505 568 q 620 605 581 568 q 659 711 659 641 l 659 711 q 616 821 659 785 q 486 858 572 858 l 203 858 l 203 986 l 511 986 q 728 913 656 986 q 799 719 799 841 l 799 719 q 755 584 799 645 q 619 505 712 522 q 761 425 711 492 q 812 271 812 357 l 812 269 q 734 74 812 148 q 522 0 656 0 l 203 0 m 122 0 l 122 986 l 260 986 l 260 0 l 122 0 z "},"Ɓ":{"ha":1017,"x_min":-14,"x_max":932,"o":"m -14 771 l -14 821 q 35 943 -14 900 q 173 986 84 986 l 332 986 l 332 858 l 178 858 q 138 848 153 858 q 124 818 124 838 l 124 771 l -14 771 m 323 0 l 323 128 l 591 128 q 746 170 701 128 q 792 281 792 212 l 792 283 q 753 400 792 356 q 625 444 714 444 l 323 444 l 323 568 l 625 568 q 740 605 701 568 q 779 711 779 641 l 779 711 q 736 821 779 785 q 606 858 692 858 l 323 858 l 323 986 l 631 986 q 848 913 777 986 q 919 719 919 841 l 919 719 q 876 584 919 645 q 739 505 832 522 q 881 425 831 492 q 932 271 932 357 l 932 269 q 854 74 932 148 q 642 0 776 0 l 323 0 m 242 0 l 242 986 l 380 986 l 380 0 l 242 0 z "},"C":{"ha":859,"x_min":102,"x_max":785,"o":"m 445 -10 q 264 36 342 -10 q 144 164 187 81 q 102 357 102 247 l 102 628 q 144 822 102 739 q 264 950 187 905 q 445 996 342 996 q 601 960 530 996 q 720 857 672 923 q 785 703 768 791 l 785 703 l 643 703 l 643 703 q 600 786 630 751 q 529 842 570 822 q 445 861 488 861 q 299 797 354 861 q 243 628 243 733 l 243 357 q 299 189 243 252 q 445 125 354 125 q 566 165 509 125 q 643 283 623 206 l 643 283 l 785 283 l 785 283 q 720 129 768 195 q 601 26 671 63 q 445 -10 530 -10 z "},"Ć":{"ha":859,"x_min":102,"x_max":785,"o":"m 445 -10 q 264 36 342 -10 q 144 164 187 81 q 102 357 102 247 l 102 628 q 144 822 102 739 q 264 950 187 905 q 445 996 342 996 q 601 960 530 996 q 720 857 672 923 q 785 703 768 791 l 785 703 l 643 703 l 643 703 q 600 786 630 751 q 529 842 570 822 q 445 861 488 861 q 299 797 354 861 q 243 628 243 733 l 243 357 q 299 189 243 252 q 445 125 354 125 q 566 165 509 125 q 643 283 623 206 l 643 283 l 785 283 l 785 283 q 720 129 768 195 q 601 26 671 63 q 445 -10 530 -10 m 459 1054 l 382 1134 l 570 1300 l 659 1207 l 459 1054 z "},"Č":{"ha":859,"x_min":102,"x_max":785,"o":"m 445 -10 q 264 36 342 -10 q 144 164 187 81 q 102 357 102 247 l 102 628 q 144 822 102 739 q 264 950 187 905 q 445 996 342 996 q 601 960 530 996 q 720 857 672 923 q 785 703 768 791 l 785 703 l 643 703 l 643 703 q 600 786 630 751 q 529 842 570 822 q 445 861 488 861 q 299 797 354 861 q 243 628 243 733 l 243 357 q 299 189 243 252 q 445 125 354 125 q 566 165 509 125 q 643 283 623 206 l 643 283 l 785 283 l 785 283 q 720 129 768 195 q 601 26 671 63 q 445 -10 530 -10 m 446 1059 l 237 1221 l 314 1303 l 446 1201 l 578 1303 l 656 1221 l 446 1059 z "},"Ç":{"ha":859,"x_min":102,"x_max":785,"o":"m 445 -10 q 264 36 342 -10 q 144 164 187 81 q 102 357 102 247 l 102 628 q 144 822 102 739 q 264 950 187 905 q 445 996 342 996 q 601 960 530 996 q 720 857 672 923 q 785 703 768 791 l 785 703 l 643 703 l 643 703 q 600 786 630 751 q 529 842 570 822 q 445 861 488 861 q 299 797 354 861 q 243 628 243 733 l 243 357 q 299 189 243 252 q 445 125 354 125 q 566 165 509 125 q 643 283 623 206 l 643 283 l 785 283 l 785 283 q 720 129 768 195 q 601 26 671 63 q 445 -10 530 -10 m 431 -286 q 369 -283 397 -286 q 319 -274 341 -280 l 348 -179 q 412 -189 380 -189 q 486 -154 486 -189 q 462 -129 486 -137 q 387 -121 437 -121 l 446 -42 q 566 -72 526 -42 q 606 -163 606 -102 q 562 -256 606 -225 q 431 -286 519 -286 m 376 41 l 489 41 l 489 -122 l 376 -121 l 376 41 z "},"Ċ":{"ha":859,"x_min":102,"x_max":785,"o":"m 445 -10 q 264 36 342 -10 q 144 164 187 81 q 102 357 102 247 l 102 628 q 144 822 102 739 q 264 950 187 905 q 445 996 342 996 q 601 960 530 996 q 720 857 672 923 q 785 703 768 791 l 785 703 l 643 703 l 643 703 q 600 786 630 751 q 529 842 570 822 q 445 861 488 861 q 299 797 354 861 q 243 628 243 733 l 243 357 q 299 189 243 252 q 445 125 354 125 q 566 165 509 125 q 643 283 623 206 l 643 283 l 785 283 l 785 283 q 720 129 768 195 q 601 26 671 63 q 445 -10 530 -10 m 377 1067 l 377 1205 l 515 1205 l 515 1067 l 377 1067 z "},"D":{"ha":911,"x_min":122,"x_max":810,"o":"m 216 0 l 216 132 l 439 132 q 608 188 548 132 q 668 348 668 245 l 668 638 q 608 798 668 741 q 439 854 548 854 l 216 854 l 216 986 l 435 986 q 712 893 614 986 q 810 633 810 801 l 810 353 q 766 162 810 241 q 637 42 722 83 q 434 0 553 0 l 216 0 m 122 0 l 122 986 l 260 986 l 260 0 l 122 0 z "},"Ɖ":{"ha":943,"x_min":53,"x_max":842,"o":"z "},"Ð":{"ha":943,"x_min":53,"x_max":842,"o":"m 248 0 l 248 132 l 471 132 q 640 188 580 132 q 700 348 700 245 l 700 638 q 640 798 700 741 q 471 854 580 854 l 248 854 l 248 986 l 467 986 q 744 893 646 986 q 842 633 842 801 l 842 353 q 798 162 842 241 q 669 42 753 83 q 466 0 585 0 l 248 0 m 154 0 l 154 986 l 292 986 l 292 0 l 154 0 m 53 552 l 507 552 l 507 434 l 53 434 l 53 552 z "},"Ď":{"ha":911,"x_min":122,"x_max":810,"o":"m 216 0 l 216 132 l 439 132 q 608 188 548 132 q 668 348 668 245 l 668 638 q 608 798 668 741 q 439 854 548 854 l 216 854 l 216 986 l 435 986 q 712 893 614 986 q 810 633 810 801 l 810 353 q 766 162 810 241 q 637 42 722 83 q 434 0 553 0 l 216 0 m 122 0 l 122 986 l 260 986 l 260 0 l 122 0 m 445 1059 l 235 1221 l 313 1303 l 445 1201 l 577 1303 l 654 1221 l 445 1059 z "},"Đ":{"ha":943,"x_min":53,"x_max":842,"o":"m 248 0 l 248 132 l 471 132 q 640 188 580 132 q 700 348 700 245 l 700 638 q 640 798 700 741 q 471 854 580 854 l 248 854 l 248 986 l 467 986 q 744 893 646 986 q 842 633 842 801 l 842 353 q 798 162 842 241 q 669 42 753 83 q 466 0 585 0 l 248 0 m 154 0 l 154 986 l 292 986 l 292 0 l 154 0 m 53 552 l 507 552 l 507 434 l 53 434 l 53 552 z "},"Ɗ":{"ha":1031,"x_min":-14,"x_max":930,"o":"m -14 771 l -14 821 q 35 943 -14 900 q 173 986 84 986 l 332 986 l 332 858 l 178 858 q 138 848 153 858 q 124 818 124 838 l 124 771 l -14 771 m 336 0 l 336 132 l 559 132 q 728 188 668 132 q 788 348 788 245 l 788 638 q 728 798 788 741 q 559 854 668 854 l 336 854 l 336 986 l 555 986 q 832 893 734 986 q 930 633 930 801 l 930 353 q 886 162 930 241 q 758 42 842 83 q 554 0 673 0 l 336 0 m 242 0 l 242 986 l 380 986 l 380 0 l 242 0 z "},"E":{"ha":830,"x_min":122,"x_max":755,"o":"m 122 0 l 122 986 l 260 986 l 260 0 l 122 0 m 189 0 l 189 132 l 755 132 l 755 0 l 189 0 m 189 424 l 189 555 l 681 555 l 681 424 l 189 424 m 189 854 l 189 986 l 755 986 l 755 854 l 189 854 z "},"É":{"ha":830,"x_min":122,"x_max":755,"o":"m 122 0 l 122 986 l 260 986 l 260 0 l 122 0 m 189 0 l 189 132 l 755 132 l 755 0 l 189 0 m 189 424 l 189 555 l 681 555 l 681 424 l 189 424 m 189 854 l 189 986 l 755 986 l 755 854 l 189 854 m 464 1054 l 387 1134 l 574 1300 l 664 1207 l 464 1054 z "},"Ě":{"ha":830,"x_min":122,"x_max":755,"o":"m 122 0 l 122 986 l 260 986 l 260 0 l 122 0 m 189 0 l 189 132 l 755 132 l 755 0 l 189 0 m 189 424 l 189 555 l 681 555 l 681 424 l 189 424 m 189 854 l 189 986 l 755 986 l 755 854 l 189 854 m 451 1059 l 241 1221 l 319 1303 l 451 1201 l 583 1303 l 661 1221 l 451 1059 z "},"Ê":{"ha":830,"x_min":122,"x_max":755,"o":"m 122 0 l 122 986 l 260 986 l 260 0 l 122 0 m 189 0 l 189 132 l 755 132 l 755 0 l 189 0 m 189 424 l 189 555 l 681 555 l 681 424 l 189 424 m 189 854 l 189 986 l 755 986 l 755 854 l 189 854 m 449 1293 l 662 1127 l 581 1053 l 449 1154 l 317 1053 l 236 1127 l 449 1293 z "},"Ë":{"ha":830,"x_min":122,"x_max":755,"o":"m 122 0 l 122 986 l 260 986 l 260 0 l 122 0 m 189 0 l 189 132 l 755 132 l 755 0 l 189 0 m 189 424 l 189 555 l 681 555 l 681 424 l 189 424 m 189 854 l 189 986 l 755 986 l 755 854 l 189 854 m 521 1067 l 521 1205 l 659 1205 l 659 1067 l 521 1067 m 243 1067 l 243 1205 l 381 1205 l 381 1067 l 243 1067 z "},"Ė":{"ha":830,"x_min":122,"x_max":755,"o":"m 122 0 l 122 986 l 260 986 l 260 0 l 122 0 m 189 0 l 189 132 l 755 132 l 755 0 l 189 0 m 189 424 l 189 555 l 681 555 l 681 424 l 189 424 m 189 854 l 189 986 l 755 986 l 755 854 l 189 854 m 382 1067 l 382 1205 l 520 1205 l 520 1067 l 382 1067 z "},"Ẹ":{"ha":830,"x_min":122,"x_max":755,"o":"m 122 0 l 122 986 l 260 986 l 260 0 l 122 0 m 189 0 l 189 132 l 755 132 l 755 0 l 189 0 m 189 424 l 189 555 l 681 555 l 681 424 l 189 424 m 189 854 l 189 986 l 755 986 l 755 854 l 189 854 m 382 -288 l 382 -149 l 520 -149 l 520 -288 l 382 -288 z "},"È":{"ha":830,"x_min":122,"x_max":755,"o":"m 122 0 l 122 986 l 260 986 l 260 0 l 122 0 m 189 0 l 189 132 l 755 132 l 755 0 l 189 0 m 189 424 l 189 555 l 681 555 l 681 424 l 189 424 m 189 854 l 189 986 l 755 986 l 755 854 l 189 854 m 435 1047 l 241 1200 l 324 1293 l 511 1127 l 435 1047 z "},"Ē":{"ha":830,"x_min":122,"x_max":755,"o":"m 122 0 l 122 986 l 260 986 l 260 0 l 122 0 m 189 0 l 189 132 l 755 132 l 755 0 l 189 0 m 189 424 l 189 555 l 681 555 l 681 424 l 189 424 m 189 854 l 189 986 l 755 986 l 755 854 l 189 854 m 203 1202 l 699 1202 l 699 1067 l 203 1067 l 203 1202 z "},"Ę":{"ha":830,"x_min":122,"x_max":755,"o":"m 122 0 l 122 986 l 260 986 l 260 0 l 122 0 m 189 0 l 189 132 l 755 132 l 755 0 l 189 0 m 189 424 l 189 555 l 681 555 l 681 424 l 189 424 m 189 854 l 189 986 l 755 986 l 755 854 l 189 854 m 690 -285 q 486 -111 486 -285 q 688 73 486 73 l 699 73 l 699 0 l 688 0 q 609 -91 609 0 q 690 -172 609 -172 l 753 -172 l 753 -285 l 690 -285 z "},"Ɛ":{"ha":762,"x_min":95,"x_max":701,"o":"m 395 -10 q 170 58 244 -10 q 95 262 95 125 l 95 278 q 137 437 95 378 q 264 515 180 496 q 150 593 188 541 q 111 724 111 646 l 111 740 q 182 932 111 869 q 395 996 253 996 q 536 968 477 996 q 632 883 595 940 q 684 741 669 826 l 684 741 l 544 741 l 544 741 q 493 833 530 802 q 395 863 456 863 q 286 833 322 863 q 250 741 250 802 l 250 711 q 282 612 250 645 q 378 578 314 578 l 481 578 l 481 447 l 378 447 q 270 408 306 447 q 233 292 233 370 l 233 262 q 274 158 233 193 q 395 123 314 123 q 509 153 467 123 q 559 245 550 184 l 559 245 l 701 245 l 701 245 q 652 103 690 160 q 550 18 614 47 q 395 -10 486 -10 z "},"Ǝ":{"ha":830,"x_min":75,"x_max":708,"o":"m 708 0 l 570 0 l 570 986 l 708 986 l 708 0 m 641 0 l 75 0 l 75 132 l 641 132 l 641 0 m 641 424 l 149 424 l 149 555 l 641 555 l 641 424 m 641 854 l 75 854 l 75 986 l 641 986 l 641 854 z "},"Ʒ":{"ha":755,"x_min":61,"x_max":660,"o":"m 363 -10 q 210 18 274 -10 q 110 103 146 47 q 61 245 73 160 l 61 245 l 202 245 l 202 245 q 252 153 212 184 q 363 123 292 123 q 482 158 443 123 q 522 262 522 193 l 522 292 q 482 408 522 370 q 363 447 443 447 l 253 447 l 253 578 l 363 578 q 586 505 512 578 q 660 285 660 432 l 660 269 q 586 59 660 129 q 363 -10 512 -10 m 366 521 l 253 578 l 473 854 l 100 854 l 100 986 l 640 986 l 640 867 l 366 521 z "},"F":{"ha":777,"x_min":122,"x_max":743,"o":"m 122 0 l 122 986 l 260 986 l 260 0 l 122 0 m 190 415 l 190 547 l 668 547 l 668 415 l 190 415 m 190 854 l 190 986 l 743 986 l 743 854 l 190 854 z "},"Ƒ":{"ha":785,"x_min":14,"x_max":751,"o":"m 14 -262 l 14 -131 l 91 -131 q 121 -117 111 -131 q 131 -77 131 -102 l 131 178 l 269 178 l 269 -76 q 226 -214 269 -165 q 104 -262 183 -262 l 14 -262 m 131 0 l 131 986 l 269 986 l 269 0 l 131 0 m 199 415 l 199 547 l 677 547 l 677 415 l 199 415 m 199 854 l 199 986 l 751 986 l 751 854 l 199 854 z "},"G":{"ha":898,"x_min":102,"x_max":796,"o":"m 454 531 l 796 531 l 796 359 q 753 164 796 248 q 633 36 710 81 q 451 -10 555 -10 q 267 33 346 -10 q 145 154 189 76 q 102 337 102 233 l 102 628 q 145 822 102 739 q 265 950 188 905 q 447 996 342 996 q 604 960 533 996 q 723 857 675 923 q 788 703 771 791 l 788 703 l 638 703 l 638 703 q 564 821 619 780 q 447 861 509 861 q 299 797 355 861 q 243 628 243 733 l 243 337 q 300 183 243 241 q 451 125 357 125 q 599 186 543 125 q 654 356 654 247 l 654 399 l 454 399 l 454 531 z "},"Ğ":{"ha":898,"x_min":102,"x_max":796,"o":"m 454 531 l 796 531 l 796 359 q 753 164 796 248 q 633 36 710 81 q 451 -10 555 -10 q 267 33 346 -10 q 145 154 189 76 q 102 337 102 233 l 102 628 q 145 822 102 739 q 265 950 188 905 q 447 996 342 996 q 604 960 533 996 q 723 857 675 923 q 788 703 771 791 l 788 703 l 638 703 l 638 703 q 564 821 619 780 q 447 861 509 861 q 299 797 355 861 q 243 628 243 733 l 243 337 q 300 183 243 241 q 451 125 357 125 q 599 186 543 125 q 654 356 654 247 l 654 399 l 454 399 l 454 531 m 568 1262 l 680 1263 q 621 1111 680 1165 q 454 1057 562 1057 l 448 1057 q 281 1111 340 1057 q 222 1263 222 1165 l 334 1262 q 365 1183 334 1211 q 448 1155 395 1155 l 454 1155 q 538 1183 508 1155 q 568 1262 568 1211 z "},"Ģ":{"ha":898,"x_min":102,"x_max":796,"o":"m 454 531 l 796 531 l 796 359 q 753 164 796 248 q 633 36 710 81 q 451 -10 555 -10 q 267 33 346 -10 q 145 154 189 76 q 102 337 102 233 l 102 628 q 145 822 102 739 q 265 950 188 905 q 447 996 342 996 q 604 960 533 996 q 723 857 675 923 q 788 703 771 791 l 788 703 l 638 703 l 638 703 q 564 821 619 780 q 447 861 509 861 q 299 797 355 861 q 243 628 243 733 l 243 337 q 300 183 243 241 q 451 125 357 125 q 599 186 543 125 q 654 356 654 247 l 654 399 l 454 399 l 454 531 m 382 -376 l 382 -100 l 520 -100 l 520 -239 l 382 -376 z "},"Ġ":{"ha":898,"x_min":102,"x_max":796,"o":"m 454 531 l 796 531 l 796 359 q 753 164 796 248 q 633 36 710 81 q 451 -10 555 -10 q 267 33 346 -10 q 145 154 189 76 q 102 337 102 233 l 102 628 q 145 822 102 739 q 265 950 188 905 q 447 996 342 996 q 604 960 533 996 q 723 857 675 923 q 788 703 771 791 l 788 703 l 638 703 l 638 703 q 564 821 619 780 q 447 861 509 861 q 299 797 355 861 q 243 628 243 733 l 243 337 q 300 183 243 241 q 451 125 357 125 q 599 186 543 125 q 654 356 654 247 l 654 399 l 454 399 l 454 531 m 382 1067 l 382 1205 l 520 1205 l 520 1067 l 382 1067 z "},"H":{"ha":943,"x_min":122,"x_max":821,"o":"m 682 0 l 682 986 l 821 986 l 821 0 l 682 0 m 122 0 l 122 986 l 260 986 l 260 0 l 122 0 m 208 420 l 208 551 l 755 551 l 755 420 l 208 420 z "},"Ħ":{"ha":1051,"x_min":75,"x_max":977,"o":"m 75 691 l 75 823 l 977 823 l 977 691 l 75 691 m 736 0 l 736 986 l 875 986 l 875 0 l 736 0 m 176 0 l 176 986 l 315 986 l 315 0 l 176 0 m 262 420 l 262 551 l 810 551 l 810 420 l 262 420 z "},"I":{"ha":382,"x_min":122,"x_max":260,"o":"m 260 986 l 260 0 l 122 0 l 122 986 l 260 986 z "},"Í":{"ha":382,"x_min":122,"x_max":404,"o":"m 260 986 l 260 0 l 122 0 l 122 986 l 260 986 m 204 1054 l 127 1134 l 315 1300 l 404 1207 l 204 1054 z "},"Î":{"ha":382,"x_min":-24,"x_max":402,"o":"m 260 986 l 260 0 l 122 0 l 122 986 l 260 986 m 189 1293 l 402 1127 l 321 1053 l 189 1154 l 57 1053 l -24 1127 l 189 1293 z "},"Ï":{"ha":382,"x_min":-17,"x_max":399,"o":"m 260 986 l 260 0 l 122 0 l 122 986 l 260 986 m 261 1067 l 261 1205 l 399 1205 l 399 1067 l 261 1067 m -17 1067 l -17 1205 l 121 1205 l 121 1067 l -17 1067 z "},"İ":{"ha":382,"x_min":122,"x_max":260,"o":"m 260 986 l 260 0 l 122 0 l 122 986 l 260 986 m 122 1067 l 122 1205 l 260 1205 l 260 1067 l 122 1067 z "},"Ị":{"ha":382,"x_min":119,"x_max":260,"o":"m 260 986 l 260 0 l 122 0 l 122 986 l 260 986 m 119 -288 l 119 -149 l 257 -149 l 257 -288 l 119 -288 z "},"Ì":{"ha":382,"x_min":-18,"x_max":260,"o":"m 260 986 l 260 0 l 122 0 l 122 986 l 260 986 m 175 1047 l -18 1200 l 64 1293 l 252 1127 l 175 1047 z "},"Ī":{"ha":382,"x_min":-56,"x_max":439,"o":"m 260 986 l 260 0 l 122 0 l 122 986 l 260 986 m -56 1202 l 439 1202 l 439 1067 l -56 1067 l -56 1202 z "},"Į":{"ha":382,"x_min":41,"x_max":307,"o":"m 245 -285 q 41 -111 41 -285 q 242 73 41 73 l 242 0 q 163 -91 163 0 q 245 -172 163 -172 l 307 -172 l 307 -285 l 245 -285 m 260 986 l 260 0 l 122 0 l 122 986 l 260 986 z "},"J":{"ha":702,"x_min":20,"x_max":580,"o":"m 272 -10 q 128 22 194 -10 q 20 111 62 54 l 134 193 q 189 141 153 159 q 272 123 224 123 q 397 173 353 123 q 441 314 441 223 l 441 986 l 580 986 l 580 313 q 499 75 580 159 q 272 -10 419 -10 z "},"K":{"ha":891,"x_min":122,"x_max":878,"o":"m 210 225 l 231 433 l 666 986 l 836 986 l 210 225 m 122 0 l 122 986 l 260 986 l 260 0 l 122 0 m 708 0 l 395 526 l 504 627 l 878 0 l 708 0 z "},"Ķ":{"ha":891,"x_min":122,"x_max":878,"o":"m 210 225 l 231 433 l 666 986 l 836 986 l 210 225 m 122 0 l 122 986 l 260 986 l 260 0 l 122 0 m 708 0 l 395 526 l 504 627 l 878 0 l 708 0 m 393 -376 l 393 -100 l 532 -100 l 532 -239 l 393 -376 z "},"Ƙ":{"ha":891,"x_min":122,"x_max":878,"o":"m 209 224 l 231 437 l 614 923 q 674 974 641 957 q 746 991 707 991 l 837 991 l 837 859 l 760 859 q 727 846 745 859 q 688 806 709 833 l 209 224 m 122 0 l 122 986 l 260 986 l 260 0 l 122 0 m 708 0 l 395 526 l 504 627 l 878 0 l 708 0 z "},"L":{"ha":796,"x_min":122,"x_max":755,"o":"m 122 0 l 122 986 l 260 986 l 260 0 l 122 0 m 191 0 l 191 132 l 755 132 l 755 0 l 191 0 z "},"Ĺ":{"ha":796,"x_min":122,"x_max":755,"o":"m 122 0 l 122 986 l 260 986 l 260 0 l 122 0 m 191 0 l 191 132 l 755 132 l 755 0 l 191 0 m 204 1054 l 127 1134 l 315 1300 l 404 1207 l 204 1054 z "},"Ľ":{"ha":796,"x_min":122,"x_max":755,"o":"m 122 0 l 122 986 l 260 986 l 260 0 l 122 0 m 191 0 l 191 132 l 755 132 l 755 0 l 191 0 m 614 703 l 614 985 l 732 985 l 732 813 l 614 703 z "},"Ļ":{"ha":796,"x_min":122,"x_max":755,"o":"m 122 0 l 122 986 l 260 986 l 260 0 l 122 0 m 191 0 l 191 132 l 755 132 l 755 0 l 191 0 m 340 -376 l 340 -100 l 479 -100 l 479 -239 l 340 -376 z "},"Ł":{"ha":857,"x_min":81,"x_max":817,"o":"m 81 353 l 81 486 l 586 696 l 586 564 l 81 353 m 183 0 l 183 986 l 321 986 l 321 0 l 183 0 m 252 0 l 252 132 l 817 132 l 817 0 l 252 0 z "},"M":{"ha":1082,"x_min":122,"x_max":960,"o":"m 541 335 l 831 986 l 960 986 l 960 0 l 825 0 l 825 739 l 832 695 l 589 137 l 493 137 l 250 682 l 257 739 l 257 0 l 122 0 l 122 986 l 252 986 l 541 335 z "},"N":{"ha":972,"x_min":122,"x_max":850,"o":"m 122 1 l 122 986 l 248 986 l 730 224 l 713 206 l 713 986 l 850 986 l 850 1 l 724 1 l 243 751 l 259 769 l 259 1 l 122 1 z "},"Ń":{"ha":972,"x_min":122,"x_max":850,"o":"m 122 1 l 122 986 l 248 986 l 730 224 l 713 206 l 713 986 l 850 986 l 850 1 l 724 1 l 243 751 l 259 769 l 259 1 l 122 1 m 509 1054 l 433 1134 l 620 1300 l 709 1207 l 509 1054 z "},"Ň":{"ha":972,"x_min":122,"x_max":850,"o":"m 122 1 l 122 986 l 248 986 l 730 224 l 713 206 l 713 986 l 850 986 l 850 1 l 724 1 l 243 751 l 259 769 l 259 1 l 122 1 m 496 1059 l 287 1221 l 364 1303 l 496 1201 l 629 1303 l 706 1221 l 496 1059 z "},"Ņ":{"ha":972,"x_min":122,"x_max":850,"o":"m 122 1 l 122 986 l 248 986 l 730 224 l 713 206 l 713 986 l 850 986 l 850 1 l 724 1 l 243 751 l 259 769 l 259 1 l 122 1 m 427 -376 l 427 -100 l 566 -100 l 566 -239 l 427 -376 z "},"Ŋ":{"ha":972,"x_min":122,"x_max":850,"o":"m 122 1 l 122 986 l 248 986 l 730 224 l 713 206 l 713 986 l 850 986 l 850 116 l 724 1 l 243 751 l 259 769 l 259 1 l 122 1 m 595 -262 l 595 -131 l 672 -131 q 702 -117 692 -131 q 712 -77 712 -102 l 712 178 l 850 178 l 850 -76 q 807 -214 850 -165 q 686 -262 764 -262 l 595 -262 z "},"Ñ":{"ha":972,"x_min":122,"x_max":850,"o":"m 122 1 l 122 986 l 248 986 l 730 224 l 713 206 l 713 986 l 850 986 l 850 1 l 724 1 l 243 751 l 259 769 l 259 1 l 122 1 m 621 1057 q 559 1065 586 1057 q 509 1084 533 1073 q 449 1117 476 1099 q 395 1134 422 1134 q 341 1073 341 1134 l 341 1059 l 234 1059 l 234 1076 q 269 1207 234 1164 q 372 1251 303 1251 q 448 1239 416 1251 q 506 1213 479 1227 q 553 1187 530 1200 q 597 1174 576 1174 q 652 1240 652 1174 l 652 1253 l 759 1253 l 759 1237 q 725 1102 759 1147 q 621 1057 690 1057 z "},"O":{"ha":897,"x_min":102,"x_max":795,"o":"m 448 -10 q 266 35 344 -10 q 145 162 188 80 q 102 353 102 244 l 102 633 q 145 824 102 743 q 266 951 188 906 q 448 996 344 996 q 631 951 553 996 q 752 824 709 906 q 795 633 795 743 l 795 353 q 752 162 795 244 q 631 35 709 80 q 448 -10 553 -10 m 448 126 q 597 187 541 126 q 653 349 653 248 l 653 637 q 597 799 653 739 q 448 860 541 860 q 300 799 356 860 q 243 637 243 739 l 243 349 q 300 187 243 248 q 448 126 356 126 z "},"Ó":{"ha":897,"x_min":102,"x_max":795,"o":"m 448 -10 q 266 35 344 -10 q 145 162 188 80 q 102 353 102 244 l 102 633 q 145 824 102 743 q 266 951 188 906 q 448 996 344 996 q 631 951 553 996 q 752 824 709 906 q 795 633 795 743 l 795 353 q 752 162 795 244 q 631 35 709 80 q 448 -10 553 -10 m 448 126 q 597 187 541 126 q 653 349 653 248 l 653 637 q 597 799 653 739 q 448 860 541 860 q 300 799 356 860 q 243 637 243 739 l 243 349 q 300 187 243 248 q 448 126 356 126 m 461 1054 l 385 1134 l 572 1300 l 661 1207 l 461 1054 z "},"Ô":{"ha":897,"x_min":102,"x_max":795,"o":"m 448 -10 q 266 35 344 -10 q 145 162 188 80 q 102 353 102 244 l 102 633 q 145 824 102 743 q 266 951 188 906 q 448 996 344 996 q 631 951 553 996 q 752 824 709 906 q 795 633 795 743 l 795 353 q 752 162 795 244 q 631 35 709 80 q 448 -10 553 -10 m 448 126 q 597 187 541 126 q 653 349 653 248 l 653 637 q 597 799 653 739 q 448 860 541 860 q 300 799 356 860 q 243 637 243 739 l 243 349 q 300 187 243 248 q 448 126 356 126 m 446 1293 l 659 1127 l 578 1053 l 446 1154 l 314 1053 l 233 1127 l 446 1293 z "},"Ö":{"ha":897,"x_min":102,"x_max":795,"o":"m 448 -10 q 266 35 344 -10 q 145 162 188 80 q 102 353 102 244 l 102 633 q 145 824 102 743 q 266 951 188 906 q 448 996 344 996 q 631 951 553 996 q 752 824 709 906 q 795 633 795 743 l 795 353 q 752 162 795 244 q 631 35 709 80 q 448 -10 553 -10 m 448 126 q 597 187 541 126 q 653 349 653 248 l 653 637 q 597 799 653 739 q 448 860 541 860 q 300 799 356 860 q 243 637 243 739 l 243 349 q 300 187 243 248 q 448 126 356 126 m 518 1067 l 518 1205 l 656 1205 l 656 1067 l 518 1067 m 240 1067 l 240 1205 l 378 1205 l 378 1067 l 240 1067 z "},"Ọ":{"ha":897,"x_min":102,"x_max":795,"o":"m 448 -10 q 266 35 344 -10 q 145 162 188 80 q 102 353 102 244 l 102 633 q 145 824 102 743 q 266 951 188 906 q 448 996 344 996 q 631 951 553 996 q 752 824 709 906 q 795 633 795 743 l 795 353 q 752 162 795 244 q 631 35 709 80 q 448 -10 553 -10 m 448 126 q 597 187 541 126 q 653 349 653 248 l 653 637 q 597 799 653 739 q 448 860 541 860 q 300 799 356 860 q 243 637 243 739 l 243 349 q 300 187 243 248 q 448 126 356 126 m 379 -288 l 379 -149 l 517 -149 l 517 -288 l 379 -288 z "},"Ò":{"ha":897,"x_min":102,"x_max":795,"o":"m 448 -10 q 266 35 344 -10 q 145 162 188 80 q 102 353 102 244 l 102 633 q 145 824 102 743 q 266 951 188 906 q 448 996 344 996 q 631 951 553 996 q 752 824 709 906 q 795 633 795 743 l 795 353 q 752 162 795 244 q 631 35 709 80 q 448 -10 553 -10 m 448 126 q 597 187 541 126 q 653 349 653 248 l 653 637 q 597 799 653 739 q 448 860 541 860 q 300 799 356 860 q 243 637 243 739 l 243 349 q 300 187 243 248 q 448 126 356 126 m 432 1047 l 239 1200 l 321 1293 l 509 1127 l 432 1047 z "},"Ơ":{"ha":924,"x_min":102,"x_max":941,"o":"m 741 861 l 563 861 l 563 972 l 719 972 q 806 1080 806 972 l 806 1103 l 941 1103 l 941 1067 q 741 861 941 861 m 448 -10 q 266 35 344 -10 q 145 162 188 80 q 102 353 102 244 l 102 633 q 145 824 102 743 q 266 951 188 906 q 448 996 344 996 q 631 951 553 996 q 752 824 709 906 q 795 633 795 743 l 795 353 q 752 162 795 244 q 631 35 709 80 q 448 -10 553 -10 m 448 126 q 597 187 541 126 q 653 349 653 248 l 653 637 q 597 799 653 739 q 448 860 541 860 q 300 799 356 860 q 243 637 243 739 l 243 349 q 300 187 243 248 q 448 126 356 126 z "},"Ő":{"ha":897,"x_min":102,"x_max":795,"o":"m 448 -10 q 266 35 344 -10 q 145 162 188 80 q 102 353 102 244 l 102 633 q 145 824 102 743 q 266 951 188 906 q 448 996 344 996 q 631 951 553 996 q 752 824 709 906 q 795 633 795 743 l 795 353 q 752 162 795 244 q 631 35 709 80 q 448 -10 553 -10 m 448 126 q 597 187 541 126 q 653 349 653 248 l 653 637 q 597 799 653 739 q 448 860 541 860 q 300 799 356 860 q 243 637 243 739 l 243 349 q 300 187 243 248 q 448 126 356 126 m 583 1047 l 500 1127 l 653 1300 l 749 1207 l 583 1047 m 312 1047 l 229 1127 l 382 1300 l 478 1207 l 312 1047 z "},"Ō":{"ha":897,"x_min":102,"x_max":795,"o":"m 448 -10 q 266 35 344 -10 q 145 162 188 80 q 102 353 102 244 l 102 633 q 145 824 102 743 q 266 951 188 906 q 448 996 344 996 q 631 951 553 996 q 752 824 709 906 q 795 633 795 743 l 795 353 q 752 162 795 244 q 631 35 709 80 q 448 -10 553 -10 m 448 126 q 597 187 541 126 q 653 349 653 248 l 653 637 q 597 799 653 739 q 448 860 541 860 q 300 799 356 860 q 243 637 243 739 l 243 349 q 300 187 243 248 q 448 126 356 126 m 201 1202 l 696 1202 l 696 1067 l 201 1067 l 201 1202 z "},"Ɔ":{"ha":859,"x_min":75,"x_max":758,"o":"m 414 -10 q 259 26 330 -10 q 140 129 188 63 q 75 283 92 195 l 75 283 l 216 283 l 216 283 q 293 165 236 206 q 414 125 350 125 q 561 189 505 125 q 616 357 616 252 l 616 628 q 561 797 616 733 q 414 861 505 861 q 331 842 371 861 q 260 786 290 822 q 216 703 229 751 l 216 703 l 75 703 l 75 703 q 139 857 92 791 q 258 960 187 923 q 414 996 329 996 q 595 950 518 996 q 715 822 672 905 q 758 628 758 739 l 758 357 q 715 164 758 247 q 595 36 672 81 q 414 -10 518 -10 z "},"Ø":{"ha":897,"x_min":102,"x_max":795,"o":"m 127 -89 l 676 1083 l 781 1083 l 233 -89 l 127 -89 m 448 -10 q 266 35 344 -10 q 145 162 188 80 q 102 353 102 244 l 102 633 q 145 824 102 743 q 266 951 188 906 q 448 996 344 996 q 631 951 553 996 q 752 824 709 906 q 795 633 795 743 l 795 353 q 752 162 795 244 q 631 35 709 80 q 448 -10 553 -10 m 448 126 q 597 187 541 126 q 653 349 653 248 l 653 637 q 597 799 653 739 q 448 860 541 860 q 300 799 356 860 q 243 637 243 739 l 243 349 q 300 187 243 248 q 448 126 356 126 z "},"Õ":{"ha":897,"x_min":102,"x_max":795,"o":"m 448 -10 q 266 35 344 -10 q 145 162 188 80 q 102 353 102 244 l 102 633 q 145 824 102 743 q 266 951 188 906 q 448 996 344 996 q 631 951 553 996 q 752 824 709 906 q 795 633 795 743 l 795 353 q 752 162 795 244 q 631 35 709 80 q 448 -10 553 -10 m 448 126 q 597 187 541 126 q 653 349 653 248 l 653 637 q 597 799 653 739 q 448 860 541 860 q 300 799 356 860 q 243 637 243 739 l 243 349 q 300 187 243 248 q 448 126 356 126 m 573 1057 q 511 1065 538 1057 q 461 1084 485 1073 q 401 1117 428 1099 q 347 1134 374 1134 q 293 1073 293 1134 l 293 1059 l 186 1059 l 186 1076 q 220 1207 186 1164 q 324 1251 255 1251 q 399 1239 368 1251 q 458 1213 431 1227 q 505 1187 482 1200 q 549 1174 528 1174 q 604 1240 604 1174 l 604 1253 l 711 1253 l 711 1237 q 676 1102 711 1147 q 573 1057 642 1057 z "},"Œ":{"ha":1392,"x_min":102,"x_max":1318,"o":"m 469 -10 q 276 35 358 -10 q 148 162 193 80 q 102 353 102 244 l 102 633 q 148 824 102 743 q 276 951 193 906 q 469 996 358 996 q 634 951 568 996 q 731 824 699 906 q 764 633 764 743 l 764 353 q 731 162 764 244 q 634 35 699 80 q 469 -10 568 -10 m 469 126 q 625 187 566 126 q 684 349 684 248 l 684 637 q 625 799 684 739 q 469 860 566 860 q 303 799 366 860 q 240 637 240 739 l 240 349 q 303 187 240 248 q 469 126 366 126 m 684 0 l 684 986 l 823 986 l 823 0 l 684 0 m 751 0 l 751 132 l 1318 132 l 1318 0 l 751 0 m 751 424 l 751 555 l 1243 555 l 1243 424 l 751 424 m 751 854 l 751 986 l 1318 986 l 1318 854 l 751 854 z "},"P":{"ha":865,"x_min":122,"x_max":800,"o":"m 193 382 l 193 514 l 509 514 q 617 561 576 514 q 659 684 659 608 l 659 684 q 617 808 659 761 q 509 854 576 854 l 193 854 l 193 986 l 504 986 q 660 948 593 986 q 763 843 726 911 q 800 684 800 775 l 800 684 q 763 525 800 593 q 660 420 726 457 q 504 382 593 382 l 193 382 m 122 0 l 122 986 l 260 986 l 260 0 l 122 0 z "},"Þ":{"ha":865,"x_min":122,"x_max":800,"o":"m 193 206 l 193 338 l 509 338 q 617 385 576 338 q 659 507 659 431 l 659 507 q 617 631 659 585 q 509 678 576 678 l 193 678 l 193 810 l 504 810 q 660 772 593 810 q 763 667 726 734 q 800 507 800 599 l 800 507 q 763 349 800 416 q 660 243 726 281 q 504 206 593 206 l 193 206 m 122 0 l 122 986 l 260 986 l 260 0 l 122 0 z "},"Q":{"ha":913,"x_min":102,"x_max":886,"o":"m 814 -16 l 446 273 l 518 365 l 886 76 l 814 -16 m 448 -10 q 266 35 344 -10 q 145 162 188 80 q 102 353 102 244 l 102 633 q 145 824 102 743 q 266 951 188 906 q 448 996 344 996 q 631 951 553 996 q 752 824 709 906 q 795 633 795 743 l 795 353 q 752 162 795 244 q 631 35 709 80 q 448 -10 553 -10 m 448 126 q 597 187 541 126 q 653 349 653 248 l 653 637 q 597 799 653 739 q 448 860 541 860 q 300 799 356 860 q 243 637 243 739 l 243 349 q 300 187 243 248 q 448 126 356 126 z "},"R":{"ha":905,"x_min":122,"x_max":841,"o":"m 182 417 l 182 549 l 519 549 q 616 591 579 549 q 652 702 652 633 l 652 702 q 616 813 652 771 q 519 855 579 855 l 182 855 l 182 987 l 513 987 q 664 951 600 987 q 764 852 728 916 q 800 702 800 788 l 800 702 q 764 552 800 616 q 664 453 728 488 q 513 417 600 417 l 182 417 m 122 0 l 122 987 l 260 987 l 260 0 l 122 0 m 677 0 l 451 448 l 589 479 l 841 0 l 677 0 z "},"Ŕ":{"ha":905,"x_min":122,"x_max":841,"o":"m 182 417 l 182 549 l 519 549 q 616 591 579 549 q 652 702 652 633 l 652 702 q 616 813 652 771 q 519 855 579 855 l 182 855 l 182 987 l 513 987 q 664 951 600 987 q 764 852 728 916 q 800 702 800 788 l 800 702 q 764 552 800 616 q 664 453 728 488 q 513 417 600 417 l 182 417 m 122 0 l 122 987 l 260 987 l 260 0 l 122 0 m 677 0 l 451 448 l 589 479 l 841 0 l 677 0 m 452 1054 l 376 1134 l 563 1300 l 652 1207 l 452 1054 z "},"Ř":{"ha":905,"x_min":122,"x_max":841,"o":"m 182 417 l 182 549 l 519 549 q 616 591 579 549 q 652 702 652 633 l 652 702 q 616 813 652 771 q 519 855 579 855 l 182 855 l 182 987 l 513 987 q 664 951 600 987 q 764 852 728 916 q 800 702 800 788 l 800 702 q 764 552 800 616 q 664 453 728 488 q 513 417 600 417 l 182 417 m 122 0 l 122 987 l 260 987 l 260 0 l 122 0 m 677 0 l 451 448 l 589 479 l 841 0 l 677 0 m 439 1059 l 230 1221 l 307 1303 l 439 1201 l 572 1303 l 649 1221 l 439 1059 z "},"Ŗ":{"ha":905,"x_min":122,"x_max":841,"o":"m 182 417 l 182 549 l 519 549 q 616 591 579 549 q 652 702 652 633 l 652 702 q 616 813 652 771 q 519 855 579 855 l 182 855 l 182 987 l 513 987 q 664 951 600 987 q 764 852 728 916 q 800 702 800 788 l 800 702 q 764 552 800 616 q 664 453 728 488 q 513 417 600 417 l 182 417 m 122 0 l 122 987 l 260 987 l 260 0 l 122 0 m 677 0 l 451 448 l 589 479 l 841 0 l 677 0 m 370 -376 l 370 -100 l 509 -100 l 509 -239 l 370 -376 z "},"S":{"ha":855,"x_min":61,"x_max":781,"o":"m 418 -10 q 283 3 347 -10 q 164 44 220 17 q 61 112 109 71 l 61 112 l 147 218 l 147 218 q 271 144 203 169 q 418 120 339 120 q 585 160 526 120 q 644 272 644 200 l 644 273 q 614 359 644 329 q 535 403 584 389 q 429 427 487 418 q 317 450 374 437 q 213 490 260 463 q 137 569 165 517 q 108 707 108 621 l 108 707 q 199 921 108 845 q 458 996 291 996 q 613 971 537 996 q 761 893 689 945 l 761 893 l 682 783 l 682 783 q 570 846 626 825 q 458 866 514 866 q 301 826 357 866 q 245 711 245 785 l 245 711 q 277 626 245 655 q 362 583 310 597 q 475 557 415 569 q 584 531 530 546 q 683 487 638 515 q 754 408 727 458 q 781 277 781 357 l 781 275 q 686 64 781 139 q 418 -10 591 -10 z "},"Ś":{"ha":855,"x_min":61,"x_max":781,"o":"m 418 -10 q 283 3 347 -10 q 164 44 220 17 q 61 112 109 71 l 61 112 l 147 218 l 147 218 q 271 144 203 169 q 418 120 339 120 q 585 160 526 120 q 644 272 644 200 l 644 273 q 614 359 644 329 q 535 403 584 389 q 429 427 487 418 q 317 450 374 437 q 213 490 260 463 q 137 569 165 517 q 108 707 108 621 l 108 707 q 199 921 108 845 q 458 996 291 996 q 613 971 537 996 q 761 893 689 945 l 761 893 l 682 783 l 682 783 q 570 846 626 825 q 458 866 514 866 q 301 826 357 866 q 245 711 245 785 l 245 711 q 277 626 245 655 q 362 583 310 597 q 475 557 415 569 q 584 531 530 546 q 683 487 638 515 q 754 408 727 458 q 781 277 781 357 l 781 275 q 686 64 781 139 q 418 -10 591 -10 m 448 1054 l 371 1134 l 558 1300 l 648 1207 l 448 1054 z "},"Š":{"ha":855,"x_min":61,"x_max":781,"o":"m 418 -10 q 283 3 347 -10 q 164 44 220 17 q 61 112 109 71 l 61 112 l 147 218 l 147 218 q 271 144 203 169 q 418 120 339 120 q 585 160 526 120 q 644 272 644 200 l 644 273 q 614 359 644 329 q 535 403 584 389 q 429 427 487 418 q 317 450 374 437 q 213 490 260 463 q 137 569 165 517 q 108 707 108 621 l 108 707 q 199 921 108 845 q 458 996 291 996 q 613 971 537 996 q 761 893 689 945 l 761 893 l 682 783 l 682 783 q 570 846 626 825 q 458 866 514 866 q 301 826 357 866 q 245 711 245 785 l 245 711 q 277 626 245 655 q 362 583 310 597 q 475 557 415 569 q 584 531 530 546 q 683 487 638 515 q 754 408 727 458 q 781 277 781 357 l 781 275 q 686 64 781 139 q 418 -10 591 -10 m 435 1059 l 225 1221 l 302 1303 l 435 1201 l 567 1303 l 644 1221 l 435 1059 z "},"Ş":{"ha":855,"x_min":61,"x_max":781,"o":"m 418 -10 q 283 3 347 -10 q 164 44 220 17 q 61 112 109 71 l 61 112 l 147 218 l 147 218 q 271 144 203 169 q 418 120 339 120 q 585 160 526 120 q 644 272 644 200 l 644 273 q 614 359 644 329 q 535 403 584 389 q 429 427 487 418 q 317 450 374 437 q 213 490 260 463 q 137 569 165 517 q 108 707 108 621 l 108 707 q 199 921 108 845 q 458 996 291 996 q 613 971 537 996 q 761 893 689 945 l 761 893 l 682 783 l 682 783 q 570 846 626 825 q 458 866 514 866 q 301 826 357 866 q 245 711 245 785 l 245 711 q 277 626 245 655 q 362 583 310 597 q 475 557 415 569 q 584 531 530 546 q 683 487 638 515 q 754 408 727 458 q 781 277 781 357 l 781 275 q 686 64 781 139 q 418 -10 591 -10 m 433 -286 q 371 -283 399 -286 q 321 -274 343 -280 l 350 -179 q 414 -189 382 -189 q 488 -154 488 -189 q 464 -129 488 -137 q 389 -121 439 -121 l 448 -42 q 568 -72 528 -42 q 608 -163 608 -102 q 564 -256 608 -225 q 433 -286 521 -286 m 378 41 l 491 41 l 491 -122 l 378 -121 l 378 41 z "},"Ș":{"ha":855,"x_min":61,"x_max":781,"o":"m 418 -10 q 283 3 347 -10 q 164 44 220 17 q 61 112 109 71 l 61 112 l 147 218 l 147 218 q 271 144 203 169 q 418 120 339 120 q 585 160 526 120 q 644 272 644 200 l 644 273 q 614 359 644 329 q 535 403 584 389 q 429 427 487 418 q 317 450 374 437 q 213 490 260 463 q 137 569 165 517 q 108 707 108 621 l 108 707 q 199 921 108 845 q 458 996 291 996 q 613 971 537 996 q 761 893 689 945 l 761 893 l 682 783 l 682 783 q 570 846 626 825 q 458 866 514 866 q 301 826 357 866 q 245 711 245 785 l 245 711 q 277 626 245 655 q 362 583 310 597 q 475 557 415 569 q 584 531 530 546 q 683 487 638 515 q 754 408 727 458 q 781 277 781 357 l 781 275 q 686 64 781 139 q 418 -10 591 -10 m 366 -376 l 366 -100 l 504 -100 l 504 -239 l 366 -376 z "},"Ṣ":{"ha":855,"x_min":61,"x_max":781,"o":"m 418 -10 q 283 3 347 -10 q 164 44 220 17 q 61 112 109 71 l 61 112 l 147 218 l 147 218 q 271 144 203 169 q 418 120 339 120 q 585 160 526 120 q 644 272 644 200 l 644 273 q 614 359 644 329 q 535 403 584 389 q 429 427 487 418 q 317 450 374 437 q 213 490 260 463 q 137 569 165 517 q 108 707 108 621 l 108 707 q 199 921 108 845 q 458 996 291 996 q 613 971 537 996 q 761 893 689 945 l 761 893 l 682 783 l 682 783 q 570 846 626 825 q 458 866 514 866 q 301 826 357 866 q 245 711 245 785 l 245 711 q 277 626 245 655 q 362 583 310 597 q 475 557 415 569 q 584 531 530 546 q 683 487 638 515 q 754 408 727 458 q 781 277 781 357 l 781 275 q 686 64 781 139 q 418 -10 591 -10 m 366 -288 l 366 -149 l 504 -149 l 504 -288 l 366 -288 z "},"Ə":{"ha":869,"x_min":109,"x_max":767,"o":"m 441 -10 q 200 78 286 -10 q 115 326 115 166 l 115 538 l 667 538 l 667 407 l 256 407 l 256 328 q 304 179 256 232 q 441 126 353 126 q 577 179 529 126 q 625 328 625 232 l 625 665 q 574 809 625 758 q 427 860 522 860 q 301 830 359 860 q 206 746 243 800 l 206 746 l 109 844 l 109 844 q 254 956 170 916 q 427 996 337 996 q 678 908 589 996 q 767 660 767 820 l 767 326 q 682 78 767 166 q 441 -10 597 -10 z "},"T":{"ha":669,"x_min":-14,"x_max":682,"o":"m 265 0 l 265 905 l 404 905 l 404 0 l 265 0 m -14 854 l -14 986 l 682 986 l 682 854 l -14 854 z "},"Ť":{"ha":669,"x_min":-14,"x_max":682,"o":"m 265 0 l 265 905 l 404 905 l 404 0 l 265 0 m -14 854 l -14 986 l 682 986 l 682 854 l -14 854 m 334 1059 l 125 1221 l 202 1303 l 334 1201 l 467 1303 l 544 1221 l 334 1059 z "},"Ţ":{"ha":669,"x_min":-14,"x_max":682,"o":"m 265 0 l 265 905 l 404 905 l 404 0 l 265 0 m -14 854 l -14 986 l 682 986 l 682 854 l -14 854 m 333 -286 q 271 -283 299 -286 q 221 -274 243 -280 l 250 -179 q 314 -189 282 -189 q 388 -154 388 -189 q 363 -129 388 -137 q 289 -121 339 -121 l 348 -42 q 468 -72 428 -42 q 507 -163 507 -102 q 464 -256 507 -225 q 333 -286 420 -286 m 278 41 l 391 41 l 391 -122 l 278 -121 l 278 41 z "},"Ț":{"ha":669,"x_min":-14,"x_max":682,"o":"m 265 0 l 265 905 l 404 905 l 404 0 l 265 0 m -14 854 l -14 986 l 682 986 l 682 854 l -14 854 m 265 -376 l 265 -100 l 404 -100 l 404 -239 l 265 -376 z "},"U":{"ha":910,"x_min":109,"x_max":802,"o":"m 454 -10 q 199 86 290 -10 q 109 357 109 182 l 109 986 l 247 986 l 247 352 q 301 185 247 244 q 454 126 355 126 q 609 185 554 126 q 663 352 663 244 l 663 986 l 802 986 l 802 357 q 711 86 802 182 q 454 -10 620 -10 z "},"Ú":{"ha":910,"x_min":109,"x_max":802,"o":"m 454 -10 q 199 86 290 -10 q 109 357 109 182 l 109 986 l 247 986 l 247 352 q 301 185 247 244 q 454 126 355 126 q 609 185 554 126 q 663 352 663 244 l 663 986 l 802 986 l 802 357 q 711 86 802 182 q 454 -10 620 -10 m 468 1054 l 391 1134 l 578 1300 l 668 1207 l 468 1054 z "},"Ŭ":{"ha":910,"x_min":109,"x_max":802,"o":"m 454 -10 q 199 86 290 -10 q 109 357 109 182 l 109 986 l 247 986 l 247 352 q 301 185 247 244 q 454 126 355 126 q 609 185 554 126 q 663 352 663 244 l 663 986 l 802 986 l 802 357 q 711 86 802 182 q 454 -10 620 -10 m 572 1262 l 684 1263 q 625 1111 684 1165 q 458 1057 566 1057 l 452 1057 q 286 1111 345 1057 q 227 1263 227 1165 l 338 1262 q 369 1183 338 1211 q 452 1155 399 1155 l 458 1155 q 542 1183 512 1155 q 572 1262 572 1211 z "},"Û":{"ha":910,"x_min":109,"x_max":802,"o":"m 454 -10 q 199 86 290 -10 q 109 357 109 182 l 109 986 l 247 986 l 247 352 q 301 185 247 244 q 454 126 355 126 q 609 185 554 126 q 663 352 663 244 l 663 986 l 802 986 l 802 357 q 711 86 802 182 q 454 -10 620 -10 m 453 1293 l 666 1127 l 585 1053 l 453 1154 l 321 1053 l 240 1127 l 453 1293 z "},"Ü":{"ha":910,"x_min":109,"x_max":802,"o":"m 454 -10 q 199 86 290 -10 q 109 357 109 182 l 109 986 l 247 986 l 247 352 q 301 185 247 244 q 454 126 355 126 q 609 185 554 126 q 663 352 663 244 l 663 986 l 802 986 l 802 357 q 711 86 802 182 q 454 -10 620 -10 m 525 1067 l 525 1205 l 663 1205 l 663 1067 l 525 1067 m 247 1067 l 247 1205 l 385 1205 l 385 1067 l 247 1067 z "},"Ụ":{"ha":910,"x_min":109,"x_max":802,"o":"m 454 -10 q 199 86 290 -10 q 109 357 109 182 l 109 986 l 247 986 l 247 352 q 301 185 247 244 q 454 126 355 126 q 609 185 554 126 q 663 352 663 244 l 663 986 l 802 986 l 802 357 q 711 86 802 182 q 454 -10 620 -10 m 385 -288 l 385 -149 l 524 -149 l 524 -288 l 385 -288 z "},"Ù":{"ha":910,"x_min":109,"x_max":802,"o":"m 454 -10 q 199 86 290 -10 q 109 357 109 182 l 109 986 l 247 986 l 247 352 q 301 185 247 244 q 454 126 355 126 q 609 185 554 126 q 663 352 663 244 l 663 986 l 802 986 l 802 357 q 711 86 802 182 q 454 -10 620 -10 m 439 1047 l 245 1200 l 328 1293 l 515 1127 l 439 1047 z "},"Ư":{"ha":1006,"x_min":109,"x_max":1000,"o":"m 454 -10 q 199 86 290 -10 q 109 357 109 182 l 109 986 l 247 986 l 247 352 q 301 185 247 244 q 454 126 355 126 q 609 185 554 126 q 663 352 663 244 l 663 986 l 802 986 l 802 357 q 711 86 802 182 q 454 -10 620 -10 m 800 888 l 669 888 l 669 986 l 777 986 q 842 1011 819 986 q 865 1080 865 1036 l 865 1130 l 1000 1130 l 1000 1067 q 947 935 1000 982 q 800 888 895 888 z "},"Ű":{"ha":910,"x_min":109,"x_max":802,"o":"m 454 -10 q 199 86 290 -10 q 109 357 109 182 l 109 986 l 247 986 l 247 352 q 301 185 247 244 q 454 126 355 126 q 609 185 554 126 q 663 352 663 244 l 663 986 l 802 986 l 802 357 q 711 86 802 182 q 454 -10 620 -10 m 590 1047 l 507 1127 l 660 1300 l 756 1207 l 590 1047 m 319 1047 l 235 1127 l 389 1300 l 485 1207 l 319 1047 z "},"Ū":{"ha":910,"x_min":109,"x_max":802,"o":"m 454 -10 q 199 86 290 -10 q 109 357 109 182 l 109 986 l 247 986 l 247 352 q 301 185 247 244 q 454 126 355 126 q 609 185 554 126 q 663 352 663 244 l 663 986 l 802 986 l 802 357 q 711 86 802 182 q 454 -10 620 -10 m 208 1202 l 703 1202 l 703 1067 l 208 1067 l 208 1202 z "},"Ų":{"ha":910,"x_min":109,"x_max":802,"o":"m 551 -285 q 347 -111 347 -285 q 542 66 347 66 l 542 0 q 470 -91 470 0 q 551 -172 470 -172 l 614 -172 l 614 -285 l 551 -285 m 454 -10 q 199 86 290 -10 q 109 357 109 182 l 109 986 l 247 986 l 247 352 q 301 185 247 244 q 454 126 355 126 q 609 185 554 126 q 663 352 663 244 l 663 986 l 802 986 l 802 357 q 711 86 802 182 q 454 -10 620 -10 z "},"Ů":{"ha":910,"x_min":109,"x_max":802,"o":"m 454 -10 q 199 86 290 -10 q 109 357 109 182 l 109 986 l 247 986 l 247 352 q 301 185 247 244 q 454 126 355 126 q 609 185 554 126 q 663 352 663 244 l 663 986 l 802 986 l 802 357 q 711 86 802 182 q 454 -10 620 -10 m 455 1046 q 332 1086 375 1046 q 289 1202 289 1127 q 332 1323 289 1281 q 455 1366 375 1366 q 578 1322 535 1366 q 621 1202 621 1279 q 578 1086 621 1127 q 455 1046 534 1046 m 455 1141 q 502 1158 485 1141 q 518 1205 518 1175 q 502 1254 518 1236 q 455 1272 486 1272 q 408 1254 425 1272 q 392 1205 392 1237 q 408 1158 392 1175 q 455 1141 425 1141 z "},"V":{"ha":815,"x_min":20,"x_max":795,"o":"m 342 0 l 20 986 l 171 986 l 408 213 l 644 986 l 795 986 l 473 0 l 342 0 z "},"Ɣ":{"ha":815,"x_min":20,"x_max":795,"o":"m 408 -286 q 290 -256 326 -286 q 253 -160 253 -226 q 279 -57 253 -119 q 364 102 306 5 l 451 102 q 536 -57 509 5 q 562 -160 562 -119 q 526 -256 562 -226 q 408 -286 489 -286 m 408 -175 q 441 -136 441 -175 q 408 -32 441 -108 q 374 -136 374 -115 q 408 -175 374 -175 m 342 0 l 20 986 l 171 986 l 408 213 l 644 986 l 795 986 l 473 0 l 342 0 z "},"Ʋ":{"ha":910,"x_min":109,"x_max":802,"o":"m 454 -10 q 199 86 290 -10 q 109 357 109 182 l 109 986 l 247 986 l 247 352 q 301 185 247 244 q 454 126 355 126 q 609 185 554 126 q 663 352 663 244 l 663 735 l 802 735 l 802 357 q 711 86 802 182 q 454 -10 620 -10 m 663 579 l 663 801 q 653 841 663 827 q 623 854 643 854 l 546 854 l 546 986 l 637 986 q 759 937 715 986 q 802 800 802 888 l 802 579 l 663 579 z "},"W":{"ha":1176,"x_min":20,"x_max":1156,"o":"m 338 213 l 541 986 l 635 986 l 838 213 l 1012 986 l 1156 986 l 915 0 l 774 0 l 592 689 l 402 0 l 261 0 l 20 986 l 164 986 l 338 213 z "},"X":{"ha":788,"x_min":14,"x_max":774,"o":"m 619 0 l 363 433 l 342 467 l 22 986 l 177 986 l 415 585 l 437 548 l 774 0 l 619 0 m 14 0 l 357 564 l 604 986 l 760 986 l 433 452 l 169 0 l 14 0 z "},"Y":{"ha":699,"x_min":-20,"x_max":719,"o":"m 719 986 l 418 401 l 418 0 l 280 0 l 280 401 l -20 986 l 134 986 l 349 541 l 565 986 l 719 986 z "},"Ý":{"ha":699,"x_min":-20,"x_max":719,"o":"m 719 986 l 418 401 l 418 0 l 280 0 l 280 401 l -20 986 l 134 986 l 349 541 l 565 986 l 719 986 m 362 1054 l 286 1134 l 473 1300 l 562 1207 l 362 1054 z "},"Ÿ":{"ha":699,"x_min":-20,"x_max":719,"o":"m 719 986 l 418 401 l 418 0 l 280 0 l 280 401 l -20 986 l 134 986 l 349 541 l 565 986 l 719 986 m 419 1067 l 419 1205 l 557 1205 l 557 1067 l 419 1067 m 141 1067 l 141 1205 l 279 1205 l 279 1067 l 141 1067 z "},"Ƴ":{"ha":718,"x_min":-20,"x_max":748,"o":"m 280 0 l 280 401 l -20 986 l 134 986 l 382 471 l 418 469 l 418 0 l 280 0 m 382 329 l 326 494 l 477 804 q 524 900 504 858 q 574 966 545 942 q 656 991 604 991 l 748 991 l 748 859 l 683 859 q 650 844 664 859 q 625 806 637 829 l 382 329 z "},"Z":{"ha":755,"x_min":81,"x_max":694,"o":"m 681 986 l 681 867 l 252 132 l 694 132 l 694 0 l 81 0 l 81 119 l 514 854 l 94 854 l 94 986 l 681 986 z "},"Ź":{"ha":755,"x_min":81,"x_max":694,"o":"m 681 986 l 681 867 l 252 132 l 694 132 l 694 0 l 81 0 l 81 119 l 514 854 l 94 854 l 94 986 l 681 986 m 404 1054 l 328 1134 l 515 1300 l 604 1207 l 404 1054 z "},"Ž":{"ha":755,"x_min":81,"x_max":694,"o":"m 681 986 l 681 867 l 252 132 l 694 132 l 694 0 l 81 0 l 81 119 l 514 854 l 94 854 l 94 986 l 681 986 m 391 1059 l 182 1221 l 259 1303 l 391 1201 l 524 1303 l 601 1221 l 391 1059 z "},"Ż":{"ha":755,"x_min":81,"x_max":694,"o":"m 681 986 l 681 867 l 252 132 l 694 132 l 694 0 l 81 0 l 81 119 l 514 854 l 94 854 l 94 986 l 681 986 m 322 1067 l 322 1205 l 460 1205 l 460 1067 l 322 1067 z "},"a":{"ha":739,"x_min":75,"x_max":637,"o":"m 506 0 l 506 446 q 469 554 506 515 q 364 592 432 592 q 282 579 323 592 q 210 543 242 567 l 109 612 q 215 687 149 661 q 360 714 280 714 q 565 646 492 714 q 637 452 637 577 l 637 0 l 506 0 m 334 -10 q 139 43 204 -10 q 75 208 75 97 q 134 365 75 313 q 312 416 193 416 l 512 416 l 522 305 l 313 305 q 232 281 259 305 q 205 208 205 257 q 241 128 205 154 q 349 102 277 102 q 467 119 427 102 q 506 172 506 136 l 520 73 q 475 26 502 45 q 413 -1 448 8 q 334 -10 378 -10 z "},"á":{"ha":739,"x_min":75,"x_max":637,"o":"m 506 0 l 506 446 q 469 554 506 515 q 364 592 432 592 q 282 579 323 592 q 210 543 242 567 l 109 612 q 215 687 149 661 q 360 714 280 714 q 565 646 492 714 q 637 452 637 577 l 637 0 l 506 0 m 334 -10 q 139 43 204 -10 q 75 208 75 97 q 134 365 75 313 q 312 416 193 416 l 512 416 l 522 305 l 313 305 q 232 281 259 305 q 205 208 205 257 q 241 128 205 154 q 349 102 277 102 q 467 119 427 102 q 506 172 506 136 l 520 73 q 475 26 502 45 q 413 -1 448 8 q 334 -10 378 -10 m 378 840 l 291 909 l 485 1150 l 585 1067 l 378 840 z "},"ă":{"ha":739,"x_min":75,"x_max":637,"o":"m 506 0 l 506 446 q 469 554 506 515 q 364 592 432 592 q 282 579 323 592 q 210 543 242 567 l 109 612 q 215 687 149 661 q 360 714 280 714 q 565 646 492 714 q 637 452 637 577 l 637 0 l 506 0 m 334 -10 q 139 43 204 -10 q 75 208 75 97 q 134 365 75 313 q 312 416 193 416 l 512 416 l 522 305 l 313 305 q 232 281 259 305 q 205 208 205 257 q 241 128 205 154 q 349 102 277 102 q 467 119 427 102 q 506 172 506 136 l 520 73 q 475 26 502 45 q 413 -1 448 8 q 334 -10 378 -10 m 360 838 q 209 898 259 838 q 158 1080 158 959 l 158 1080 l 269 1080 l 269 1080 q 360 945 269 945 l 372 945 q 463 1080 463 945 l 463 1080 l 574 1080 l 574 1080 q 524 898 574 959 q 372 838 473 838 l 360 838 z "},"â":{"ha":739,"x_min":75,"x_max":637,"o":"m 506 0 l 506 446 q 469 554 506 515 q 364 592 432 592 q 282 579 323 592 q 210 543 242 567 l 109 612 q 215 687 149 661 q 360 714 280 714 q 565 646 492 714 q 637 452 637 577 l 637 0 l 506 0 m 334 -10 q 139 43 204 -10 q 75 208 75 97 q 134 365 75 313 q 312 416 193 416 l 512 416 l 522 305 l 313 305 q 232 281 259 305 q 205 208 205 257 q 241 128 205 154 q 349 102 277 102 q 467 119 427 102 q 506 172 506 136 l 520 73 q 475 26 502 45 q 413 -1 448 8 q 334 -10 378 -10 m 366 1117 l 579 911 l 502 840 l 366 968 l 231 840 l 153 911 l 366 1117 z "},"ä":{"ha":739,"x_min":75,"x_max":637,"o":"m 506 0 l 506 446 q 469 554 506 515 q 364 592 432 592 q 282 579 323 592 q 210 543 242 567 l 109 612 q 215 687 149 661 q 360 714 280 714 q 565 646 492 714 q 637 452 637 577 l 637 0 l 506 0 m 334 -10 q 139 43 204 -10 q 75 208 75 97 q 134 365 75 313 q 312 416 193 416 l 512 416 l 522 305 l 313 305 q 232 281 259 305 q 205 208 205 257 q 241 128 205 154 q 349 102 277 102 q 467 119 427 102 q 506 172 506 136 l 520 73 q 475 26 502 45 q 413 -1 448 8 q 334 -10 378 -10 m 439 848 l 439 986 l 578 986 l 578 848 l 439 848 m 155 848 l 155 986 l 293 986 l 293 848 l 155 848 z "},"ạ":{"ha":739,"x_min":75,"x_max":637,"o":"m 506 0 l 506 446 q 469 554 506 515 q 364 592 432 592 q 282 579 323 592 q 210 543 242 567 l 109 612 q 215 687 149 661 q 360 714 280 714 q 565 646 492 714 q 637 452 637 577 l 637 0 l 506 0 m 334 -10 q 139 43 204 -10 q 75 208 75 97 q 134 365 75 313 q 312 416 193 416 l 512 416 l 522 305 l 313 305 q 232 281 259 305 q 205 208 205 257 q 241 128 205 154 q 349 102 277 102 q 467 119 427 102 q 506 172 506 136 l 520 73 q 475 26 502 45 q 413 -1 448 8 q 334 -10 378 -10 m 297 -288 l 297 -149 l 435 -149 l 435 -288 l 297 -288 z "},"à":{"ha":739,"x_min":75,"x_max":637,"o":"m 506 0 l 506 446 q 469 554 506 515 q 364 592 432 592 q 282 579 323 592 q 210 543 242 567 l 109 612 q 215 687 149 661 q 360 714 280 714 q 565 646 492 714 q 637 452 637 577 l 637 0 l 506 0 m 334 -10 q 139 43 204 -10 q 75 208 75 97 q 134 365 75 313 q 312 416 193 416 l 512 416 l 522 305 l 313 305 q 232 281 259 305 q 205 208 205 257 q 241 128 205 154 q 349 102 277 102 q 467 119 427 102 q 506 172 506 136 l 520 73 q 475 26 502 45 q 413 -1 448 8 q 334 -10 378 -10 m 350 840 l 143 1067 l 243 1150 l 437 909 l 350 840 z "},"ā":{"ha":739,"x_min":75,"x_max":637,"o":"m 506 0 l 506 446 q 469 554 506 515 q 364 592 432 592 q 282 579 323 592 q 210 543 242 567 l 109 612 q 215 687 149 661 q 360 714 280 714 q 565 646 492 714 q 637 452 637 577 l 637 0 l 506 0 m 334 -10 q 139 43 204 -10 q 75 208 75 97 q 134 365 75 313 q 312 416 193 416 l 512 416 l 522 305 l 313 305 q 232 281 259 305 q 205 208 205 257 q 241 128 205 154 q 349 102 277 102 q 467 119 427 102 q 506 172 506 136 l 520 73 q 475 26 502 45 q 413 -1 448 8 q 334 -10 378 -10 m 119 985 l 614 985 l 614 848 l 119 848 l 119 985 z "},"ą":{"ha":739,"x_min":75,"x_max":637,"o":"m 506 0 l 506 446 q 469 554 506 515 q 364 592 432 592 q 282 579 323 592 q 210 543 242 567 l 109 612 q 215 687 149 661 q 360 714 280 714 q 565 646 492 714 q 637 452 637 577 l 637 0 l 506 0 m 334 -10 q 139 43 204 -10 q 75 208 75 97 q 134 365 75 313 q 312 416 193 416 l 512 416 l 522 305 l 313 305 q 232 281 259 305 q 205 208 205 257 q 241 128 205 154 q 349 102 277 102 q 467 119 427 102 q 506 172 506 136 l 520 73 q 475 26 502 45 q 413 -1 448 8 q 334 -10 378 -10 m 606 -285 q 471 -253 513 -285 q 429 -151 429 -221 q 476 -47 429 -93 q 604 32 522 -1 l 637 0 q 567 -59 589 -30 q 545 -125 545 -89 q 606 -172 545 -172 l 637 -172 l 637 -285 l 606 -285 z "},"å":{"ha":739,"x_min":75,"x_max":637,"o":"m 506 0 l 506 446 q 469 554 506 515 q 364 592 432 592 q 282 579 323 592 q 210 543 242 567 l 109 612 q 215 687 149 661 q 360 714 280 714 q 565 646 492 714 q 637 452 637 577 l 637 0 l 506 0 m 334 -10 q 139 43 204 -10 q 75 208 75 97 q 134 365 75 313 q 312 416 193 416 l 512 416 l 522 305 l 313 305 q 232 281 259 305 q 205 208 205 257 q 241 128 205 154 q 349 102 277 102 q 467 119 427 102 q 506 172 506 136 l 520 73 q 475 26 502 45 q 413 -1 448 8 q 334 -10 378 -10 m 366 842 q 243 882 286 842 q 200 998 200 923 q 243 1119 200 1077 q 366 1162 286 1162 q 489 1118 446 1162 q 532 998 532 1075 q 489 882 532 923 q 366 842 446 842 m 366 930 q 418 949 399 930 q 436 1001 436 968 q 418 1055 436 1035 q 366 1074 400 1074 q 315 1055 333 1074 q 296 1001 296 1036 q 315 949 296 968 q 366 930 333 930 z "},"ã":{"ha":739,"x_min":75,"x_max":637,"o":"m 506 0 l 506 446 q 469 554 506 515 q 364 592 432 592 q 282 579 323 592 q 210 543 242 567 l 109 612 q 215 687 149 661 q 360 714 280 714 q 565 646 492 714 q 637 452 637 577 l 637 0 l 506 0 m 334 -10 q 139 43 204 -10 q 75 208 75 97 q 134 365 75 313 q 312 416 193 416 l 512 416 l 522 305 l 313 305 q 232 281 259 305 q 205 208 205 257 q 241 128 205 154 q 349 102 277 102 q 467 119 427 102 q 506 172 506 136 l 520 73 q 475 26 502 45 q 413 -1 448 8 q 334 -10 378 -10 m 464 846 q 415 857 439 846 q 372 882 392 867 q 326 914 347 899 q 286 929 304 929 q 238 882 238 929 l 238 848 l 131 848 l 131 878 q 165 1005 131 963 q 269 1046 200 1046 q 325 1033 299 1046 q 372 1004 350 1020 q 412 976 394 988 q 447 963 431 963 q 494 1015 494 963 l 494 1042 l 602 1042 l 602 1019 q 567 889 602 932 q 464 846 533 846 z "},"æ":{"ha":1158,"x_min":75,"x_max":1077,"o":"m 513 329 l 513 446 q 474 554 513 515 q 364 592 435 592 q 283 579 323 592 q 212 543 244 567 l 109 612 q 215 687 149 661 q 360 714 280 714 q 525 654 467 714 q 583 486 583 595 l 583 329 l 513 329 m 313 -10 q 134 43 194 -10 q 75 208 75 97 q 134 362 75 311 q 312 413 193 413 l 559 413 l 569 305 l 313 305 q 232 281 259 305 q 205 208 205 257 q 236 133 205 157 q 328 109 267 109 q 432 139 393 109 q 491 216 472 170 q 509 311 509 262 l 581 311 l 581 143 q 474 27 541 65 q 313 -10 407 -10 m 810 -10 q 623 67 690 -10 q 556 288 556 145 l 556 415 q 620 636 556 557 q 798 714 684 714 q 1004 615 931 714 q 1077 339 1077 517 l 1077 305 l 595 305 l 595 413 l 945 413 l 945 413 q 901 545 939 498 q 798 592 863 592 q 672 539 717 592 q 627 389 627 486 l 627 299 q 675 158 627 208 q 810 109 723 109 q 898 127 854 109 q 976 176 941 144 l 976 176 l 1059 95 l 1059 95 q 941 17 1006 45 q 810 -10 876 -10 z "},"b":{"ha":755,"x_min":109,"x_max":667,"o":"m 424 -10 q 309 21 358 -10 q 237 111 260 53 l 247 258 q 263 180 247 212 q 310 132 279 149 q 385 115 341 115 q 491 156 454 115 q 529 274 529 198 l 529 427 q 491 547 529 504 q 385 589 454 589 q 310 573 341 589 q 263 526 279 557 q 247 450 247 494 l 233 585 q 316 681 264 647 q 431 714 368 714 q 606 639 544 714 q 667 427 667 564 l 667 274 q 604 64 667 139 q 424 -10 540 -10 m 109 0 l 109 986 l 247 986 l 247 0 l 109 0 z "},"ɓ":{"ha":755,"x_min":109,"x_max":667,"o":"m 109 0 l 109 806 q 152 944 109 895 q 273 993 195 993 l 364 993 l 364 861 l 287 861 q 257 847 268 861 q 247 808 247 833 l 247 0 l 109 0 m 424 -10 q 309 21 358 -10 q 237 111 260 53 l 247 258 q 263 180 247 212 q 310 132 279 149 q 385 115 341 115 q 491 156 454 115 q 529 274 529 198 l 529 427 q 491 547 529 504 q 385 589 454 589 q 310 573 341 589 q 263 526 279 557 q 247 450 247 494 l 233 585 q 316 681 264 647 q 431 714 368 714 q 606 639 544 714 q 667 427 667 564 l 667 274 q 604 64 667 139 q 424 -10 540 -10 z "},"c":{"ha":692,"x_min":88,"x_max":648,"o":"m 393 -10 q 168 70 248 -10 q 88 296 88 150 l 88 412 q 168 635 88 556 q 393 714 248 714 q 542 685 475 714 q 648 602 608 656 l 648 602 l 548 512 l 548 512 q 479 564 519 546 q 395 583 439 583 q 271 538 315 583 q 227 412 227 493 l 227 296 q 271 167 227 212 q 395 121 315 121 q 479 141 439 121 q 548 197 519 161 l 548 197 l 648 100 l 648 100 q 542 19 608 47 q 393 -10 475 -10 z "},"ć":{"ha":692,"x_min":88,"x_max":648,"o":"m 393 -10 q 168 70 248 -10 q 88 296 88 150 l 88 412 q 168 635 88 556 q 393 714 248 714 q 542 685 475 714 q 648 602 608 656 l 648 602 l 548 512 l 548 512 q 479 564 519 546 q 395 583 439 583 q 271 538 315 583 q 227 412 227 493 l 227 296 q 271 167 227 212 q 395 121 315 121 q 479 141 439 121 q 548 197 519 161 l 548 197 l 648 100 l 648 100 q 542 19 608 47 q 393 -10 475 -10 m 384 840 l 297 909 l 491 1150 l 591 1067 l 384 840 z "},"č":{"ha":692,"x_min":88,"x_max":648,"o":"m 393 -10 q 168 70 248 -10 q 88 296 88 150 l 88 412 q 168 635 88 556 q 393 714 248 714 q 542 685 475 714 q 648 602 608 656 l 648 602 l 548 512 l 548 512 q 479 564 519 546 q 395 583 439 583 q 271 538 315 583 q 227 412 227 493 l 227 296 q 271 167 227 212 q 395 121 315 121 q 479 141 439 121 q 548 197 519 161 l 548 197 l 648 100 l 648 100 q 542 19 608 47 q 393 -10 475 -10 m 372 840 l 159 1046 l 237 1117 l 372 988 l 508 1117 l 585 1046 l 372 840 z "},"ç":{"ha":692,"x_min":88,"x_max":648,"o":"m 393 -10 q 168 70 248 -10 q 88 296 88 150 l 88 412 q 168 635 88 556 q 393 714 248 714 q 542 685 475 714 q 648 602 608 656 l 648 602 l 548 512 l 548 512 q 479 564 519 546 q 395 583 439 583 q 271 538 315 583 q 227 412 227 493 l 227 296 q 271 167 227 212 q 395 121 315 121 q 479 141 439 121 q 548 197 519 161 l 548 197 l 648 100 l 648 100 q 542 19 608 47 q 393 -10 475 -10 m 357 -286 q 245 -274 290 -286 l 274 -179 q 338 -189 307 -189 q 412 -154 412 -189 q 388 -129 412 -137 q 313 -121 363 -121 l 372 -42 q 492 -72 452 -42 q 532 -163 532 -102 q 488 -256 532 -225 q 357 -286 445 -286 m 302 -121 l 302 62 l 415 62 l 415 -121 l 302 -121 z "},"ċ":{"ha":692,"x_min":88,"x_max":648,"o":"m 393 -10 q 168 70 248 -10 q 88 296 88 150 l 88 412 q 168 635 88 556 q 393 714 248 714 q 542 685 475 714 q 648 602 608 656 l 648 602 l 548 512 l 548 512 q 479 564 519 546 q 395 583 439 583 q 271 538 315 583 q 227 412 227 493 l 227 296 q 271 167 227 212 q 395 121 315 121 q 479 141 439 121 q 548 197 519 161 l 548 197 l 648 100 l 648 100 q 542 19 608 47 q 393 -10 475 -10 m 303 848 l 303 987 l 441 987 l 441 848 l 303 848 z "},"d":{"ha":749,"x_min":88,"x_max":647,"o":"m 509 0 l 509 986 l 647 986 l 647 0 l 509 0 m 332 -12 q 152 63 215 -12 q 88 274 88 138 l 88 429 q 150 641 88 566 q 325 716 212 716 q 439 684 387 716 q 523 592 491 651 l 509 448 q 492 525 509 493 q 445 573 476 557 q 370 590 414 590 q 264 547 302 590 q 227 427 227 505 l 227 274 q 264 156 227 197 q 370 114 302 114 q 445 131 414 114 q 492 181 476 149 q 509 259 509 214 l 518 111 q 453 25 499 63 q 332 -12 406 -12 z "},"ð":{"ha":747,"x_min":88,"x_max":646,"o":"m 646 414 l 532 467 q 495 646 534 551 q 377 844 456 740 l 269 986 l 424 986 l 503 875 q 610 660 574 774 q 646 414 646 545 m 549 530 l 646 414 l 646 292 q 572 70 646 150 q 366 -10 499 -10 q 161 69 234 -10 q 88 292 88 148 l 88 416 q 150 635 88 555 q 323 714 212 714 q 454 667 402 714 q 549 530 505 619 m 514 292 l 514 414 q 366 589 514 589 q 220 416 220 589 l 220 292 q 366 115 220 115 q 478 159 442 115 q 514 292 514 204 m 166 901 l 613 983 l 633 879 l 186 796 l 166 901 z "},"ď":{"ha":891,"x_min":88,"x_max":872,"o":"m 509 0 l 509 986 l 647 986 l 647 0 l 509 0 m 332 -12 q 152 63 215 -12 q 88 274 88 138 l 88 429 q 150 641 88 566 q 325 716 212 716 q 439 684 387 716 q 523 592 491 651 l 509 448 q 492 525 509 493 q 445 573 476 557 q 370 590 414 590 q 264 547 302 590 q 227 427 227 505 l 227 274 q 264 156 227 197 q 370 114 302 114 q 445 131 414 114 q 492 181 476 149 q 509 259 509 214 l 518 111 q 453 25 499 63 q 332 -12 406 -12 m 754 714 l 754 996 l 872 996 l 872 824 l 754 714 z "},"đ":{"ha":749,"x_min":88,"x_max":728,"o":"m 274 781 l 274 913 l 728 913 l 728 781 l 274 781 m 509 0 l 509 986 l 647 986 l 647 0 l 509 0 m 332 -12 q 152 63 215 -12 q 88 274 88 138 l 88 429 q 150 641 88 566 q 325 716 212 716 q 439 684 387 716 q 523 592 491 651 l 509 448 q 492 525 509 493 q 445 573 476 557 q 370 590 414 590 q 264 547 302 590 q 227 427 227 505 l 227 274 q 264 156 227 197 q 370 114 302 114 q 445 131 414 114 q 492 181 476 149 q 509 259 509 214 l 518 111 q 453 25 499 63 q 332 -12 406 -12 z "},"ɗ":{"ha":758,"x_min":88,"x_max":764,"o":"m 509 0 l 509 806 q 552 944 509 895 q 673 993 595 993 l 764 993 l 764 861 l 687 861 q 657 847 668 861 q 647 808 647 833 l 647 0 l 509 0 m 332 -12 q 152 63 215 -12 q 88 274 88 138 l 88 429 q 150 641 88 566 q 325 716 212 716 q 439 684 387 716 q 523 592 491 651 l 509 448 q 492 525 509 493 q 445 573 476 557 q 370 590 414 590 q 264 547 302 590 q 227 427 227 505 l 227 274 q 264 156 227 197 q 370 114 302 114 q 445 131 414 114 q 492 181 476 149 q 509 259 509 214 l 518 111 q 453 25 499 63 q 332 -12 406 -12 z "},"ɖ":{"ha":758,"x_min":88,"x_max":764,"o":"m 673 -286 q 552 -237 595 -286 q 509 -100 509 -189 l 509 161 l 647 161 l 647 -101 q 657 -140 647 -126 q 687 -155 668 -155 l 764 -155 l 764 -286 l 673 -286 m 509 0 l 509 986 l 647 986 l 647 0 l 509 0 m 332 -12 q 152 63 215 -12 q 88 274 88 138 l 88 429 q 150 641 88 566 q 325 716 212 716 q 439 684 387 716 q 523 592 491 651 l 509 448 q 492 525 509 493 q 445 573 476 557 q 370 590 414 590 q 264 547 302 590 q 227 427 227 505 l 227 274 q 264 156 227 197 q 370 114 302 114 q 445 131 414 114 q 492 181 476 149 q 509 259 509 214 l 518 111 q 453 25 499 63 q 332 -12 406 -12 z "},"e":{"ha":745,"x_min":88,"x_max":663,"o":"m 397 -10 q 169 72 250 -10 q 88 305 88 154 l 88 385 q 166 628 88 542 q 385 714 243 714 q 590 616 517 714 q 663 342 663 519 l 663 296 l 189 296 l 189 408 l 532 408 l 532 408 q 487 541 526 493 q 385 589 449 589 q 263 538 307 589 q 220 392 220 486 l 220 302 q 266 168 220 215 q 397 121 313 121 q 480 138 439 121 q 554 186 522 155 l 554 186 l 645 95 l 645 95 q 528 17 593 45 q 397 -10 463 -10 z "},"é":{"ha":745,"x_min":88,"x_max":663,"o":"m 397 -10 q 169 72 250 -10 q 88 305 88 154 l 88 385 q 166 628 88 542 q 385 714 243 714 q 590 616 517 714 q 663 342 663 519 l 663 296 l 189 296 l 189 408 l 532 408 l 532 408 q 487 541 526 493 q 385 589 449 589 q 263 538 307 589 q 220 392 220 486 l 220 302 q 266 168 220 215 q 397 121 313 121 q 480 138 439 121 q 554 186 522 155 l 554 186 l 645 95 l 645 95 q 528 17 593 45 q 397 -10 463 -10 m 388 840 l 301 909 l 495 1150 l 595 1067 l 388 840 z "},"ě":{"ha":745,"x_min":88,"x_max":663,"o":"m 397 -10 q 169 72 250 -10 q 88 305 88 154 l 88 385 q 166 628 88 542 q 385 714 243 714 q 590 616 517 714 q 663 342 663 519 l 663 296 l 189 296 l 189 408 l 532 408 l 532 408 q 487 541 526 493 q 385 589 449 589 q 263 538 307 589 q 220 392 220 486 l 220 302 q 266 168 220 215 q 397 121 313 121 q 480 138 439 121 q 554 186 522 155 l 554 186 l 645 95 l 645 95 q 528 17 593 45 q 397 -10 463 -10 m 376 840 l 163 1046 l 241 1117 l 376 988 l 512 1117 l 589 1046 l 376 840 z "},"ê":{"ha":745,"x_min":88,"x_max":663,"o":"m 397 -10 q 169 72 250 -10 q 88 305 88 154 l 88 385 q 166 628 88 542 q 385 714 243 714 q 590 616 517 714 q 663 342 663 519 l 663 296 l 189 296 l 189 408 l 532 408 l 532 408 q 487 541 526 493 q 385 589 449 589 q 263 538 307 589 q 220 392 220 486 l 220 302 q 266 168 220 215 q 397 121 313 121 q 480 138 439 121 q 554 186 522 155 l 554 186 l 645 95 l 645 95 q 528 17 593 45 q 397 -10 463 -10 m 376 1117 l 589 911 l 512 840 l 376 968 l 241 840 l 163 911 l 376 1117 z "},"ë":{"ha":745,"x_min":88,"x_max":663,"o":"m 397 -10 q 169 72 250 -10 q 88 305 88 154 l 88 385 q 166 628 88 542 q 385 714 243 714 q 590 616 517 714 q 663 342 663 519 l 663 296 l 189 296 l 189 408 l 532 408 l 532 408 q 487 541 526 493 q 385 589 449 589 q 263 538 307 589 q 220 392 220 486 l 220 302 q 266 168 220 215 q 397 121 313 121 q 480 138 439 121 q 554 186 522 155 l 554 186 l 645 95 l 645 95 q 528 17 593 45 q 397 -10 463 -10 m 450 848 l 450 986 l 588 986 l 588 848 l 450 848 m 165 848 l 165 986 l 303 986 l 303 848 l 165 848 z "},"ė":{"ha":745,"x_min":88,"x_max":663,"o":"m 397 -10 q 169 72 250 -10 q 88 305 88 154 l 88 385 q 166 628 88 542 q 385 714 243 714 q 590 616 517 714 q 663 342 663 519 l 663 296 l 189 296 l 189 408 l 532 408 l 532 408 q 487 541 526 493 q 385 589 449 589 q 263 538 307 589 q 220 392 220 486 l 220 302 q 266 168 220 215 q 397 121 313 121 q 480 138 439 121 q 554 186 522 155 l 554 186 l 645 95 l 645 95 q 528 17 593 45 q 397 -10 463 -10 m 307 848 l 307 987 l 446 987 l 446 848 l 307 848 z "},"ẹ":{"ha":745,"x_min":88,"x_max":663,"o":"m 397 -10 q 169 72 250 -10 q 88 305 88 154 l 88 385 q 166 628 88 542 q 385 714 243 714 q 590 616 517 714 q 663 342 663 519 l 663 296 l 189 296 l 189 408 l 532 408 l 532 408 q 487 541 526 493 q 385 589 449 589 q 263 538 307 589 q 220 392 220 486 l 220 302 q 266 168 220 215 q 397 121 313 121 q 480 138 439 121 q 554 186 522 155 l 554 186 l 645 95 l 645 95 q 528 17 593 45 q 397 -10 463 -10 m 307 -288 l 307 -149 l 446 -149 l 446 -288 l 307 -288 z "},"è":{"ha":745,"x_min":88,"x_max":663,"o":"m 397 -10 q 169 72 250 -10 q 88 305 88 154 l 88 385 q 166 628 88 542 q 385 714 243 714 q 590 616 517 714 q 663 342 663 519 l 663 296 l 189 296 l 189 408 l 532 408 l 532 408 q 487 541 526 493 q 385 589 449 589 q 263 538 307 589 q 220 392 220 486 l 220 302 q 266 168 220 215 q 397 121 313 121 q 480 138 439 121 q 554 186 522 155 l 554 186 l 645 95 l 645 95 q 528 17 593 45 q 397 -10 463 -10 m 360 840 l 153 1067 l 253 1150 l 447 909 l 360 840 z "},"ē":{"ha":745,"x_min":88,"x_max":663,"o":"m 397 -10 q 169 72 250 -10 q 88 305 88 154 l 88 385 q 166 628 88 542 q 385 714 243 714 q 590 616 517 714 q 663 342 663 519 l 663 296 l 189 296 l 189 408 l 532 408 l 532 408 q 487 541 526 493 q 385 589 449 589 q 263 538 307 589 q 220 392 220 486 l 220 302 q 266 168 220 215 q 397 121 313 121 q 480 138 439 121 q 554 186 522 155 l 554 186 l 645 95 l 645 95 q 528 17 593 45 q 397 -10 463 -10 m 129 985 l 624 985 l 624 848 l 129 848 l 129 985 z "},"ę":{"ha":745,"x_min":88,"x_max":663,"o":"m 618 -278 q 465 -238 515 -278 q 414 -117 414 -197 q 463 11 414 -50 q 610 127 512 71 l 644 95 q 558 1 587 47 q 530 -91 530 -45 q 552 -147 530 -128 q 618 -165 574 -165 l 642 -165 l 642 -278 l 618 -278 m 397 -10 q 169 72 250 -10 q 88 305 88 154 l 88 385 q 166 628 88 542 q 385 714 243 714 q 590 616 517 714 q 663 342 663 519 l 663 296 l 189 296 l 189 408 l 532 408 l 532 408 q 487 541 526 493 q 385 589 449 589 q 263 538 307 589 q 220 392 220 486 l 220 302 q 266 168 220 215 q 397 121 313 121 q 480 138 439 121 q 554 186 522 155 l 554 186 l 645 95 l 645 95 q 528 17 593 45 q 397 -10 463 -10 z "},"ɛ":{"ha":653,"x_min":81,"x_max":609,"o":"m 357 -10 q 153 45 225 -10 q 81 201 81 100 l 81 201 q 114 303 81 254 q 203 360 146 351 q 125 428 153 381 q 98 531 98 475 l 98 532 q 166 667 98 620 q 358 714 234 714 q 510 686 448 714 q 609 600 573 657 l 609 600 l 509 518 l 509 518 q 358 588 447 588 q 268 568 300 588 q 236 512 236 549 l 236 511 q 255 448 236 471 q 310 426 275 426 l 427 426 l 427 291 l 310 291 q 243 271 267 291 q 220 216 220 252 l 220 215 q 256 142 220 168 q 357 116 292 116 q 434 135 393 116 q 515 194 476 155 l 515 194 l 609 101 l 609 101 q 503 18 566 45 q 357 -10 440 -10 z "},"ǝ":{"ha":745,"x_min":81,"x_max":656,"o":"m 360 -10 q 154 86 227 -10 q 81 355 81 182 l 81 401 l 556 401 l 556 290 l 213 290 l 213 290 q 257 161 219 208 q 360 115 296 115 q 482 164 439 115 q 525 305 525 214 l 525 395 q 479 534 525 486 q 348 583 433 583 q 264 566 306 583 q 191 518 223 549 l 191 518 l 100 609 l 100 609 q 217 687 152 659 q 348 714 282 714 q 576 630 495 714 q 656 392 656 547 l 656 313 q 579 74 656 159 q 360 -10 501 -10 z "},"ə":{"ha":745,"x_min":81,"x_max":656,"o":"m 360 -10 q 154 86 227 -10 q 81 355 81 182 l 81 401 l 556 401 l 556 290 l 213 290 l 213 290 q 257 161 219 208 q 360 115 296 115 q 482 164 439 115 q 525 305 525 214 l 525 395 q 479 534 525 486 q 348 583 433 583 q 264 566 306 583 q 191 518 223 549 l 191 518 l 100 609 l 100 609 q 217 687 152 659 q 348 714 282 714 q 576 630 495 714 q 656 392 656 547 l 656 313 q 579 74 656 159 q 360 -10 501 -10 z "},"f":{"ha":440,"x_min":54,"x_max":406,"o":"m 129 0 l 129 800 q 172 939 129 892 q 304 986 214 986 l 406 986 l 406 854 l 307 854 q 277 839 286 854 q 267 801 267 823 l 267 0 l 129 0 m 54 586 l 54 704 l 406 704 l 406 586 l 54 586 z "},"g":{"ha":749,"x_min":88,"x_max":647,"o":"m 345 -286 q 202 -257 265 -286 q 105 -174 140 -227 l 105 -174 l 199 -89 l 199 -89 q 263 -146 226 -126 q 342 -167 301 -167 q 465 -123 422 -167 q 509 1 509 -79 l 509 704 l 647 704 l 647 21 q 568 -206 647 -125 q 345 -286 489 -286 m 332 -12 q 152 63 215 -12 q 88 274 88 138 l 88 429 q 150 641 88 566 q 325 716 212 716 q 439 684 387 716 q 523 592 491 651 l 509 448 q 492 525 509 493 q 445 573 476 557 q 370 590 414 590 q 264 547 302 590 q 227 427 227 505 l 227 274 q 264 156 227 197 q 370 114 302 114 q 445 131 414 114 q 492 181 476 149 q 509 259 509 214 l 518 111 q 453 25 499 63 q 332 -12 406 -12 z "},"ğ":{"ha":749,"x_min":88,"x_max":647,"o":"m 345 -286 q 202 -257 265 -286 q 105 -174 140 -227 l 105 -174 l 199 -89 l 199 -89 q 263 -146 226 -126 q 342 -167 301 -167 q 465 -123 422 -167 q 509 1 509 -79 l 509 704 l 647 704 l 647 21 q 568 -206 647 -125 q 345 -286 489 -286 m 332 -12 q 152 63 215 -12 q 88 274 88 138 l 88 429 q 150 641 88 566 q 325 716 212 716 q 439 684 387 716 q 523 592 491 651 l 509 448 q 492 525 509 493 q 445 573 476 557 q 370 590 414 590 q 264 547 302 590 q 227 427 227 505 l 227 274 q 264 156 227 197 q 370 114 302 114 q 445 131 414 114 q 492 181 476 149 q 509 259 509 214 l 518 111 q 453 25 499 63 q 332 -12 406 -12 m 369 838 q 217 898 268 838 q 167 1080 167 959 l 167 1080 l 278 1080 l 278 1080 q 369 945 278 945 l 381 945 q 472 1080 472 945 l 472 1080 l 583 1080 l 583 1080 q 533 898 583 959 q 381 838 482 838 l 369 838 z "},"ģ":{"ha":749,"x_min":88,"x_max":647,"o":"m 290 848 l 290 1000 l 435 1151 l 435 848 l 290 848 m 345 -286 q 202 -257 265 -286 q 105 -174 140 -227 l 105 -174 l 199 -89 l 199 -89 q 263 -146 226 -126 q 342 -167 301 -167 q 465 -123 422 -167 q 509 1 509 -79 l 509 704 l 647 704 l 647 21 q 568 -206 647 -125 q 345 -286 489 -286 m 332 -12 q 152 63 215 -12 q 88 274 88 138 l 88 429 q 150 641 88 566 q 325 716 212 716 q 439 684 387 716 q 523 592 491 651 l 509 448 q 492 525 509 493 q 445 573 476 557 q 370 590 414 590 q 264 547 302 590 q 227 427 227 505 l 227 274 q 264 156 227 197 q 370 114 302 114 q 445 131 414 114 q 492 181 476 149 q 509 259 509 214 l 518 111 q 453 25 499 63 q 332 -12 406 -12 z "},"ġ":{"ha":749,"x_min":88,"x_max":647,"o":"m 345 -286 q 202 -257 265 -286 q 105 -174 140 -227 l 105 -174 l 199 -89 l 199 -89 q 263 -146 226 -126 q 342 -167 301 -167 q 465 -123 422 -167 q 509 1 509 -79 l 509 704 l 647 704 l 647 21 q 568 -206 647 -125 q 345 -286 489 -286 m 332 -12 q 152 63 215 -12 q 88 274 88 138 l 88 429 q 150 641 88 566 q 325 716 212 716 q 439 684 387 716 q 523 592 491 651 l 509 448 q 492 525 509 493 q 445 573 476 557 q 370 590 414 590 q 264 547 302 590 q 227 427 227 505 l 227 274 q 264 156 227 197 q 370 114 302 114 q 445 131 414 114 q 492 181 476 149 q 509 259 509 214 l 518 111 q 453 25 499 63 q 332 -12 406 -12 m 306 848 l 306 987 l 444 987 l 444 848 l 306 848 z "},"h":{"ha":776,"x_min":109,"x_max":674,"o":"m 109 0 l 109 986 l 247 986 l 247 0 l 109 0 m 536 0 l 536 427 q 497 542 536 501 q 389 583 459 583 q 284 547 321 583 q 247 448 247 512 l 233 583 q 318 680 265 646 q 434 714 370 714 q 611 639 549 714 q 674 427 674 564 l 674 0 l 536 0 z "},"ħ":{"ha":791,"x_min":34,"x_max":690,"o":"m 34 926 l 488 926 l 488 795 l 34 795 l 34 926 m 124 0 l 124 986 l 262 986 l 262 0 l 124 0 m 551 0 l 551 427 q 513 542 551 501 q 404 583 475 583 q 299 547 336 583 q 262 448 262 512 l 248 583 q 333 680 281 646 q 450 714 386 714 q 627 639 564 714 q 690 427 690 564 l 690 0 l 551 0 z "},"i":{"ha":349,"x_min":109,"x_max":247,"o":"m 109 848 l 109 986 l 247 986 l 247 848 l 109 848 m 109 0 l 109 704 l 247 704 l 247 0 l 109 0 z "},"ı":{"ha":349,"x_min":109,"x_max":247,"o":"m 109 0 l 109 704 l 247 704 l 247 0 l 109 0 z "},"í":{"ha":349,"x_min":102,"x_max":396,"o":"m 109 0 l 109 704 l 247 704 l 247 0 l 109 0 m 189 840 l 102 909 l 296 1150 l 396 1067 l 189 840 z "},"î":{"ha":349,"x_min":-35,"x_max":391,"o":"m 109 0 l 109 704 l 247 704 l 247 0 l 109 0 m 178 1117 l 391 911 l 313 840 l 178 968 l 42 840 l -35 911 l 178 1117 z "},"ï":{"ha":349,"x_min":-34,"x_max":389,"o":"m 109 0 l 109 704 l 247 704 l 247 0 l 109 0 m 251 848 l 251 986 l 389 986 l 389 848 l 251 848 m -34 848 l -34 986 l 104 986 l 104 848 l -34 848 z "},"ị":{"ha":349,"x_min":109,"x_max":247,"o":"m 109 848 l 109 986 l 247 986 l 247 848 l 109 848 m 109 0 l 109 704 l 247 704 l 247 0 l 109 0 m 109 -288 l 109 -149 l 247 -149 l 247 -288 l 109 -288 z "},"ì":{"ha":349,"x_min":-45,"x_max":248,"o":"m 109 0 l 109 704 l 247 704 l 247 0 l 109 0 m 161 840 l -45 1067 l 54 1150 l 248 909 l 161 840 z "},"ī":{"ha":349,"x_min":-70,"x_max":425,"o":"m 109 0 l 109 704 l 247 704 l 247 0 l 109 0 m -70 985 l 425 985 l 425 848 l -70 848 l -70 985 z "},"į":{"ha":349,"x_min":39,"x_max":247,"o":"m 109 0 l 109 704 l 247 704 l 247 0 l 109 0 m 109 848 l 109 987 l 247 987 l 247 848 l 109 848 m 216 -285 q 81 -253 123 -285 q 39 -151 39 -221 q 85 -47 39 -93 q 213 32 132 -1 l 247 0 q 177 -59 199 -30 q 155 -125 155 -89 q 216 -172 155 -172 l 247 -172 l 247 -285 l 216 -285 z "},"j":{"ha":372,"x_min":14,"x_max":271,"o":"m 14 -286 l 14 -155 l 91 -155 q 121 -140 111 -155 q 131 -101 131 -126 l 131 704 l 269 704 l 269 -100 q 226 -237 269 -189 q 104 -286 183 -286 l 14 -286 m 130 848 l 130 986 l 271 986 l 271 848 l 130 848 z "},"k":{"ha":734,"x_min":109,"x_max":728,"o":"m 159 103 l 168 267 l 530 704 l 693 704 l 159 103 m 109 0 l 109 986 l 247 986 l 247 0 l 109 0 m 577 0 l 332 406 l 420 498 l 728 0 l 577 0 z "},"ķ":{"ha":734,"x_min":109,"x_max":728,"o":"m 159 103 l 168 267 l 530 704 l 693 704 l 159 103 m 109 0 l 109 986 l 247 986 l 247 0 l 109 0 m 577 0 l 332 406 l 420 498 l 728 0 l 577 0 m 298 -376 l 298 -100 l 437 -100 l 437 -239 l 298 -376 z "},"ƙ":{"ha":734,"x_min":109,"x_max":728,"o":"m 159 103 l 168 267 l 530 704 l 693 704 l 159 103 m 577 0 l 332 406 l 420 498 l 728 0 l 577 0 m 109 0 l 109 806 q 152 944 109 895 q 273 993 195 993 l 364 993 l 364 861 l 287 861 q 257 847 268 861 q 247 808 247 833 l 247 0 l 109 0 z "},"l":{"ha":402,"x_min":109,"x_max":355,"o":"m 247 986 l 247 182 q 258 142 247 157 q 290 128 269 128 l 355 128 l 355 -3 l 273 -3 q 152 45 195 -3 q 109 183 109 94 l 109 986 l 247 986 z "},"ĺ":{"ha":402,"x_min":109,"x_max":391,"o":"m 247 986 l 247 182 q 258 142 247 157 q 290 128 269 128 l 355 128 l 355 -3 l 273 -3 q 152 45 195 -3 q 109 183 109 94 l 109 986 l 247 986 m 191 1054 l 114 1134 l 301 1300 l 391 1207 l 191 1054 z "},"ľ":{"ha":511,"x_min":109,"x_max":472,"o":"m 247 986 l 247 182 q 258 142 247 157 q 290 128 269 128 l 355 128 l 355 -3 l 273 -3 q 152 45 195 -3 q 109 183 109 94 l 109 986 l 247 986 m 354 713 l 354 996 l 472 996 l 472 823 l 354 713 z "},"ļ":{"ha":402,"x_min":109,"x_max":355,"o":"m 247 986 l 247 182 q 258 142 247 157 q 290 128 269 128 l 355 128 l 355 -3 l 273 -3 q 152 45 195 -3 q 109 183 109 94 l 109 986 l 247 986 m 130 -376 l 130 -100 l 269 -100 l 269 -239 l 130 -376 z "},"ł":{"ha":402,"x_min":20,"x_max":355,"o":"m 20 353 l 20 486 l 355 652 l 355 519 l 20 353 m 247 986 l 247 182 q 258 142 247 157 q 290 128 269 128 l 355 128 l 355 -3 l 273 -3 q 152 45 195 -3 q 109 183 109 94 l 109 986 l 247 986 z "},"m":{"ha":1190,"x_min":109,"x_max":1088,"o":"m 949 0 l 949 427 q 911 542 949 501 q 802 583 873 583 q 703 543 738 583 q 667 432 667 504 l 640 568 q 728 676 673 638 q 848 714 782 714 q 1025 639 962 714 q 1088 427 1088 564 l 1088 0 l 949 0 m 109 0 l 109 704 l 247 704 l 247 0 l 109 0 m 529 0 l 529 427 q 492 542 529 501 q 389 583 456 583 q 284 547 321 583 q 247 446 247 511 l 233 581 q 318 680 265 645 q 434 714 370 714 q 606 639 545 714 q 667 427 667 564 l 667 0 l 529 0 z "},"n":{"ha":776,"x_min":109,"x_max":674,"o":"m 109 0 l 109 704 l 247 704 l 247 0 l 109 0 m 536 0 l 536 427 q 497 542 536 501 q 389 583 459 583 q 284 547 321 583 q 247 446 247 511 l 233 581 q 318 680 265 645 q 434 714 370 714 q 611 639 549 714 q 674 427 674 564 l 674 0 l 536 0 z "},"ń":{"ha":776,"x_min":109,"x_max":674,"o":"m 109 0 l 109 704 l 247 704 l 247 0 l 109 0 m 536 0 l 536 427 q 497 542 536 501 q 389 583 459 583 q 284 547 321 583 q 247 446 247 511 l 233 581 q 318 680 265 645 q 434 714 370 714 q 611 639 549 714 q 674 427 674 564 l 674 0 l 536 0 m 399 840 l 313 909 l 507 1150 l 606 1067 l 399 840 z "},"ň":{"ha":776,"x_min":109,"x_max":674,"o":"m 109 0 l 109 704 l 247 704 l 247 0 l 109 0 m 536 0 l 536 427 q 497 542 536 501 q 389 583 459 583 q 284 547 321 583 q 247 446 247 511 l 233 581 q 318 680 265 645 q 434 714 370 714 q 611 639 549 714 q 674 427 674 564 l 674 0 l 536 0 m 388 840 l 175 1046 l 252 1117 l 388 988 l 524 1117 l 601 1046 l 388 840 z "},"ņ":{"ha":776,"x_min":109,"x_max":674,"o":"m 109 0 l 109 704 l 247 704 l 247 0 l 109 0 m 536 0 l 536 427 q 497 542 536 501 q 389 583 459 583 q 284 547 321 583 q 247 446 247 511 l 233 581 q 318 680 265 645 q 434 714 370 714 q 611 639 549 714 q 674 427 674 564 l 674 0 l 536 0 m 319 -376 l 319 -100 l 457 -100 l 457 -239 l 319 -376 z "},"ŋ":{"ha":776,"x_min":109,"x_max":674,"o":"m 418 -286 l 418 -155 l 496 -155 q 526 -140 515 -155 q 536 -101 536 -126 l 536 94 l 674 94 l 674 -100 q 631 -237 674 -189 q 509 -286 588 -286 l 418 -286 m 109 0 l 109 704 l 247 704 l 247 0 l 109 0 m 536 0 l 536 427 q 497 542 536 501 q 389 583 459 583 q 284 547 321 583 q 247 446 247 511 l 233 581 q 318 680 265 645 q 434 714 370 714 q 611 639 549 714 q 674 427 674 564 l 674 0 l 536 0 z "},"ñ":{"ha":776,"x_min":109,"x_max":674,"o":"m 109 0 l 109 704 l 247 704 l 247 0 l 109 0 m 536 0 l 536 427 q 497 542 536 501 q 389 583 459 583 q 284 547 321 583 q 247 446 247 511 l 233 581 q 318 680 265 645 q 434 714 370 714 q 611 639 549 714 q 674 427 674 564 l 674 0 l 536 0 m 486 846 q 437 857 460 846 q 393 882 414 867 q 347 914 369 899 q 307 929 326 929 q 260 882 260 929 l 260 848 l 153 848 l 153 878 q 187 1005 153 963 q 291 1046 222 1046 q 346 1033 321 1046 q 394 1004 372 1020 q 434 976 416 988 q 469 963 452 963 q 516 1015 516 963 l 516 1042 l 623 1042 l 623 1019 q 589 889 623 932 q 486 846 555 846 z "},"o":{"ha":757,"x_min":88,"x_max":669,"o":"m 378 -10 q 164 70 240 -10 q 88 296 88 151 l 88 411 q 164 635 88 555 q 378 714 240 714 q 593 635 517 714 q 669 411 669 555 l 669 294 q 593 70 669 149 q 378 -10 517 -10 m 378 121 q 491 167 451 121 q 530 294 530 212 l 530 411 q 491 538 530 493 q 378 583 451 583 q 267 538 307 583 q 227 411 227 493 l 227 294 q 267 167 227 212 q 378 121 307 121 z "},"ó":{"ha":757,"x_min":88,"x_max":669,"o":"m 378 -10 q 164 70 240 -10 q 88 296 88 151 l 88 411 q 164 635 88 555 q 378 714 240 714 q 593 635 517 714 q 669 411 669 555 l 669 294 q 593 70 669 149 q 378 -10 517 -10 m 378 121 q 491 167 451 121 q 530 294 530 212 l 530 411 q 491 538 530 493 q 378 583 451 583 q 267 538 307 583 q 227 411 227 493 l 227 294 q 267 167 227 212 q 378 121 307 121 m 391 840 l 304 909 l 498 1150 l 597 1067 l 391 840 z "},"ô":{"ha":757,"x_min":88,"x_max":669,"o":"m 378 -10 q 164 70 240 -10 q 88 296 88 151 l 88 411 q 164 635 88 555 q 378 714 240 714 q 593 635 517 714 q 669 411 669 555 l 669 294 q 593 70 669 149 q 378 -10 517 -10 m 378 121 q 491 167 451 121 q 530 294 530 212 l 530 411 q 491 538 530 493 q 378 583 451 583 q 267 538 307 583 q 227 411 227 493 l 227 294 q 267 167 227 212 q 378 121 307 121 m 379 1117 l 592 911 l 515 840 l 379 968 l 243 840 l 166 911 l 379 1117 z "},"ö":{"ha":757,"x_min":88,"x_max":669,"o":"m 378 -10 q 164 70 240 -10 q 88 296 88 151 l 88 411 q 164 635 88 555 q 378 714 240 714 q 593 635 517 714 q 669 411 669 555 l 669 294 q 593 70 669 149 q 378 -10 517 -10 m 378 121 q 491 167 451 121 q 530 294 530 212 l 530 411 q 491 538 530 493 q 378 583 451 583 q 267 538 307 583 q 227 411 227 493 l 227 294 q 267 167 227 212 q 378 121 307 121 m 452 848 l 452 986 l 591 986 l 591 848 l 452 848 m 168 848 l 168 986 l 306 986 l 306 848 l 168 848 z "},"ọ":{"ha":757,"x_min":88,"x_max":669,"o":"m 378 -10 q 164 70 240 -10 q 88 296 88 151 l 88 411 q 164 635 88 555 q 378 714 240 714 q 593 635 517 714 q 669 411 669 555 l 669 294 q 593 70 669 149 q 378 -10 517 -10 m 378 121 q 491 167 451 121 q 530 294 530 212 l 530 411 q 491 538 530 493 q 378 583 451 583 q 267 538 307 583 q 227 411 227 493 l 227 294 q 267 167 227 212 q 378 121 307 121 m 310 -288 l 310 -149 l 448 -149 l 448 -288 l 310 -288 z "},"ò":{"ha":757,"x_min":88,"x_max":669,"o":"m 378 -10 q 164 70 240 -10 q 88 296 88 151 l 88 411 q 164 635 88 555 q 378 714 240 714 q 593 635 517 714 q 669 411 669 555 l 669 294 q 593 70 669 149 q 378 -10 517 -10 m 378 121 q 491 167 451 121 q 530 294 530 212 l 530 411 q 491 538 530 493 q 378 583 451 583 q 267 538 307 583 q 227 411 227 493 l 227 294 q 267 167 227 212 q 378 121 307 121 m 363 840 l 156 1067 l 256 1150 l 450 909 l 363 840 z "},"ơ":{"ha":762,"x_min":88,"x_max":769,"o":"m 445 606 l 445 704 l 547 704 q 611 729 589 704 q 634 798 634 753 l 634 848 l 769 848 l 769 785 q 717 653 769 700 q 569 606 665 606 l 445 606 m 378 -10 q 164 70 240 -10 q 88 296 88 151 l 88 411 q 164 635 88 555 q 378 714 240 714 q 593 635 517 714 q 669 411 669 555 l 669 294 q 593 70 669 149 q 378 -10 517 -10 m 378 121 q 491 167 451 121 q 530 294 530 212 l 530 411 q 491 538 530 493 q 378 583 451 583 q 267 538 307 583 q 227 411 227 493 l 227 294 q 267 167 227 212 q 378 121 307 121 z "},"ő":{"ha":757,"x_min":88,"x_max":673,"o":"m 378 -10 q 164 70 240 -10 q 88 296 88 151 l 88 411 q 164 635 88 555 q 378 714 240 714 q 593 635 517 714 q 669 411 669 555 l 669 294 q 593 70 669 149 q 378 -10 517 -10 m 378 121 q 491 167 451 121 q 530 294 530 212 l 530 411 q 491 538 530 493 q 378 583 451 583 q 267 538 307 583 q 227 411 227 493 l 227 294 q 267 167 227 212 q 378 121 307 121 m 534 836 l 431 896 l 557 1137 l 673 1064 l 534 836 m 263 836 l 159 896 l 286 1137 l 402 1064 l 263 836 z "},"ō":{"ha":757,"x_min":88,"x_max":669,"o":"m 378 -10 q 164 70 240 -10 q 88 296 88 151 l 88 411 q 164 635 88 555 q 378 714 240 714 q 593 635 517 714 q 669 411 669 555 l 669 294 q 593 70 669 149 q 378 -10 517 -10 m 378 121 q 491 167 451 121 q 530 294 530 212 l 530 411 q 491 538 530 493 q 378 583 451 583 q 267 538 307 583 q 227 411 227 493 l 227 294 q 267 167 227 212 q 378 121 307 121 m 132 985 l 627 985 l 627 848 l 132 848 l 132 985 z "},"ɔ":{"ha":692,"x_min":44,"x_max":604,"o":"m 299 -10 q 151 19 217 -10 q 44 100 84 47 l 44 100 l 144 190 l 144 190 q 213 134 173 154 q 297 115 254 115 q 421 162 378 115 q 465 296 465 210 l 465 412 q 421 538 465 493 q 297 583 378 583 q 214 564 254 583 q 144 512 174 546 l 144 512 l 44 602 l 44 602 q 150 685 83 656 q 299 714 217 714 q 524 635 444 714 q 604 412 604 556 l 604 296 q 524 70 604 150 q 299 -10 444 -10 z "},"ø":{"ha":757,"x_min":88,"x_max":669,"o":"m 143 -96 l 534 800 l 628 800 l 237 -96 l 143 -96 m 378 -10 q 164 70 240 -10 q 88 296 88 151 l 88 411 q 164 635 88 555 q 378 714 240 714 q 593 635 517 714 q 669 411 669 555 l 669 294 q 593 70 669 149 q 378 -10 517 -10 m 378 121 q 491 167 451 121 q 530 294 530 212 l 530 411 q 491 538 530 493 q 378 583 451 583 q 267 538 307 583 q 227 411 227 493 l 227 294 q 267 167 227 212 q 378 121 307 121 z "},"õ":{"ha":757,"x_min":88,"x_max":669,"o":"m 378 -10 q 164 70 240 -10 q 88 296 88 151 l 88 411 q 164 635 88 555 q 378 714 240 714 q 593 635 517 714 q 669 411 669 555 l 669 294 q 593 70 669 149 q 378 -10 517 -10 m 378 121 q 491 167 451 121 q 530 294 530 212 l 530 411 q 491 538 530 493 q 378 583 451 583 q 267 538 307 583 q 227 411 227 493 l 227 294 q 267 167 227 212 q 378 121 307 121 m 477 846 q 428 857 452 846 q 385 882 405 867 q 338 914 360 899 q 298 929 317 929 q 251 882 251 929 l 251 848 l 144 848 l 144 878 q 178 1005 144 963 q 282 1046 213 1046 q 337 1033 312 1046 q 385 1004 363 1020 q 425 976 407 988 q 460 963 444 963 q 507 1015 507 963 l 507 1042 l 614 1042 l 614 1019 q 580 889 614 932 q 477 846 546 846 z "},"œ":{"ha":1180,"x_min":88,"x_max":1099,"o":"m 378 -10 q 164 70 240 -10 q 88 296 88 151 l 88 411 q 164 635 88 555 q 378 714 240 714 q 573 635 504 714 q 642 411 642 555 l 642 294 q 573 70 642 149 q 378 -10 504 -10 m 378 115 q 490 162 450 115 q 530 294 530 209 l 530 411 q 490 543 530 496 q 378 589 450 589 q 261 543 302 589 q 220 411 220 496 l 220 294 q 261 162 220 209 q 378 115 302 115 m 832 -10 q 624 72 698 -10 q 551 305 551 154 l 551 385 q 621 628 551 542 q 820 714 692 714 q 1026 616 953 714 q 1099 342 1099 519 l 1099 296 l 631 296 l 631 404 l 974 404 l 974 404 q 927 546 967 495 q 820 596 888 596 q 693 543 739 596 q 648 392 648 489 l 648 302 q 696 163 648 212 q 832 115 745 115 q 918 132 876 115 q 993 179 960 149 l 993 179 l 1080 95 l 1080 95 q 963 17 1028 45 q 832 -10 898 -10 z "},"p":{"ha":755,"x_min":109,"x_max":667,"o":"m 109 -286 l 109 704 l 247 704 l 247 -286 l 109 -286 m 424 -10 q 309 21 358 -10 q 237 111 260 53 l 247 258 q 263 180 247 212 q 310 132 279 149 q 385 115 341 115 q 491 156 454 115 q 529 274 529 198 l 529 427 q 491 547 529 504 q 385 589 454 589 q 310 573 341 589 q 263 526 279 557 q 247 450 247 494 l 233 585 q 316 681 264 647 q 431 714 368 714 q 606 639 544 714 q 667 427 667 564 l 667 274 q 604 64 667 139 q 424 -10 540 -10 z "},"þ":{"ha":755,"x_min":109,"x_max":667,"o":"m 109 -286 l 109 986 l 247 986 l 247 -286 l 109 -286 m 424 -10 q 309 21 358 -10 q 237 111 260 53 l 247 258 q 263 180 247 212 q 310 132 279 149 q 385 115 341 115 q 491 156 454 115 q 529 274 529 198 l 529 427 q 491 547 529 504 q 385 589 454 589 q 310 573 341 589 q 263 526 279 557 q 247 450 247 494 l 233 585 q 316 681 264 647 q 431 714 368 714 q 606 639 544 714 q 667 427 667 564 l 667 274 q 604 64 667 139 q 424 -10 540 -10 z "},"q":{"ha":749,"x_min":88,"x_max":647,"o":"m 509 -286 l 509 704 l 647 704 l 647 -286 l 509 -286 m 332 -12 q 152 63 215 -12 q 88 274 88 138 l 88 429 q 150 641 88 566 q 325 716 212 716 q 439 684 387 716 q 523 592 491 651 l 509 448 q 492 525 509 493 q 445 573 476 557 q 370 590 414 590 q 264 547 302 590 q 227 427 227 505 l 227 274 q 264 156 227 197 q 370 114 302 114 q 445 131 414 114 q 492 181 476 149 q 509 259 509 214 l 518 111 q 453 25 499 63 q 332 -12 406 -12 z "},"r":{"ha":593,"x_min":109,"x_max":586,"o":"m 109 0 l 109 704 l 247 704 l 247 0 l 109 0 m 496 537 q 450 571 477 559 q 385 583 422 583 q 283 546 319 583 q 247 446 247 510 l 233 581 q 316 679 264 644 q 431 714 368 714 q 518 700 479 714 q 586 659 557 686 l 496 537 z "},"ŕ":{"ha":593,"x_min":109,"x_max":586,"o":"m 109 0 l 109 704 l 247 704 l 247 0 l 109 0 m 496 537 q 450 571 477 559 q 385 583 422 583 q 283 546 319 583 q 247 446 247 510 l 233 581 q 316 679 264 644 q 431 714 368 714 q 518 700 479 714 q 586 659 557 686 l 496 537 m 349 840 l 262 909 l 456 1150 l 555 1067 l 349 840 z "},"ř":{"ha":593,"x_min":109,"x_max":586,"o":"m 109 0 l 109 704 l 247 704 l 247 0 l 109 0 m 496 537 q 450 571 477 559 q 385 583 422 583 q 283 546 319 583 q 247 446 247 510 l 233 581 q 316 679 264 644 q 431 714 368 714 q 518 700 479 714 q 586 659 557 686 l 496 537 m 337 840 l 124 1046 l 201 1117 l 337 988 l 473 1117 l 550 1046 l 337 840 z "},"ŗ":{"ha":593,"x_min":109,"x_max":586,"o":"m 109 0 l 109 704 l 247 704 l 247 0 l 109 0 m 496 537 q 450 571 477 559 q 385 583 422 583 q 283 546 319 583 q 247 446 247 510 l 233 581 q 316 679 264 644 q 431 714 368 714 q 518 700 479 714 q 586 659 557 686 l 496 537 m 109 -376 l 109 -100 l 247 -100 l 247 -239 l 109 -376 z "},"s":{"ha":720,"x_min":51,"x_max":652,"o":"m 357 -10 q 188 17 264 -10 q 51 100 111 45 l 51 100 l 133 201 l 133 201 q 247 136 191 157 q 357 114 302 114 q 480 139 439 114 q 522 216 522 165 q 494 271 522 255 q 422 293 467 288 q 327 301 378 298 q 242 312 284 304 q 165 337 200 319 q 110 393 131 356 q 90 491 90 429 q 158 659 90 603 q 362 714 227 714 q 516 692 445 714 q 650 623 587 669 l 650 623 l 566 522 l 566 522 q 462 573 513 556 q 362 590 411 590 q 256 566 292 590 q 221 494 221 542 q 245 448 221 462 q 310 430 270 434 q 396 422 350 426 q 485 413 440 420 q 568 385 530 406 q 629 325 606 365 q 652 216 652 285 q 579 46 652 102 q 357 -10 505 -10 z "},"ś":{"ha":720,"x_min":51,"x_max":652,"o":"m 357 -10 q 188 17 264 -10 q 51 100 111 45 l 51 100 l 133 201 l 133 201 q 247 136 191 157 q 357 114 302 114 q 480 139 439 114 q 522 216 522 165 q 494 271 522 255 q 422 293 467 288 q 327 301 378 298 q 242 312 284 304 q 165 337 200 319 q 110 393 131 356 q 90 491 90 429 q 158 659 90 603 q 362 714 227 714 q 516 692 445 714 q 650 623 587 669 l 650 623 l 566 522 l 566 522 q 462 573 513 556 q 362 590 411 590 q 256 566 292 590 q 221 494 221 542 q 245 448 221 462 q 310 430 270 434 q 396 422 350 426 q 485 413 440 420 q 568 385 530 406 q 629 325 606 365 q 652 216 652 285 q 579 46 652 102 q 357 -10 505 -10 m 375 840 l 288 909 l 482 1150 l 582 1067 l 375 840 z "},"š":{"ha":720,"x_min":51,"x_max":652,"o":"m 357 -10 q 188 17 264 -10 q 51 100 111 45 l 51 100 l 133 201 l 133 201 q 247 136 191 157 q 357 114 302 114 q 480 139 439 114 q 522 216 522 165 q 494 271 522 255 q 422 293 467 288 q 327 301 378 298 q 242 312 284 304 q 165 337 200 319 q 110 393 131 356 q 90 491 90 429 q 158 659 90 603 q 362 714 227 714 q 516 692 445 714 q 650 623 587 669 l 650 623 l 566 522 l 566 522 q 462 573 513 556 q 362 590 411 590 q 256 566 292 590 q 221 494 221 542 q 245 448 221 462 q 310 430 270 434 q 396 422 350 426 q 485 413 440 420 q 568 385 530 406 q 629 325 606 365 q 652 216 652 285 q 579 46 652 102 q 357 -10 505 -10 m 363 840 l 151 1046 l 228 1117 l 363 988 l 499 1117 l 576 1046 l 363 840 z "},"ş":{"ha":720,"x_min":51,"x_max":652,"o":"m 357 -10 q 188 17 264 -10 q 51 100 111 45 l 51 100 l 133 201 l 133 201 q 247 136 191 157 q 357 114 302 114 q 480 139 439 114 q 522 216 522 165 q 494 271 522 255 q 422 293 467 288 q 327 301 378 298 q 242 312 284 304 q 165 337 200 319 q 110 393 131 356 q 90 491 90 429 q 158 659 90 603 q 362 714 227 714 q 516 692 445 714 q 650 623 587 669 l 650 623 l 566 522 l 566 522 q 462 573 513 556 q 362 590 411 590 q 256 566 292 590 q 221 494 221 542 q 245 448 221 462 q 310 430 270 434 q 396 422 350 426 q 485 413 440 420 q 568 385 530 406 q 629 325 606 365 q 652 216 652 285 q 579 46 652 102 q 357 -10 505 -10 m 355 -286 q 243 -274 288 -286 l 272 -179 q 336 -189 304 -189 q 410 -154 410 -189 q 386 -129 410 -137 q 311 -121 361 -121 l 370 -42 q 490 -72 450 -42 q 530 -163 530 -102 q 486 -256 530 -225 q 355 -286 443 -286 m 300 -121 l 300 62 l 413 62 l 413 -121 l 300 -121 z "},"ș":{"ha":720,"x_min":51,"x_max":652,"o":"m 357 -10 q 188 17 264 -10 q 51 100 111 45 l 51 100 l 133 201 l 133 201 q 247 136 191 157 q 357 114 302 114 q 480 139 439 114 q 522 216 522 165 q 494 271 522 255 q 422 293 467 288 q 327 301 378 298 q 242 312 284 304 q 165 337 200 319 q 110 393 131 356 q 90 491 90 429 q 158 659 90 603 q 362 714 227 714 q 516 692 445 714 q 650 623 587 669 l 650 623 l 566 522 l 566 522 q 462 573 513 556 q 362 590 411 590 q 256 566 292 590 q 221 494 221 542 q 245 448 221 462 q 310 430 270 434 q 396 422 350 426 q 485 413 440 420 q 568 385 530 406 q 629 325 606 365 q 652 216 652 285 q 579 46 652 102 q 357 -10 505 -10 m 288 -376 l 288 -100 l 426 -100 l 426 -239 l 288 -376 z "},"ṣ":{"ha":720,"x_min":51,"x_max":652,"o":"m 357 -10 q 188 17 264 -10 q 51 100 111 45 l 51 100 l 133 201 l 133 201 q 247 136 191 157 q 357 114 302 114 q 480 139 439 114 q 522 216 522 165 q 494 271 522 255 q 422 293 467 288 q 327 301 378 298 q 242 312 284 304 q 165 337 200 319 q 110 393 131 356 q 90 491 90 429 q 158 659 90 603 q 362 714 227 714 q 516 692 445 714 q 650 623 587 669 l 650 623 l 566 522 l 566 522 q 462 573 513 556 q 362 590 411 590 q 256 566 292 590 q 221 494 221 542 q 245 448 221 462 q 310 430 270 434 q 396 422 350 426 q 485 413 440 420 q 568 385 530 406 q 629 325 606 365 q 652 216 652 285 q 579 46 652 102 q 357 -10 505 -10 m 288 -288 l 288 -149 l 426 -149 l 426 -288 l 288 -288 z "},"ß":{"ha":771,"x_min":109,"x_max":669,"o":"m 109 0 l 109 699 q 183 918 109 840 q 395 996 258 996 q 598 935 526 996 q 669 762 669 873 l 669 761 q 637 654 669 696 q 547 599 605 612 q 637 549 605 588 q 669 449 669 509 l 669 157 q 615 34 669 77 q 462 -10 561 -10 l 397 -10 l 397 121 l 462 121 q 513 138 495 121 q 531 186 531 155 l 531 466 q 513 513 531 496 q 462 530 495 530 l 397 530 l 397 662 l 462 662 q 513 687 495 662 q 531 757 531 711 l 531 758 q 497 837 531 809 q 400 865 463 865 q 287 820 327 865 q 247 693 247 775 l 247 0 l 109 0 z "},"t":{"ha":453,"x_min":54,"x_max":372,"o":"m 292 -3 q 166 45 205 -3 q 127 183 127 93 l 127 909 l 265 909 l 265 182 q 275 142 265 157 q 305 128 286 128 l 372 128 l 372 -3 l 292 -3 m 54 579 l 54 704 l 372 704 l 372 579 l 54 579 z "},"ť":{"ha":534,"x_min":54,"x_max":517,"o":"m 292 -3 q 166 45 205 -3 q 127 183 127 93 l 127 909 l 265 909 l 265 182 q 275 142 265 157 q 305 128 286 128 l 372 128 l 372 -3 l 292 -3 m 54 579 l 54 704 l 372 704 l 372 579 l 54 579 m 399 772 l 399 1054 l 517 1054 l 517 882 l 399 772 z "},"ţ":{"ha":453,"x_min":54,"x_max":396,"o":"m 292 -3 q 166 45 205 -3 q 127 183 127 93 l 127 909 l 265 909 l 265 182 q 275 142 265 157 q 305 128 286 128 l 372 128 l 372 -3 l 292 -3 m 54 579 l 54 704 l 372 704 l 372 579 l 54 579 m 222 -286 q 110 -274 154 -286 l 138 -179 q 203 -189 171 -189 q 277 -154 277 -189 q 252 -129 277 -137 q 178 -121 228 -121 l 237 -42 q 356 -72 317 -42 q 396 -163 396 -102 q 353 -256 396 -225 q 222 -286 309 -286 m 167 -121 l 167 62 l 279 62 l 279 -121 l 167 -121 z "},"ț":{"ha":453,"x_min":54,"x_max":372,"o":"m 292 -3 q 166 45 205 -3 q 127 183 127 93 l 127 909 l 265 909 l 265 182 q 275 142 265 157 q 305 128 286 128 l 372 128 l 372 -3 l 292 -3 m 54 579 l 54 704 l 372 704 l 372 579 l 54 579 m 154 -376 l 154 -100 l 292 -100 l 292 -239 l 154 -376 z "},"u":{"ha":772,"x_min":109,"x_max":671,"o":"m 533 0 l 533 704 l 671 704 l 671 0 l 533 0 m 247 704 l 247 276 q 284 162 247 202 q 391 121 322 121 q 496 158 459 121 q 533 260 533 194 l 543 113 q 476 27 524 65 q 352 -10 429 -10 q 172 65 235 -10 q 109 276 109 140 l 109 704 l 247 704 z "},"ú":{"ha":772,"x_min":109,"x_max":671,"o":"m 533 0 l 533 704 l 671 704 l 671 0 l 533 0 m 247 704 l 247 276 q 284 162 247 202 q 391 121 322 121 q 496 158 459 121 q 533 260 533 194 l 543 113 q 476 27 524 65 q 352 -10 429 -10 q 172 65 235 -10 q 109 276 109 140 l 109 704 l 247 704 m 398 840 l 311 909 l 505 1150 l 605 1067 l 398 840 z "},"ŭ":{"ha":772,"x_min":109,"x_max":671,"o":"m 533 0 l 533 704 l 671 704 l 671 0 l 533 0 m 247 704 l 247 276 q 284 162 247 202 q 391 121 322 121 q 496 158 459 121 q 533 260 533 194 l 543 113 q 476 27 524 65 q 352 -10 429 -10 q 172 65 235 -10 q 109 276 109 140 l 109 704 l 247 704 m 380 838 q 229 898 279 838 q 178 1080 178 959 l 178 1080 l 290 1080 l 290 1080 q 380 945 290 945 l 393 945 q 484 1080 484 945 l 484 1080 l 595 1080 l 595 1080 q 544 898 595 959 q 393 838 494 838 l 380 838 z "},"û":{"ha":772,"x_min":109,"x_max":671,"o":"m 533 0 l 533 704 l 671 704 l 671 0 l 533 0 m 247 704 l 247 276 q 284 162 247 202 q 391 121 322 121 q 496 158 459 121 q 533 260 533 194 l 543 113 q 476 27 524 65 q 352 -10 429 -10 q 172 65 235 -10 q 109 276 109 140 l 109 704 l 247 704 m 387 1117 l 600 911 l 522 840 l 387 968 l 251 840 l 174 911 l 387 1117 z "},"ü":{"ha":772,"x_min":109,"x_max":671,"o":"m 533 0 l 533 704 l 671 704 l 671 0 l 533 0 m 247 704 l 247 276 q 284 162 247 202 q 391 121 322 121 q 496 158 459 121 q 533 260 533 194 l 543 113 q 476 27 524 65 q 352 -10 429 -10 q 172 65 235 -10 q 109 276 109 140 l 109 704 l 247 704 m 460 848 l 460 986 l 598 986 l 598 848 l 460 848 m 175 848 l 175 986 l 313 986 l 313 848 l 175 848 z "},"ụ":{"ha":772,"x_min":109,"x_max":671,"o":"m 533 0 l 533 704 l 671 704 l 671 0 l 533 0 m 247 704 l 247 276 q 284 162 247 202 q 391 121 322 121 q 496 158 459 121 q 533 260 533 194 l 543 113 q 476 27 524 65 q 352 -10 429 -10 q 172 65 235 -10 q 109 276 109 140 l 109 704 l 247 704 m 317 -288 l 317 -149 l 456 -149 l 456 -288 l 317 -288 z "},"ù":{"ha":772,"x_min":109,"x_max":671,"o":"m 533 0 l 533 704 l 671 704 l 671 0 l 533 0 m 247 704 l 247 276 q 284 162 247 202 q 391 121 322 121 q 496 158 459 121 q 533 260 533 194 l 543 113 q 476 27 524 65 q 352 -10 429 -10 q 172 65 235 -10 q 109 276 109 140 l 109 704 l 247 704 m 370 840 l 163 1067 l 263 1150 l 457 909 l 370 840 z "},"ư":{"ha":861,"x_min":109,"x_max":868,"o":"m 533 0 l 533 704 l 671 704 l 671 0 l 533 0 m 247 704 l 247 276 q 284 162 247 202 q 391 121 322 121 q 496 158 459 121 q 533 260 533 194 l 543 113 q 476 27 524 65 q 352 -10 429 -10 q 172 65 235 -10 q 109 276 109 140 l 109 704 l 247 704 m 668 606 l 537 606 l 537 704 l 646 704 q 710 729 688 704 q 733 798 733 753 l 733 848 l 868 848 l 868 785 q 816 653 868 700 q 668 606 764 606 z "},"ű":{"ha":772,"x_min":109,"x_max":681,"o":"m 533 0 l 533 704 l 671 704 l 671 0 l 533 0 m 247 704 l 247 276 q 284 162 247 202 q 391 121 322 121 q 496 158 459 121 q 533 260 533 194 l 543 113 q 476 27 524 65 q 352 -10 429 -10 q 172 65 235 -10 q 109 276 109 140 l 109 704 l 247 704 m 542 836 l 438 896 l 564 1137 l 681 1064 l 542 836 m 271 836 l 167 896 l 293 1137 l 410 1064 l 271 836 z "},"ū":{"ha":772,"x_min":109,"x_max":671,"o":"m 533 0 l 533 704 l 671 704 l 671 0 l 533 0 m 247 704 l 247 276 q 284 162 247 202 q 391 121 322 121 q 496 158 459 121 q 533 260 533 194 l 543 113 q 476 27 524 65 q 352 -10 429 -10 q 172 65 235 -10 q 109 276 109 140 l 109 704 l 247 704 m 139 985 l 634 985 l 634 848 l 139 848 l 139 985 z "},"ų":{"ha":772,"x_min":109,"x_max":671,"o":"m 533 0 l 533 704 l 671 704 l 671 0 l 533 0 m 247 704 l 247 276 q 284 162 247 202 q 391 121 322 121 q 496 158 459 121 q 533 260 533 194 l 543 113 q 476 27 524 65 q 352 -10 429 -10 q 172 65 235 -10 q 109 276 109 140 l 109 704 l 247 704 m 640 -285 q 505 -253 547 -285 q 463 -151 463 -221 q 509 -47 463 -93 q 637 32 555 -1 l 671 0 q 601 -59 623 -30 q 578 -125 578 -89 q 640 -172 578 -172 l 671 -172 l 671 -285 l 640 -285 z "},"ů":{"ha":772,"x_min":109,"x_max":671,"o":"m 533 0 l 533 704 l 671 704 l 671 0 l 533 0 m 247 704 l 247 276 q 284 162 247 202 q 391 121 322 121 q 496 158 459 121 q 533 260 533 194 l 543 113 q 476 27 524 65 q 352 -10 429 -10 q 172 65 235 -10 q 109 276 109 140 l 109 704 l 247 704 m 387 842 q 263 882 307 842 q 220 998 220 923 q 263 1119 220 1077 q 387 1162 307 1162 q 510 1118 467 1162 q 553 998 553 1075 q 509 882 553 923 q 387 842 466 842 m 387 930 q 438 949 420 930 q 456 1001 456 968 q 438 1055 456 1035 q 387 1074 420 1074 q 335 1055 353 1074 q 317 1001 317 1036 q 335 949 317 968 q 387 930 353 930 z "},"v":{"ha":694,"x_min":34,"x_max":667,"o":"m 351 201 l 523 704 l 667 704 l 403 0 l 298 0 l 34 704 l 178 704 l 351 201 z "},"w":{"ha":1074,"x_min":47,"x_max":1034,"o":"m 264 0 l 47 704 l 192 704 l 317 201 l 492 704 l 589 704 l 764 201 l 889 704 l 1034 704 l 817 0 l 712 0 l 541 486 l 369 0 l 264 0 z "},"x":{"ha":718,"x_min":41,"x_max":674,"o":"m 521 0 l 311 320 l 52 704 l 205 704 l 408 389 l 674 0 l 521 0 m 41 0 l 307 389 l 373 261 l 194 0 l 41 0 m 414 324 l 355 454 l 509 704 l 663 704 l 414 324 z "},"y":{"ha":671,"x_min":34,"x_max":657,"o":"m 516 704 l 657 704 l 357 -165 q 285 -266 332 -237 q 155 -294 237 -294 l 127 -294 l 127 -161 l 155 -161 q 216 -145 193 -161 q 256 -92 239 -130 l 516 704 m 315 -58 l 34 704 l 175 704 l 391 92 l 315 -58 z "},"ý":{"ha":671,"x_min":34,"x_max":657,"o":"m 516 704 l 657 704 l 357 -165 q 285 -266 332 -237 q 155 -294 237 -294 l 127 -294 l 127 -161 l 155 -161 q 216 -145 193 -161 q 256 -92 239 -130 l 516 704 m 315 -58 l 34 704 l 175 704 l 391 92 l 315 -58 m 364 840 l 277 909 l 471 1150 l 571 1067 l 364 840 z "},"ÿ":{"ha":671,"x_min":34,"x_max":657,"o":"m 516 704 l 657 704 l 357 -165 q 285 -266 332 -237 q 155 -294 237 -294 l 127 -294 l 127 -161 l 155 -161 q 216 -145 193 -161 q 256 -92 239 -130 l 516 704 m 315 -58 l 34 704 l 175 704 l 391 92 l 315 -58 m 426 848 l 426 986 l 564 986 l 564 848 l 426 848 m 141 848 l 141 986 l 279 986 l 279 848 l 141 848 z "},"ƴ":{"ha":713,"x_min":34,"x_max":699,"o":"m 127 -294 l 127 -161 l 155 -161 q 218 -146 193 -161 q 256 -92 243 -131 l 483 604 q 537 687 500 659 q 629 714 573 714 l 699 714 l 699 583 l 656 583 q 596 529 614 583 l 357 -165 q 285 -265 332 -237 q 155 -294 237 -294 l 127 -294 m 315 -58 l 34 704 l 175 704 l 391 92 l 315 -58 z "},"z":{"ha":687,"x_min":88,"x_max":612,"o":"m 594 704 l 594 587 l 256 128 l 612 128 l 612 0 l 88 0 l 88 119 l 435 576 l 98 576 l 98 704 l 594 704 z "},"ź":{"ha":687,"x_min":88,"x_max":612,"o":"m 594 704 l 594 587 l 256 128 l 612 128 l 612 0 l 88 0 l 88 119 l 435 576 l 98 576 l 98 704 l 594 704 m 363 840 l 276 909 l 470 1150 l 570 1067 l 363 840 z "},"ž":{"ha":687,"x_min":88,"x_max":612,"o":"m 594 704 l 594 587 l 256 128 l 612 128 l 612 0 l 88 0 l 88 119 l 435 576 l 98 576 l 98 704 l 594 704 m 351 840 l 138 1046 l 216 1117 l 351 988 l 487 1117 l 564 1046 l 351 840 z "},"ż":{"ha":687,"x_min":88,"x_max":612,"o":"m 594 704 l 594 587 l 256 128 l 612 128 l 612 0 l 88 0 l 88 119 l 435 576 l 98 576 l 98 704 l 594 704 m 282 848 l 282 987 l 420 987 l 420 848 l 282 848 z "},"ª":{"ha":478,"x_min":68,"x_max":417,"o":"m 315 564 l 315 832 q 296 879 315 863 q 246 895 277 895 q 201 888 217 895 q 165 862 185 881 l 87 917 q 130 960 106 943 q 182 983 153 976 q 248 991 211 991 q 372 953 327 991 q 417 839 417 916 l 417 564 l 315 564 m 214 559 q 106 593 144 559 q 68 689 68 627 q 106 782 68 749 q 212 815 144 815 l 327 815 l 331 730 l 223 730 q 173 684 173 730 q 236 642 173 642 q 295 657 274 642 q 315 699 315 671 l 331 614 q 285 573 316 588 q 214 559 254 559 z "},"º":{"ha":475,"x_min":68,"x_max":414,"o":"m 241 559 q 113 606 157 559 q 68 735 68 652 l 68 814 q 113 944 68 898 q 241 991 157 991 q 369 944 324 991 q 414 814 414 898 l 414 735 q 369 605 414 652 q 241 559 323 559 m 241 667 q 285 686 269 667 q 300 739 300 705 l 300 813 q 285 865 300 846 q 241 883 269 883 q 181 812 181 883 l 181 739 q 241 667 181 667 z "},"А":{"ha":899,"x_min":27,"x_max":872,"o":"m 27 0 l 391 986 l 509 986 l 872 0 l 723 0 l 450 795 l 176 0 l 27 0 m 195 216 l 195 348 l 713 348 l 713 216 l 195 216 z "},"Б":{"ha":885,"x_min":122,"x_max":800,"o":"m 193 0 l 193 132 l 509 132 q 619 174 580 132 q 659 294 659 216 l 659 294 q 619 416 659 373 q 509 458 580 458 l 193 458 l 193 590 l 504 590 q 664 555 598 590 q 765 454 730 520 q 800 294 800 389 l 800 294 q 765 135 800 201 q 664 35 730 69 q 504 0 598 0 l 193 0 m 122 0 l 122 986 l 260 986 l 260 0 l 122 0 m 189 854 l 189 986 l 728 986 l 728 854 l 189 854 z "},"В":{"ha":897,"x_min":122,"x_max":812,"o":"m 203 0 l 203 128 l 471 128 q 626 170 581 128 q 672 281 672 212 l 672 283 q 633 400 672 356 q 505 444 594 444 l 203 444 l 203 568 l 505 568 q 620 605 581 568 q 659 711 659 641 l 659 711 q 616 821 659 785 q 486 858 572 858 l 203 858 l 203 986 l 511 986 q 728 913 656 986 q 799 719 799 841 l 799 719 q 755 584 799 645 q 619 505 712 522 q 761 425 711 492 q 812 271 812 357 l 812 269 q 734 74 812 148 q 522 0 656 0 l 203 0 m 122 0 l 122 986 l 260 986 l 260 0 l 122 0 z "},"Г":{"ha":688,"x_min":122,"x_max":675,"o":"m 122 0 l 122 986 l 260 986 l 260 0 l 122 0 m 190 854 l 190 986 l 675 986 l 675 854 l 190 854 z "},"Ѓ":{"ha":688,"x_min":122,"x_max":675,"o":"m 122 0 l 122 986 l 260 986 l 260 0 l 122 0 m 190 854 l 190 986 l 675 986 l 675 854 l 190 854 m 423 1054 l 347 1134 l 534 1300 l 623 1207 l 423 1054 z "},"Ґ":{"ha":688,"x_min":122,"x_max":675,"o":"m 536 910 l 536 1171 l 675 1171 l 675 910 l 536 910 m 122 0 l 122 986 l 260 986 l 260 0 l 122 0 m 190 854 l 190 986 l 675 986 l 675 854 l 190 854 z "},"Д":{"ha":1012,"x_min":41,"x_max":958,"o":"m 41 41 l 41 132 l 47 132 q 180 201 133 132 q 227 395 227 270 l 227 986 l 366 986 l 366 383 q 330 198 366 275 q 226 81 294 121 q 61 41 158 41 l 41 41 m 41 -204 l 41 132 l 179 132 l 179 -204 l 41 -204 m 41 0 l 41 132 l 896 132 l 896 0 l 41 0 m 819 -204 l 819 132 l 958 132 l 958 -204 l 819 -204 m 687 0 l 687 986 l 825 986 l 825 0 l 687 0 m 313 854 l 313 986 l 760 986 l 760 854 l 313 854 z "},"Е":{"ha":830,"x_min":122,"x_max":755,"o":"m 122 0 l 122 986 l 260 986 l 260 0 l 122 0 m 189 0 l 189 132 l 755 132 l 755 0 l 189 0 m 189 424 l 189 555 l 681 555 l 681 424 l 189 424 m 189 854 l 189 986 l 755 986 l 755 854 l 189 854 z "},"Ѐ":{"ha":830,"x_min":122,"x_max":755,"o":"m 122 0 l 122 986 l 260 986 l 260 0 l 122 0 m 189 0 l 189 132 l 755 132 l 755 0 l 189 0 m 189 424 l 189 555 l 681 555 l 681 424 l 189 424 m 189 854 l 189 986 l 755 986 l 755 854 l 189 854 m 435 1047 l 241 1200 l 324 1293 l 511 1127 l 435 1047 z "},"Ё":{"ha":830,"x_min":122,"x_max":755,"o":"m 122 0 l 122 986 l 260 986 l 260 0 l 122 0 m 189 0 l 189 132 l 755 132 l 755 0 l 189 0 m 189 424 l 189 555 l 681 555 l 681 424 l 189 424 m 189 854 l 189 986 l 755 986 l 755 854 l 189 854 m 521 1067 l 521 1205 l 659 1205 l 659 1067 l 521 1067 m 243 1067 l 243 1205 l 381 1205 l 381 1067 l 243 1067 z "},"Ж":{"ha":1331,"x_min":14,"x_max":1317,"o":"m 899 420 l 829 541 l 1102 986 l 1276 986 l 899 420 m 1125 0 l 829 434 l 950 505 l 1317 0 l 1125 0 m 14 0 l 380 505 l 502 434 l 205 0 l 14 0 m 431 420 l 55 986 l 229 986 l 501 541 l 431 420 m 380 424 l 380 555 l 951 555 l 951 424 l 380 424 m 596 0 l 596 986 l 734 986 l 734 0 l 596 0 z "},"З":{"ha":819,"x_min":75,"x_max":734,"o":"m 411 -10 q 180 59 269 -10 q 75 252 92 127 l 75 252 l 216 252 l 216 252 q 281 157 229 191 q 418 123 334 123 q 545 165 500 123 q 589 283 589 207 l 589 283 q 550 404 589 361 q 438 447 511 447 l 294 447 l 294 578 l 438 578 q 538 616 503 578 q 573 722 573 654 l 573 728 q 532 829 573 795 q 417 863 492 863 q 298 831 347 863 q 231 741 250 799 l 231 741 l 91 741 l 91 741 q 199 929 115 863 q 410 996 282 996 q 638 931 557 996 q 718 740 718 865 l 718 734 q 684 599 718 656 q 585 515 649 542 q 695 435 656 498 q 734 276 734 373 l 734 275 q 650 64 734 139 q 411 -10 565 -10 z "},"И":{"ha":972,"x_min":122,"x_max":850,"o":"m 850 1 l 713 1 l 713 776 l 730 758 l 235 1 l 122 1 l 122 986 l 259 986 l 259 199 l 243 217 l 739 986 l 850 986 l 850 1 z "},"Й":{"ha":972,"x_min":122,"x_max":850,"o":"m 850 1 l 713 1 l 713 776 l 730 758 l 235 1 l 122 1 l 122 986 l 259 986 l 259 199 l 243 217 l 739 986 l 850 986 l 850 1 z "},"Ѝ":{"ha":972,"x_min":122,"x_max":850,"o":"m 850 1 l 713 1 l 713 776 l 730 758 l 235 1 l 122 1 l 122 986 l 259 986 l 259 199 l 243 217 l 739 986 l 850 986 l 850 1 m 467 1047 l 273 1200 l 356 1293 l 543 1127 l 467 1047 z "},"Ҋ":{"ha":994,"x_min":122,"x_max":980,"o":"m 787 -204 l 827 45 l 841 0 l 806 0 l 806 132 l 980 132 l 926 -204 l 787 -204 m 850 1 l 713 1 l 713 776 l 730 758 l 235 1 l 122 1 l 122 986 l 259 986 l 259 199 l 243 217 l 739 986 l 850 986 l 850 1 m 600 1262 l 711 1263 q 652 1111 711 1165 q 486 1057 593 1057 l 480 1057 q 313 1111 372 1057 q 254 1263 254 1165 l 366 1262 q 396 1183 366 1211 q 480 1155 427 1155 l 486 1155 q 570 1183 540 1155 q 600 1262 600 1211 z "},"К":{"ha":891,"x_min":122,"x_max":878,"o":"m 446 420 l 376 541 l 663 986 l 836 986 l 446 420 m 686 0 l 376 434 l 497 505 l 878 0 l 686 0 m 122 0 l 122 986 l 260 986 l 260 0 l 122 0 m 189 424 l 189 555 l 498 555 l 498 424 l 189 424 z "},"Ќ":{"ha":891,"x_min":122,"x_max":878,"o":"m 446 420 l 376 541 l 663 986 l 836 986 l 446 420 m 686 0 l 376 434 l 497 505 l 878 0 l 686 0 m 122 0 l 122 986 l 260 986 l 260 0 l 122 0 m 189 424 l 189 555 l 498 555 l 498 424 l 189 424 m 438 1054 l 361 1134 l 549 1300 l 638 1207 l 438 1054 z "},"Л":{"ha":996,"x_min":81,"x_max":874,"o":"m 81 0 l 81 132 l 81 132 q 210 194 170 132 q 250 395 250 256 l 250 986 l 389 986 l 389 404 q 319 96 389 191 q 95 0 250 0 l 81 0 m 736 0 l 736 986 l 874 986 l 874 0 l 736 0 m 336 854 l 336 986 l 809 986 l 809 854 l 336 854 z "},"М":{"ha":1082,"x_min":122,"x_max":960,"o":"m 541 335 l 831 986 l 960 986 l 960 0 l 825 0 l 825 739 l 832 695 l 589 137 l 493 137 l 250 682 l 257 739 l 257 0 l 122 0 l 122 986 l 252 986 l 541 335 z "},"Н":{"ha":943,"x_min":122,"x_max":821,"o":"m 682 0 l 682 986 l 821 986 l 821 0 l 682 0 m 122 0 l 122 986 l 260 986 l 260 0 l 122 0 m 208 420 l 208 551 l 755 551 l 755 420 l 208 420 z "},"О":{"ha":897,"x_min":102,"x_max":795,"o":"m 448 -10 q 266 35 344 -10 q 145 162 188 80 q 102 353 102 244 l 102 633 q 145 824 102 743 q 266 951 188 906 q 448 996 344 996 q 631 951 553 996 q 752 824 709 906 q 795 633 795 743 l 795 353 q 752 162 795 244 q 631 35 709 80 q 448 -10 553 -10 m 448 126 q 597 187 541 126 q 653 349 653 248 l 653 637 q 597 799 653 739 q 448 860 541 860 q 300 799 356 860 q 243 637 243 739 l 243 349 q 300 187 243 248 q 448 126 356 126 z "},"П":{"ha":943,"x_min":122,"x_max":821,"o":"m 682 0 l 682 986 l 821 986 l 821 0 l 682 0 m 122 0 l 122 986 l 260 986 l 260 0 l 122 0 m 208 854 l 208 986 l 755 986 l 755 854 l 208 854 z "},"Р":{"ha":865,"x_min":122,"x_max":800,"o":"m 193 382 l 193 514 l 509 514 q 617 561 576 514 q 659 684 659 608 l 659 684 q 617 808 659 761 q 509 854 576 854 l 193 854 l 193 986 l 504 986 q 660 948 593 986 q 763 843 726 911 q 800 684 800 775 l 800 684 q 763 525 800 593 q 660 420 726 457 q 504 382 593 382 l 193 382 m 122 0 l 122 986 l 260 986 l 260 0 l 122 0 z "},"С":{"ha":859,"x_min":102,"x_max":785,"o":"m 445 -10 q 264 36 342 -10 q 144 164 187 81 q 102 357 102 247 l 102 628 q 144 822 102 739 q 264 950 187 905 q 445 996 342 996 q 601 960 530 996 q 720 857 672 923 q 785 703 768 791 l 785 703 l 643 703 l 643 703 q 600 786 630 751 q 529 842 570 822 q 445 861 488 861 q 299 797 354 861 q 243 628 243 733 l 243 357 q 299 189 243 252 q 445 125 354 125 q 566 165 509 125 q 643 283 623 206 l 643 283 l 785 283 l 785 283 q 720 129 768 195 q 601 26 671 63 q 445 -10 530 -10 z "},"Т":{"ha":669,"x_min":-14,"x_max":682,"o":"m 265 0 l 265 905 l 404 905 l 404 0 l 265 0 m -14 854 l -14 986 l 682 986 l 682 854 l -14 854 z "},"У":{"ha":848,"x_min":41,"x_max":827,"o":"m 398 170 l 41 986 l 198 986 l 488 280 l 398 170 m 827 986 l 539 204 q 443 45 500 100 q 292 -10 386 -10 l 178 -10 l 178 126 l 292 126 q 371 160 340 126 q 425 258 402 193 l 677 986 l 827 986 z "},"Ў":{"ha":848,"x_min":41,"x_max":827,"o":"m 398 170 l 41 986 l 198 986 l 488 280 l 398 170 m 827 986 l 539 204 q 443 45 500 100 q 292 -10 386 -10 l 178 -10 l 178 126 l 292 126 q 371 160 340 126 q 425 258 402 193 l 677 986 l 827 986 z "},"Ф":{"ha":1100,"x_min":61,"x_max":1039,"o":"m 550 105 q 189 206 317 105 q 61 496 61 307 l 61 524 q 189 814 61 713 q 550 915 317 915 q 911 814 783 915 q 1039 524 1039 713 l 1039 496 q 911 206 1039 307 q 550 105 783 105 m 481 0 l 481 1020 l 619 1020 l 619 0 l 481 0 m 550 228 q 814 296 720 228 q 907 496 907 365 l 907 524 q 814 724 907 655 q 550 792 720 792 q 287 724 380 792 q 193 524 193 655 l 193 496 q 287 296 193 365 q 550 228 380 228 z "},"Х":{"ha":788,"x_min":14,"x_max":774,"o":"m 619 0 l 363 433 l 342 467 l 22 986 l 177 986 l 415 585 l 437 548 l 774 0 l 619 0 m 14 0 l 357 564 l 604 986 l 760 986 l 433 452 l 169 0 l 14 0 z "},"Ч":{"ha":869,"x_min":95,"x_max":747,"o":"m 609 0 l 609 986 l 747 986 l 747 0 l 609 0 m 393 309 q 173 390 251 309 q 95 621 95 472 l 95 986 l 233 986 l 233 616 q 279 490 233 534 q 407 445 324 445 q 556 493 503 445 q 609 630 609 542 l 609 708 l 652 708 l 652 635 q 585 394 652 479 q 393 309 517 309 z "},"Ц":{"ha":1008,"x_min":122,"x_max":954,"o":"m 682 0 l 682 986 l 821 986 l 821 0 l 682 0 m 208 0 l 208 132 l 864 132 l 864 0 l 208 0 m 815 -204 l 815 132 l 954 132 l 954 -204 l 815 -204 m 122 0 l 122 986 l 260 986 l 260 0 l 122 0 z "},"Ш":{"ha":1286,"x_min":122,"x_max":1164,"o":"m 1025 0 l 1025 986 l 1164 986 l 1164 0 l 1025 0 m 202 0 l 202 132 l 1093 132 l 1093 0 l 202 0 m 122 0 l 122 986 l 260 986 l 260 0 l 122 0 m 574 0 l 574 986 l 712 986 l 712 0 l 574 0 z "},"Щ":{"ha":1350,"x_min":122,"x_max":1295,"o":"m 202 0 l 202 132 l 1093 132 l 1093 0 l 202 0 m 1025 0 l 1025 986 l 1164 986 l 1164 0 l 1025 0 m 122 0 l 122 986 l 260 986 l 260 0 l 122 0 m 574 0 l 574 986 l 712 986 l 712 0 l 574 0 m 1157 -204 l 1157 132 l 1295 132 l 1295 -204 l 1157 -204 z "},"Џ":{"ha":943,"x_min":122,"x_max":821,"o":"m 682 986 l 821 986 l 821 0 l 682 0 l 682 986 m 122 986 l 260 986 l 260 0 l 122 0 l 122 986 m 202 132 l 749 132 l 749 0 l 202 0 l 202 132 m 402 132 l 541 132 l 541 -204 l 402 -204 l 402 132 z "},"Ь":{"ha":882,"x_min":122,"x_max":797,"o":"m 193 0 l 193 132 l 505 132 q 616 174 576 132 q 655 294 655 216 l 655 294 q 616 416 655 373 q 505 458 576 458 l 193 458 l 193 590 l 500 590 q 661 555 595 590 q 762 454 727 520 q 797 294 797 389 l 797 294 q 762 135 797 201 q 661 35 727 69 q 500 0 595 0 l 193 0 m 122 0 l 122 986 l 260 986 l 260 0 l 122 0 z "},"Ъ":{"ha":979,"x_min":7,"x_max":894,"o":"m 7 854 l 7 986 l 342 986 l 342 854 l 7 854 m 304 0 l 304 132 l 602 132 q 713 174 673 132 q 752 294 752 216 l 752 294 q 713 416 752 373 q 602 458 673 458 l 304 458 l 304 590 l 597 590 q 758 555 692 590 q 859 454 824 520 q 894 294 894 389 l 894 294 q 859 135 894 201 q 758 35 824 69 q 597 0 692 0 l 304 0 m 233 0 l 233 986 l 371 986 l 371 0 l 233 0 z "},"Ы":{"ha":1160,"x_min":122,"x_max":1038,"o":"m 193 0 l 193 132 l 478 132 q 589 174 549 132 q 628 294 628 216 l 628 294 q 589 416 628 373 q 478 458 549 458 l 193 458 l 193 590 l 473 590 q 634 555 568 590 q 735 454 700 520 q 770 294 770 389 l 770 294 q 735 135 770 201 q 634 35 700 69 q 473 0 568 0 l 193 0 m 122 0 l 122 986 l 260 986 l 260 0 l 122 0 m 1038 986 l 1038 0 l 900 0 l 900 986 l 1038 986 z "},"Љ":{"ha":1414,"x_min":81,"x_max":1329,"o":"m 753 0 l 753 132 l 1038 132 q 1148 174 1109 132 q 1187 294 1187 216 l 1187 294 q 1148 416 1187 373 q 1038 458 1109 458 l 753 458 l 753 590 l 1033 590 q 1193 555 1127 590 q 1294 454 1259 520 q 1329 294 1329 389 l 1329 294 q 1294 135 1329 201 q 1193 35 1259 69 q 1033 0 1127 0 l 753 0 m 81 0 l 81 132 l 81 132 q 210 194 170 132 q 250 395 250 256 l 250 986 l 389 986 l 389 404 q 319 96 389 191 q 95 0 250 0 l 81 0 m 736 0 l 736 986 l 874 986 l 874 0 l 736 0 m 336 854 l 336 986 l 809 986 l 809 854 l 336 854 z "},"Њ":{"ha":1414,"x_min":122,"x_max":1329,"o":"m 753 0 l 753 132 l 1038 132 q 1148 174 1109 132 q 1187 294 1187 216 l 1187 294 q 1148 416 1187 373 q 1038 458 1109 458 l 753 458 l 753 590 l 1033 590 q 1193 555 1127 590 q 1294 454 1259 520 q 1329 294 1329 389 l 1329 294 q 1294 135 1329 201 q 1193 35 1259 69 q 1033 0 1127 0 l 753 0 m 682 0 l 682 986 l 821 986 l 821 0 l 682 0 m 122 0 l 122 986 l 260 986 l 260 0 l 122 0 m 208 420 l 208 551 l 755 551 l 755 420 l 208 420 z "},"Ѕ":{"ha":855,"x_min":61,"x_max":781,"o":"m 418 -10 q 283 3 347 -10 q 164 44 220 17 q 61 112 109 71 l 61 112 l 147 218 l 147 218 q 271 144 203 169 q 418 120 339 120 q 585 160 526 120 q 644 272 644 200 l 644 273 q 614 359 644 329 q 535 403 584 389 q 429 427 487 418 q 317 450 374 437 q 213 490 260 463 q 137 569 165 517 q 108 707 108 621 l 108 707 q 199 921 108 845 q 458 996 291 996 q 613 971 537 996 q 761 893 689 945 l 761 893 l 682 783 l 682 783 q 570 846 626 825 q 458 866 514 866 q 301 826 357 866 q 245 711 245 785 l 245 711 q 277 626 245 655 q 362 583 310 597 q 475 557 415 569 q 584 531 530 546 q 683 487 638 515 q 754 408 727 458 q 781 277 781 357 l 781 275 q 686 64 781 139 q 418 -10 591 -10 z "},"Є":{"ha":859,"x_min":102,"x_max":785,"o":"m 189 424 l 189 555 l 640 555 l 640 424 l 189 424 m 445 -10 q 264 36 342 -10 q 144 164 187 81 q 102 357 102 247 l 102 628 q 144 822 102 739 q 264 950 187 905 q 445 996 342 996 q 601 960 530 996 q 720 857 672 923 q 785 703 768 791 l 785 703 l 643 703 l 643 703 q 600 786 630 751 q 529 842 570 822 q 445 861 488 861 q 299 797 354 861 q 243 628 243 733 l 243 357 q 299 189 243 252 q 445 125 354 125 q 566 165 509 125 q 643 283 623 206 l 643 283 l 785 283 l 785 283 q 720 129 768 195 q 601 26 671 63 q 445 -10 530 -10 z "},"Э":{"ha":859,"x_min":75,"x_max":758,"o":"m 414 -10 q 259 26 330 -10 q 140 129 188 63 q 75 283 92 195 l 75 283 l 216 283 l 216 283 q 293 165 236 206 q 414 125 350 125 q 561 189 505 125 q 616 357 616 252 l 616 628 q 561 797 616 733 q 414 861 505 861 q 331 842 371 861 q 260 786 290 822 q 216 703 229 751 l 216 703 l 75 703 l 75 703 q 139 857 92 791 q 258 960 187 923 q 414 996 329 996 q 595 950 518 996 q 715 822 672 905 q 758 628 758 739 l 758 357 q 715 164 758 247 q 595 36 672 81 q 414 -10 518 -10 m 219 424 l 219 555 l 670 555 l 670 424 l 219 424 z "},"І":{"ha":382,"x_min":122,"x_max":260,"o":"m 260 986 l 260 0 l 122 0 l 122 986 l 260 986 z "},"Ї":{"ha":382,"x_min":-17,"x_max":399,"o":"m 260 986 l 260 0 l 122 0 l 122 986 l 260 986 m 261 1067 l 261 1205 l 399 1205 l 399 1067 l 261 1067 m -17 1067 l -17 1205 l 121 1205 l 121 1067 l -17 1067 z "},"Ј":{"ha":702,"x_min":20,"x_max":580,"o":"m 272 -10 q 128 22 194 -10 q 20 111 62 54 l 134 193 q 189 141 153 159 q 272 123 224 123 q 397 173 353 123 q 441 314 441 223 l 441 986 l 580 986 l 580 313 q 499 75 580 159 q 272 -10 419 -10 z "},"Ћ":{"ha":1059,"x_min":-14,"x_max":958,"o":"m 819 0 l 819 379 q 772 528 819 479 q 632 578 726 578 q 460 532 517 578 q 403 393 403 486 l 359 388 q 434 633 359 552 q 659 714 509 714 q 883 629 809 714 q 958 374 958 545 l 958 0 l 819 0 m 265 0 l 265 905 l 404 905 l 404 0 l 265 0 m -14 854 l -14 986 l 682 986 l 682 854 l -14 854 z "},"Ю":{"ha":1265,"x_min":122,"x_max":1164,"o":"m 176 424 l 176 555 l 559 555 l 559 424 l 176 424 m 260 987 l 260 1 l 122 1 l 122 987 l 260 987 m 817 -10 q 635 35 713 -10 q 514 162 557 80 q 471 353 471 244 l 471 633 q 514 824 471 743 q 635 951 557 906 q 817 996 713 996 q 1000 951 922 996 q 1121 824 1078 906 q 1164 633 1164 743 l 1164 353 q 1121 162 1164 244 q 1000 35 1078 80 q 817 -10 922 -10 m 817 126 q 966 187 910 126 q 1022 349 1022 248 l 1022 637 q 966 799 1022 739 q 817 860 910 860 q 669 799 725 860 q 612 637 612 739 l 612 349 q 669 187 612 248 q 817 126 725 126 z "},"Я":{"ha":865,"x_min":64,"x_max":743,"o":"m 358 397 q 208 433 273 397 q 108 536 144 470 q 72 692 73 603 l 72 692 q 107 847 72 781 q 208 950 143 913 q 358 987 272 987 l 682 987 l 682 855 l 353 855 q 256 810 292 855 q 219 692 219 766 l 219 692 q 256 573 219 618 q 353 528 293 528 l 682 528 l 682 397 l 358 397 m 64 0 l 330 458 l 468 427 l 229 0 l 64 0 m 604 0 l 604 987 l 743 987 l 743 0 l 604 0 z "},"Ђ":{"ha":1008,"x_min":-14,"x_max":947,"o":"m 639 603 q 866 524 786 603 q 947 300 947 444 l 947 300 q 868 78 947 157 q 646 0 790 0 l 583 0 l 583 132 l 633 132 q 763 175 717 132 q 808 298 808 219 l 808 298 q 761 426 808 381 q 625 471 713 471 q 461 417 519 471 q 403 267 403 364 l 403 189 l 359 230 l 359 303 q 433 525 359 446 q 639 603 506 603 m 265 0 l 265 905 l 404 905 l 404 0 l 265 0 m -14 854 l -14 986 l 682 986 l 682 854 l -14 854 z "},"Ѡ":{"ha":1449,"x_min":102,"x_max":1347,"o":"m 441 -10 q 263 35 339 -10 q 144 162 186 80 q 102 353 102 244 l 102 633 q 145 824 102 743 q 266 951 188 906 q 448 996 344 996 l 448 996 l 448 860 l 448 860 q 300 799 356 860 q 243 637 243 739 l 243 349 q 300 187 243 248 q 448 126 356 126 q 597 187 541 126 q 653 349 653 248 l 653 531 l 795 531 l 795 353 q 780 248 795 297 q 735 157 764 198 q 618 34 694 79 q 441 -10 542 -10 m 1007 -10 q 825 37 903 -10 q 707 168 748 85 q 654 353 654 250 l 654 531 l 795 531 l 795 349 q 852 187 795 248 q 1000 126 908 126 q 1149 187 1093 126 q 1205 349 1205 248 l 1205 637 q 1149 799 1205 739 q 1000 860 1093 860 l 1000 860 l 1000 996 l 1000 996 q 1183 951 1105 996 q 1304 824 1261 906 q 1347 633 1347 743 l 1347 353 q 1304 162 1347 244 q 1186 35 1262 80 q 1007 -10 1109 -10 z "},"Ѣ":{"ha":922,"x_min":7,"x_max":838,"o":"m 7 739 l 7 871 l 566 871 l 566 739 l 7 739 m 234 0 l 234 132 l 546 132 q 656 174 617 132 q 696 294 696 216 l 696 294 q 656 416 696 373 q 546 458 617 458 l 234 458 l 234 590 l 541 590 q 702 555 635 590 q 803 454 768 520 q 838 294 838 389 l 838 294 q 803 135 838 201 q 702 35 768 69 q 541 0 635 0 l 234 0 m 163 0 l 163 986 l 301 986 l 301 0 l 163 0 z "},"Ѥ":{"ha":1147,"x_min":122,"x_max":1072,"o":"m 162 424 l 162 555 l 477 555 l 477 424 l 162 424 m 260 986 l 260 0 l 122 0 l 122 986 l 260 986 m 477 424 l 477 555 l 928 555 l 928 424 l 477 424 m 732 -10 q 552 36 629 -10 q 432 164 475 81 q 389 357 389 247 l 389 628 q 432 822 389 739 q 552 950 475 905 q 732 996 629 996 q 889 960 818 996 q 1007 857 960 923 q 1072 703 1055 791 l 1072 703 l 930 703 l 930 703 q 887 786 918 751 q 817 842 857 822 q 732 861 776 861 q 586 797 642 861 q 531 628 531 733 l 531 357 q 586 189 531 252 q 732 125 642 125 q 854 165 797 125 q 930 283 911 206 l 930 283 l 1072 283 l 1072 283 q 1007 129 1055 195 q 888 26 959 63 q 732 -10 818 -10 z "},"Ѧ":{"ha":899,"x_min":27,"x_max":872,"o":"m 27 0 l 391 986 l 509 986 l 872 0 l 723 0 l 450 795 l 176 0 l 27 0 m 380 0 l 380 362 l 519 362 l 519 0 l 380 0 m 256 329 l 256 460 l 646 460 l 646 329 l 256 329 z "},"Ѩ":{"ha":1200,"x_min":122,"x_max":1173,"o":"m 169 330 l 169 461 l 573 461 l 573 330 l 169 330 m 260 986 l 260 0 l 122 0 l 122 986 l 260 986 m 328 0 l 692 986 l 810 986 l 1173 0 l 1024 0 l 751 795 l 477 0 l 328 0 m 682 0 l 682 362 l 820 362 l 820 0 l 682 0 m 557 329 l 557 460 l 947 460 l 947 329 l 557 329 z "},"Ѫ":{"ha":1020,"x_min":14,"x_max":1006,"o":"m 150 854 l 150 986 l 870 986 l 870 854 l 150 854 m 526 505 l 400 432 l 28 986 l 208 986 l 526 505 m 496 505 l 812 986 l 992 986 l 634 454 l 496 505 m 14 0 l 102 304 q 170 446 128 392 q 263 524 211 499 q 374 549 315 549 l 394 427 q 341 413 367 427 q 295 368 316 399 q 261 286 275 336 l 185 0 l 14 0 m 441 0 l 441 498 l 579 498 l 579 0 l 441 0 m 374 427 l 367 549 l 454 549 l 511 461 l 576 549 l 646 549 l 646 427 l 374 427 m 835 0 l 759 286 q 725 368 746 336 q 679 413 704 399 q 626 427 653 427 l 646 549 q 757 524 705 549 q 850 446 809 499 q 918 304 892 392 l 1006 0 l 835 0 z "},"Ѭ":{"ha":1348,"x_min":122,"x_max":1335,"o":"m 218 427 l 218 549 l 782 549 l 782 427 l 218 427 m 260 986 l 260 0 l 122 0 l 122 986 l 260 986 m 478 854 l 478 986 l 1198 986 l 1198 854 l 478 854 m 854 505 l 728 432 l 356 986 l 536 986 l 854 505 m 825 505 l 1140 986 l 1320 986 l 962 454 l 825 505 m 342 0 l 431 304 q 498 446 456 392 q 591 524 539 499 q 702 549 644 549 l 722 427 q 670 413 695 427 q 624 368 644 399 q 589 286 603 336 l 513 0 l 342 0 m 769 0 l 769 498 l 907 498 l 907 0 l 769 0 m 702 427 l 695 549 l 783 549 l 839 461 l 904 549 l 975 549 l 975 427 l 702 427 m 1163 0 l 1087 286 q 1053 368 1074 336 q 1007 413 1032 399 q 954 427 981 427 l 975 549 q 1085 524 1033 549 q 1179 446 1137 499 q 1246 304 1220 392 l 1335 0 l 1163 0 z "},"Ѯ":{"ha":819,"x_min":75,"x_max":720,"o":"m 566 -286 l 297 -286 q 130 -236 186 -286 q 75 -85 75 -185 q 130 70 75 18 q 297 121 185 121 l 385 121 q 528 162 480 121 q 575 283 575 202 l 575 283 q 537 406 575 366 q 424 447 500 447 l 347 447 l 347 578 l 424 578 q 525 614 491 578 q 559 721 559 650 l 559 721 q 520 828 559 792 q 403 863 481 863 q 283 833 329 863 q 217 741 237 802 l 217 740 l 77 740 l 77 741 q 182 932 102 869 q 396 996 262 996 q 627 931 550 996 q 704 734 704 865 l 704 734 q 689 637 704 680 q 645 564 674 595 q 571 515 615 534 q 683 437 646 496 q 720 276 720 378 l 720 275 q 636 61 720 132 q 385 -10 553 -10 l 296 -10 q 234 -29 255 -10 q 213 -85 213 -48 q 234 -137 213 -119 q 296 -154 255 -154 l 566 -154 l 566 -286 m 414 1053 l 201 1218 l 282 1299 l 414 1198 l 547 1299 l 627 1218 l 414 1053 z "},"Ѱ":{"ha":991,"x_min":109,"x_max":883,"o":"m 495 227 q 210 330 311 227 q 109 621 109 433 l 109 986 l 247 986 l 247 616 q 312 430 247 496 q 495 363 376 363 q 680 430 614 363 q 745 616 745 496 l 745 986 l 883 986 l 883 621 q 781 330 883 433 q 495 227 680 227 m 427 0 l 427 986 l 565 986 l 565 0 l 427 0 z "},"Ѳ":{"ha":897,"x_min":102,"x_max":795,"o":"m 203 424 l 203 555 l 694 555 l 694 424 l 203 424 m 448 -10 q 266 35 344 -10 q 145 162 188 80 q 102 353 102 244 l 102 633 q 145 824 102 743 q 266 951 188 906 q 448 996 344 996 q 631 951 553 996 q 752 824 709 906 q 795 633 795 743 l 795 353 q 752 162 795 244 q 631 35 709 80 q 448 -10 553 -10 m 448 126 q 597 187 541 126 q 653 349 653 248 l 653 637 q 597 799 653 739 q 448 860 541 860 q 300 799 356 860 q 243 637 243 739 l 243 349 q 300 187 243 248 q 448 126 356 126 z "},"Ѵ":{"ha":830,"x_min":20,"x_max":857,"o":"m 342 0 l 20 986 l 171 986 l 408 213 l 588 804 q 651 940 614 889 q 766 991 688 991 l 857 991 l 857 859 l 780 859 q 752 844 761 859 q 736 806 743 829 l 473 0 l 342 0 z "},"Ѷ":{"ha":830,"x_min":20,"x_max":857,"o":"m 296 1047 l 123 1200 l 220 1300 l 387 1134 l 296 1047 m 588 1047 l 415 1200 l 511 1300 l 678 1134 l 588 1047 m 342 0 l 20 986 l 171 986 l 408 213 l 588 804 q 651 940 614 889 q 766 991 688 991 l 857 991 l 857 859 l 780 859 q 752 844 761 859 q 736 806 743 829 l 473 0 l 342 0 z "},"Ѹ":{"ha":1520,"x_min":102,"x_max":1506,"o":"m 448 -10 q 266 35 344 -10 q 145 162 188 80 q 102 353 102 244 l 102 633 q 145 824 102 743 q 266 951 188 906 q 448 996 344 996 q 631 951 553 996 q 752 824 709 906 q 795 633 795 743 l 795 353 q 752 162 795 244 q 631 35 709 80 q 448 -10 553 -10 m 448 126 q 597 187 541 126 q 653 349 653 248 l 653 637 q 597 799 653 739 q 448 860 541 860 q 300 799 356 860 q 243 637 243 739 l 243 349 q 300 187 243 248 q 448 126 356 126 z "},"Ғ":{"ha":817,"x_min":102,"x_max":804,"o":"m 102 424 l 102 555 l 606 555 l 606 424 l 102 424 m 251 0 l 251 986 l 389 986 l 389 0 l 251 0 m 319 854 l 319 986 l 804 986 l 804 854 l 319 854 z "},"Ҕ":{"ha":913,"x_min":122,"x_max":852,"o":"m 468 -184 l 468 -52 l 481 -52 q 655 15 597 -52 q 713 206 713 82 l 713 206 q 658 402 713 333 q 500 471 602 471 q 323 417 386 471 q 260 267 260 364 l 260 189 l 217 230 l 217 303 q 295 525 217 446 q 514 603 373 603 q 764 499 675 603 q 852 208 852 396 l 852 208 q 759 -85 852 14 q 481 -184 667 -184 l 468 -184 m 122 0 l 122 986 l 260 986 l 260 0 l 122 0 m 190 854 l 190 986 l 675 986 l 675 854 l 190 854 z "},"Җ":{"ha":1385,"x_min":14,"x_max":1354,"o":"m 899 420 l 829 541 l 1102 986 l 1276 986 l 899 420 m 1125 0 l 829 434 l 950 505 l 1317 0 l 1125 0 m 14 0 l 380 505 l 502 434 l 205 0 l 14 0 m 431 420 l 55 986 l 229 986 l 501 541 l 431 420 m 380 424 l 380 555 l 951 555 l 951 424 l 380 424 m 596 0 l 596 986 l 734 986 l 734 0 l 596 0 m 1216 132 l 1354 132 l 1354 -204 l 1216 -204 l 1216 132 m 1246 91 l 1284 91 l 1284 0 l 1246 0 l 1246 91 z "},"Ҙ":{"ha":819,"x_min":75,"x_max":734,"o":"m 353 98 l 491 98 l 491 -204 l 353 -204 l 353 98 m 411 -10 q 180 59 269 -10 q 75 252 92 127 l 75 252 l 216 252 l 216 252 q 281 157 229 191 q 418 123 334 123 q 545 165 500 123 q 589 283 589 207 l 589 283 q 550 404 589 361 q 438 447 511 447 l 294 447 l 294 578 l 438 578 q 538 616 503 578 q 573 722 573 654 l 573 728 q 532 829 573 795 q 417 863 492 863 q 298 831 347 863 q 231 741 250 799 l 231 741 l 91 741 l 91 741 q 199 929 115 863 q 410 996 282 996 q 638 931 557 996 q 718 740 718 865 l 718 734 q 684 599 718 656 q 585 515 649 542 q 695 435 656 498 q 734 276 734 373 l 734 275 q 650 64 734 139 q 411 -10 565 -10 z "},"Қ":{"ha":932,"x_min":122,"x_max":916,"o":"m 446 420 l 376 541 l 663 986 l 836 986 l 446 420 m 686 0 l 376 434 l 497 505 l 878 0 l 686 0 m 122 0 l 122 986 l 260 986 l 260 0 l 122 0 m 189 424 l 189 555 l 498 555 l 498 424 l 189 424 m 778 132 l 916 132 l 916 -204 l 778 -204 l 778 132 m 808 91 l 846 91 l 846 0 l 808 0 l 808 91 z "},"Ҝ":{"ha":891,"x_min":122,"x_max":878,"o":"m 122 0 l 122 986 l 260 986 l 260 0 l 122 0 m 507 420 l 437 541 l 663 986 l 836 986 l 507 420 m 686 0 l 441 434 l 558 505 l 878 0 l 686 0 m 189 424 l 189 555 l 559 555 l 559 424 l 189 424 m 317 254 l 317 725 l 414 725 l 414 254 l 317 254 z "},"Ҟ":{"ha":939,"x_min":20,"x_max":925,"o":"m 20 753 l 20 871 l 457 871 l 457 753 l 20 753 m 494 420 l 424 541 l 710 986 l 884 986 l 494 420 m 733 0 l 423 434 l 545 505 l 925 0 l 733 0 m 170 0 l 170 986 l 308 986 l 308 0 l 170 0 m 237 424 l 237 555 l 545 555 l 545 424 l 237 424 z "},"Ҡ":{"ha":1041,"x_min":-20,"x_max":1027,"o":"m 342 854 l -20 854 l -20 986 l 342 986 l 342 854 m 596 420 l 526 541 l 812 986 l 986 986 l 596 420 m 836 0 l 526 434 l 647 505 l 1027 0 l 836 0 m 272 0 l 272 986 l 410 986 l 410 0 l 272 0 m 339 424 l 339 555 l 648 555 l 648 424 l 339 424 z "},"Ң":{"ha":983,"x_min":122,"x_max":953,"o":"m 682 0 l 682 986 l 821 986 l 821 0 l 682 0 m 122 0 l 122 986 l 260 986 l 260 0 l 122 0 m 208 420 l 208 551 l 755 551 l 755 420 l 208 420 m 814 132 l 953 132 l 953 -204 l 814 -204 l 814 132 m 844 91 l 883 91 l 883 0 l 844 0 l 844 91 z "},"Ҥ":{"ha":1168,"x_min":122,"x_max":1154,"o":"m 751 854 l 751 986 l 1154 986 l 1154 854 l 751 854 m 682 0 l 682 986 l 821 986 l 821 0 l 682 0 m 122 0 l 122 986 l 260 986 l 260 0 l 122 0 m 208 420 l 208 551 l 755 551 l 755 420 l 208 420 z "},"Ҧ":{"ha":1466,"x_min":122,"x_max":1405,"o":"m 1028 -184 l 1028 -52 l 1041 -52 q 1210 15 1154 -52 q 1267 206 1267 82 l 1267 206 q 1212 402 1267 333 q 1057 471 1157 471 q 882 417 944 471 q 821 267 821 364 l 821 189 l 777 230 l 777 303 q 854 525 777 446 q 1070 603 931 603 q 1318 499 1230 603 q 1405 208 1405 396 l 1405 208 q 1314 -85 1405 14 q 1041 -184 1223 -184 l 1028 -184 m 682 0 l 682 986 l 821 986 l 821 0 l 682 0 m 122 0 l 122 986 l 260 986 l 260 0 l 122 0 m 208 854 l 208 986 l 755 986 l 755 854 l 208 854 z "},"Ԥ":{"ha":1007,"x_min":122,"x_max":953,"o":"m 682 0 l 682 986 l 821 986 l 821 0 l 682 0 m 122 0 l 122 986 l 260 986 l 260 0 l 122 0 m 208 854 l 208 986 l 755 986 l 755 854 l 208 854 m 814 132 l 953 132 l 953 -204 l 814 -204 l 814 132 m 844 91 l 883 91 l 883 0 l 844 0 l 844 91 z "},"Ҩ":{"ha":1004,"x_min":102,"x_max":916,"o":"m 833 -10 q 493 82 606 -10 q 380 361 380 175 l 380 759 q 439 937 380 878 q 620 996 499 996 q 799 937 739 996 q 859 759 859 878 l 859 361 q 760 97 859 187 q 462 0 661 7 l 462 132 q 656 189 592 132 q 720 361 720 246 l 720 759 q 695 838 720 812 q 619 865 670 865 q 543 838 568 865 q 518 759 518 812 l 518 361 q 596 181 518 241 q 832 121 675 121 l 916 121 l 916 -10 l 833 -10 m 462 0 q 196 93 290 0 q 102 353 102 185 l 102 714 q 171 923 102 849 q 367 996 240 996 l 367 860 q 276 823 308 860 q 243 719 243 787 l 243 349 q 301 189 243 245 q 462 132 358 132 l 462 0 z "},"Ҫ":{"ha":859,"x_min":102,"x_max":785,"o":"m 374 91 l 513 91 l 513 -204 l 374 -204 l 374 91 m 445 -10 q 264 36 342 -10 q 144 164 187 81 q 102 357 102 247 l 102 628 q 144 822 102 739 q 264 950 187 905 q 445 996 342 996 q 601 960 530 996 q 720 857 672 923 q 785 703 768 791 l 785 703 l 643 703 l 643 703 q 600 786 630 751 q 529 842 570 822 q 445 861 488 861 q 299 797 354 861 q 243 628 243 733 l 243 357 q 299 189 243 252 q 445 125 354 125 q 566 165 509 125 q 643 283 623 206 l 643 283 l 785 283 l 785 283 q 720 129 768 195 q 601 26 671 63 q 445 -10 530 -10 z "},"Ҭ":{"ha":669,"x_min":-14,"x_max":682,"o":"m 265 0 l 265 905 l 404 905 l 404 0 l 265 0 m -14 854 l -14 986 l 682 986 l 682 854 l -14 854 m 397 132 l 536 132 l 536 -204 l 397 -204 l 397 132 m 427 91 l 466 91 l 466 0 l 427 0 l 427 91 z "},"Ү":{"ha":699,"x_min":-20,"x_max":719,"o":"m 719 986 l 418 401 l 418 0 l 280 0 l 280 401 l -20 986 l 134 986 l 349 541 l 565 986 l 719 986 z "},"Ұ":{"ha":699,"x_min":-20,"x_max":719,"o":"m 117 274 l 117 399 l 581 399 l 581 274 l 117 274 m 719 986 l 418 401 l 418 0 l 280 0 l 280 401 l -20 986 l 134 986 l 349 541 l 565 986 l 719 986 z "},"Ҳ":{"ha":829,"x_min":14,"x_max":830,"o":"m 619 0 l 363 433 l 342 467 l 22 986 l 177 986 l 415 585 l 437 548 l 774 0 l 619 0 m 14 0 l 357 564 l 604 986 l 760 986 l 433 452 l 169 0 l 14 0 m 692 132 l 830 132 l 830 -204 l 692 -204 l 692 132 m 722 91 l 760 91 l 760 0 l 722 0 l 722 91 z "},"Ҵ":{"ha":1076,"x_min":-14,"x_max":1021,"o":"m 751 0 l 751 986 l 889 986 l 889 0 l 751 0 m 351 0 l 351 132 l 824 132 l 824 0 l 351 0 m 265 0 l 265 905 l 404 905 l 404 0 l 265 0 m 883 -204 l 883 132 l 1021 132 l 1021 -204 l 883 -204 m -14 854 l -14 986 l 621 986 l 621 854 l -14 854 z "},"Ҷ":{"ha":933,"x_min":95,"x_max":879,"o":"m 609 0 l 609 986 l 747 986 l 747 0 l 609 0 m 393 309 q 173 390 251 309 q 95 621 95 472 l 95 986 l 233 986 l 233 616 q 279 490 233 534 q 407 445 324 445 q 556 493 503 445 q 609 630 609 542 l 609 708 l 652 708 l 652 635 q 585 394 652 479 q 393 309 517 309 m 741 132 l 879 132 l 879 -204 l 741 -204 l 741 132 m 770 91 l 809 91 l 809 0 l 770 0 l 770 91 z "},"Ҹ":{"ha":869,"x_min":95,"x_max":747,"o":"m 364 166 l 364 637 l 462 637 l 462 166 l 364 166 m 609 0 l 609 986 l 747 986 l 747 0 l 609 0 m 393 309 q 173 390 251 309 q 95 621 95 472 l 95 986 l 233 986 l 233 616 q 279 490 233 534 q 407 445 324 445 q 556 493 503 445 q 609 630 609 542 l 609 708 l 652 708 l 652 635 q 585 394 652 479 q 393 309 517 309 z "},"Һ":{"ha":917,"x_min":122,"x_max":815,"o":"m 677 0 l 677 379 q 630 528 677 479 q 490 578 583 578 q 317 532 374 578 q 260 393 260 486 l 217 388 q 292 633 217 552 q 517 714 367 714 q 741 629 667 714 q 815 374 815 545 l 815 0 l 677 0 m 122 0 l 122 986 l 260 986 l 260 0 l 122 0 z "},"Ҽ":{"ha":1036,"x_min":41,"x_max":954,"o":"m 635 -10 q 385 78 474 -10 q 296 326 296 166 l 296 660 q 381 908 296 820 q 622 996 467 996 q 863 908 778 996 q 948 660 948 820 l 948 420 l 430 420 l 430 552 l 806 552 l 806 658 q 758 807 806 754 q 622 860 710 860 q 486 807 534 860 q 437 658 437 754 l 437 321 q 489 177 437 229 q 635 126 541 126 q 762 154 704 126 q 857 233 819 182 l 857 233 l 954 142 l 954 142 q 809 30 892 70 q 635 -10 726 -10 m 207 420 q 83 462 126 420 q 41 578 41 504 l 41 669 l 176 669 l 176 592 q 229 552 176 552 l 367 552 l 367 420 l 207 420 z "},"Ҿ":{"ha":1036,"x_min":41,"x_max":954,"o":"m 556 91 l 694 91 l 694 -204 l 556 -204 l 556 91 m 635 -10 q 385 78 474 -10 q 296 326 296 166 l 296 660 q 381 908 296 820 q 622 996 467 996 q 863 908 778 996 q 948 660 948 820 l 948 420 l 430 420 l 430 552 l 806 552 l 806 658 q 758 807 806 754 q 622 860 710 860 q 486 807 534 860 q 437 658 437 754 l 437 321 q 489 177 437 229 q 635 126 541 126 q 762 154 704 126 q 857 233 819 182 l 857 233 l 954 142 l 954 142 q 809 30 892 70 q 635 -10 726 -10 m 207 420 q 83 462 126 420 q 41 578 41 504 l 41 669 l 176 669 l 176 592 q 229 552 176 552 l 367 552 l 367 420 l 207 420 z "},"Ӏ":{"ha":382,"x_min":122,"x_max":260,"o":"m 260 986 l 260 0 l 122 0 l 122 986 l 260 986 z "},"Ӂ":{"ha":1331,"x_min":14,"x_max":1317,"o":"m 899 420 l 829 541 l 1102 986 l 1276 986 l 899 420 m 1125 0 l 829 434 l 950 505 l 1317 0 l 1125 0 m 14 0 l 380 505 l 502 434 l 205 0 l 14 0 m 431 420 l 55 986 l 229 986 l 501 541 l 431 420 m 380 424 l 380 555 l 951 555 l 951 424 l 380 424 m 596 0 l 596 986 l 734 986 l 734 0 l 596 0 z "},"Ӄ":{"ha":901,"x_min":122,"x_max":840,"o":"m 480 -286 l 480 -154 l 489 -154 q 649 -82 597 -154 q 701 142 701 -11 l 701 142 q 642 354 701 283 q 464 424 583 424 l 444 424 l 396 555 l 471 555 q 742 453 644 555 q 840 143 840 351 l 840 143 q 754 -184 840 -82 q 489 -286 669 -286 l 480 -286 m 122 0 l 122 986 l 260 986 l 260 0 l 122 0 m 189 424 l 189 555 l 484 555 l 463 424 l 189 424 m 439 437 l 356 541 l 622 986 l 795 986 l 439 437 z "},"Ӆ":{"ha":1017,"x_min":81,"x_max":1004,"o":"m 811 -204 l 851 45 l 865 0 l 830 0 l 830 132 l 1004 132 l 949 -204 l 811 -204 m 81 0 l 81 132 l 81 132 q 210 194 170 132 q 250 395 250 256 l 250 986 l 389 986 l 389 404 q 319 96 389 191 q 95 0 250 0 l 81 0 m 736 0 l 736 986 l 874 986 l 874 0 l 736 0 m 336 854 l 336 986 l 809 986 l 809 854 l 336 854 z "},"Ӈ":{"ha":943,"x_min":122,"x_max":821,"o":"m 122 0 l 122 986 l 260 986 l 260 0 l 122 0 m 565 -286 l 565 -155 l 642 -155 q 672 -140 662 -155 q 682 -101 682 -126 l 682 155 l 821 155 l 821 -100 q 778 -237 821 -189 q 656 -286 734 -286 l 565 -286 m 208 420 l 208 551 l 755 551 l 755 420 l 208 420 m 682 58 l 682 986 l 821 986 l 821 58 l 682 58 z "},"Ӊ":{"ha":964,"x_min":122,"x_max":950,"o":"m 758 -204 l 798 45 l 811 0 l 777 0 l 777 132 l 950 132 l 896 -204 l 758 -204 m 682 0 l 682 986 l 821 986 l 821 0 l 682 0 m 122 0 l 122 986 l 260 986 l 260 0 l 122 0 m 208 420 l 208 551 l 755 551 l 755 420 l 208 420 z "},"Ӌ":{"ha":869,"x_min":95,"x_max":747,"o":"m 476 -204 l 476 132 l 614 132 l 614 -204 l 476 -204 m 609 0 l 609 986 l 747 986 l 747 0 l 609 0 m 393 309 q 173 390 251 309 q 95 621 95 472 l 95 986 l 233 986 l 233 616 q 279 490 233 534 q 407 445 324 445 q 556 493 503 445 q 609 630 609 542 l 609 708 l 652 708 l 652 635 q 585 394 652 479 q 393 309 517 309 z "},"Ӎ":{"ha":1103,"x_min":122,"x_max":1090,"o":"m 897 -204 l 937 45 l 951 0 l 916 0 l 916 132 l 1090 132 l 1036 -204 l 897 -204 m 541 335 l 831 986 l 960 986 l 960 0 l 825 0 l 825 739 l 832 695 l 589 137 l 493 137 l 250 682 l 257 739 l 257 0 l 122 0 l 122 986 l 252 986 l 541 335 z "},"Ӑ":{"ha":899,"x_min":27,"x_max":872,"o":"m 27 0 l 391 986 l 509 986 l 872 0 l 723 0 l 450 795 l 176 0 l 27 0 m 195 216 l 195 348 l 713 348 l 713 216 l 195 216 z "},"Ӓ":{"ha":899,"x_min":27,"x_max":872,"o":"m 27 0 l 391 986 l 509 986 l 872 0 l 723 0 l 450 795 l 176 0 l 27 0 m 195 216 l 195 348 l 713 348 l 713 216 l 195 216 m 519 1067 l 519 1205 l 658 1205 l 658 1067 l 519 1067 m 241 1067 l 241 1205 l 380 1205 l 380 1067 l 241 1067 z "},"Ӕ":{"ha":1356,"x_min":0,"x_max":1282,"o":"m 0 0 l 547 986 l 696 986 l 154 0 l 0 0 m 241 215 l 241 347 l 719 347 l 719 215 l 241 215 m 648 0 l 648 986 l 787 986 l 787 0 l 648 0 m 715 0 l 715 132 l 1282 132 l 1282 0 l 715 0 m 715 424 l 715 555 l 1207 555 l 1207 424 l 715 424 m 715 854 l 715 986 l 1282 986 l 1282 854 l 715 854 z "},"Ӗ":{"ha":830,"x_min":122,"x_max":755,"o":"m 122 0 l 122 986 l 260 986 l 260 0 l 122 0 m 189 0 l 189 132 l 755 132 l 755 0 l 189 0 m 189 424 l 189 555 l 681 555 l 681 424 l 189 424 m 189 854 l 189 986 l 755 986 l 755 854 l 189 854 z "},"Ә":{"ha":869,"x_min":109,"x_max":767,"o":"m 441 -10 q 200 78 286 -10 q 115 326 115 166 l 115 538 l 667 538 l 667 407 l 256 407 l 256 328 q 304 179 256 232 q 441 126 353 126 q 577 179 529 126 q 625 328 625 232 l 625 665 q 574 809 625 758 q 427 860 522 860 q 301 830 359 860 q 206 746 243 800 l 206 746 l 109 844 l 109 844 q 254 956 170 916 q 427 996 337 996 q 678 908 589 996 q 767 660 767 820 l 767 326 q 682 78 767 166 q 441 -10 597 -10 z "},"Ӛ":{"ha":869,"x_min":109,"x_max":767,"o":"m 441 -10 q 200 78 286 -10 q 115 326 115 166 l 115 538 l 667 538 l 667 407 l 256 407 l 256 328 q 304 179 256 232 q 441 126 353 126 q 577 179 529 126 q 625 328 625 232 l 625 665 q 574 809 625 758 q 427 860 522 860 q 301 830 359 860 q 206 746 243 800 l 206 746 l 109 844 l 109 844 q 254 956 170 916 q 427 996 337 996 q 678 908 589 996 q 767 660 767 820 l 767 326 q 682 78 767 166 q 441 -10 597 -10 m 508 1067 l 508 1205 l 646 1205 l 646 1067 l 508 1067 m 230 1067 l 230 1205 l 368 1205 l 368 1067 l 230 1067 z "},"Ӝ":{"ha":1331,"x_min":14,"x_max":1317,"o":"m 899 420 l 829 541 l 1102 986 l 1276 986 l 899 420 m 1125 0 l 829 434 l 950 505 l 1317 0 l 1125 0 m 14 0 l 380 505 l 502 434 l 205 0 l 14 0 m 431 420 l 55 986 l 229 986 l 501 541 l 431 420 m 380 424 l 380 555 l 951 555 l 951 424 l 380 424 m 596 0 l 596 986 l 734 986 l 734 0 l 596 0 m 735 1067 l 735 1205 l 873 1205 l 873 1067 l 735 1067 m 457 1067 l 457 1205 l 595 1205 l 595 1067 l 457 1067 z "},"Ӟ":{"ha":819,"x_min":75,"x_max":734,"o":"m 411 -10 q 180 59 269 -10 q 75 252 92 127 l 75 252 l 216 252 l 216 252 q 281 157 229 191 q 418 123 334 123 q 545 165 500 123 q 589 283 589 207 l 589 283 q 550 404 589 361 q 438 447 511 447 l 294 447 l 294 578 l 438 578 q 538 616 503 578 q 573 722 573 654 l 573 728 q 532 829 573 795 q 417 863 492 863 q 298 831 347 863 q 231 741 250 799 l 231 741 l 91 741 l 91 741 q 199 929 115 863 q 410 996 282 996 q 638 931 557 996 q 718 740 718 865 l 718 734 q 684 599 718 656 q 585 515 649 542 q 695 435 656 498 q 734 276 734 373 l 734 275 q 650 64 734 139 q 411 -10 565 -10 m 492 1067 l 492 1205 l 630 1205 l 630 1067 l 492 1067 m 214 1067 l 214 1205 l 352 1205 l 352 1067 l 214 1067 z "},"Ӡ":{"ha":819,"x_min":75,"x_max":734,"o":"m 411 -10 q 177 55 261 -10 q 75 252 94 121 l 75 253 l 216 253 l 216 252 q 279 155 229 187 q 418 123 330 123 q 547 163 504 123 q 589 286 589 204 l 589 287 q 543 417 589 374 q 404 460 497 460 l 290 460 l 290 564 l 404 592 q 652 517 570 592 q 734 290 734 441 l 734 289 q 654 64 734 139 q 411 -10 573 -10 m 290 564 l 537 854 l 137 854 l 137 986 l 704 986 l 704 867 l 441 538 l 290 564 z "},"Ӣ":{"ha":972,"x_min":122,"x_max":850,"o":"m 850 1 l 713 1 l 713 776 l 730 758 l 235 1 l 122 1 l 122 986 l 259 986 l 259 199 l 243 217 l 739 986 l 850 986 l 850 1 m 235 1202 l 730 1202 l 730 1067 l 235 1067 l 235 1202 z "},"Ӥ":{"ha":972,"x_min":122,"x_max":850,"o":"m 850 1 l 713 1 l 713 776 l 730 758 l 235 1 l 122 1 l 122 986 l 259 986 l 259 199 l 243 217 l 739 986 l 850 986 l 850 1 m 553 1067 l 553 1205 l 691 1205 l 691 1067 l 553 1067 m 275 1067 l 275 1205 l 413 1205 l 413 1067 l 275 1067 z "},"Ӧ":{"ha":897,"x_min":102,"x_max":795,"o":"m 448 -10 q 266 35 344 -10 q 145 162 188 80 q 102 353 102 244 l 102 633 q 145 824 102 743 q 266 951 188 906 q 448 996 344 996 q 631 951 553 996 q 752 824 709 906 q 795 633 795 743 l 795 353 q 752 162 795 244 q 631 35 709 80 q 448 -10 553 -10 m 448 126 q 597 187 541 126 q 653 349 653 248 l 653 637 q 597 799 653 739 q 448 860 541 860 q 300 799 356 860 q 243 637 243 739 l 243 349 q 300 187 243 248 q 448 126 356 126 m 518 1067 l 518 1205 l 656 1205 l 656 1067 l 518 1067 m 240 1067 l 240 1205 l 378 1205 l 378 1067 l 240 1067 z "},"Ө":{"ha":897,"x_min":102,"x_max":795,"o":"m 203 424 l 203 555 l 694 555 l 694 424 l 203 424 m 448 -10 q 266 35 344 -10 q 145 162 188 80 q 102 353 102 244 l 102 633 q 145 824 102 743 q 266 951 188 906 q 448 996 344 996 q 631 951 553 996 q 752 824 709 906 q 795 633 795 743 l 795 353 q 752 162 795 244 q 631 35 709 80 q 448 -10 553 -10 m 448 126 q 597 187 541 126 q 653 349 653 248 l 653 637 q 597 799 653 739 q 448 860 541 860 q 300 799 356 860 q 243 637 243 739 l 243 349 q 300 187 243 248 q 448 126 356 126 z "},"Ӫ":{"ha":897,"x_min":102,"x_max":795,"o":"m 203 424 l 203 555 l 694 555 l 694 424 l 203 424 m 448 -10 q 266 35 344 -10 q 145 162 188 80 q 102 353 102 244 l 102 633 q 145 824 102 743 q 266 951 188 906 q 448 996 344 996 q 631 951 553 996 q 752 824 709 906 q 795 633 795 743 l 795 353 q 752 162 795 244 q 631 35 709 80 q 448 -10 553 -10 m 448 126 q 597 187 541 126 q 653 349 653 248 l 653 637 q 597 799 653 739 q 448 860 541 860 q 300 799 356 860 q 243 637 243 739 l 243 349 q 300 187 243 248 q 448 126 356 126 m 518 1067 l 518 1205 l 656 1205 l 656 1067 l 518 1067 m 240 1067 l 240 1205 l 378 1205 l 378 1067 l 240 1067 z "},"Ӭ":{"ha":859,"x_min":75,"x_max":758,"o":"m 414 -10 q 259 26 330 -10 q 140 129 188 63 q 75 283 92 195 l 75 283 l 216 283 l 216 283 q 293 165 236 206 q 414 125 350 125 q 561 189 505 125 q 616 357 616 252 l 616 628 q 561 797 616 733 q 414 861 505 861 q 331 842 371 861 q 260 786 290 822 q 216 703 229 751 l 216 703 l 75 703 l 75 703 q 139 857 92 791 q 258 960 187 923 q 414 996 329 996 q 595 950 518 996 q 715 822 672 905 q 758 628 758 739 l 758 357 q 715 164 758 247 q 595 36 672 81 q 414 -10 518 -10 m 219 424 l 219 555 l 670 555 l 670 424 l 219 424 m 483 1067 l 483 1205 l 621 1205 l 621 1067 l 483 1067 m 205 1067 l 205 1205 l 343 1205 l 343 1067 l 205 1067 z "},"Ӯ":{"ha":848,"x_min":41,"x_max":827,"o":"m 398 170 l 41 986 l 198 986 l 488 280 l 398 170 m 827 986 l 539 204 q 443 45 500 100 q 292 -10 386 -10 l 178 -10 l 178 126 l 292 126 q 371 160 340 126 q 425 258 402 193 l 677 986 l 827 986 m 190 1202 l 685 1202 l 685 1067 l 190 1067 l 190 1202 z "},"Ӱ":{"ha":848,"x_min":41,"x_max":827,"o":"m 398 170 l 41 986 l 198 986 l 488 280 l 398 170 m 827 986 l 539 204 q 443 45 500 100 q 292 -10 386 -10 l 178 -10 l 178 126 l 292 126 q 371 160 340 126 q 425 258 402 193 l 677 986 l 827 986 m 507 1067 l 507 1205 l 646 1205 l 646 1067 l 507 1067 m 229 1067 l 229 1205 l 368 1205 l 368 1067 l 229 1067 z "},"Ӳ":{"ha":848,"x_min":41,"x_max":827,"o":"m 398 170 l 41 986 l 198 986 l 488 280 l 398 170 m 827 986 l 539 204 q 443 45 500 100 q 292 -10 386 -10 l 178 -10 l 178 126 l 292 126 q 371 160 340 126 q 425 258 402 193 l 677 986 l 827 986 m 572 1047 l 489 1127 l 642 1300 l 739 1207 l 572 1047 m 301 1047 l 218 1127 l 371 1300 l 467 1207 l 301 1047 z "},"Ӵ":{"ha":869,"x_min":95,"x_max":747,"o":"m 609 0 l 609 986 l 747 986 l 747 0 l 609 0 m 393 309 q 173 390 251 309 q 95 621 95 472 l 95 986 l 233 986 l 233 616 q 279 490 233 534 q 407 445 324 445 q 556 493 503 445 q 609 630 609 542 l 609 708 l 652 708 l 652 635 q 585 394 652 479 q 393 309 517 309 m 491 1067 l 491 1205 l 629 1205 l 629 1067 l 491 1067 m 213 1067 l 213 1205 l 351 1205 l 351 1067 l 213 1067 z "},"Ӷ":{"ha":688,"x_min":122,"x_max":675,"o":"m 122 0 l 122 986 l 260 986 l 260 0 l 122 0 m 190 854 l 190 986 l 675 986 l 675 854 l 190 854 m 254 132 l 392 132 l 392 -204 l 254 -204 l 254 132 m 283 91 l 322 91 l 322 0 l 283 0 l 283 91 z "},"Ӹ":{"ha":1160,"x_min":122,"x_max":1038,"o":"m 193 0 l 193 132 l 478 132 q 589 174 549 132 q 628 294 628 216 l 628 294 q 589 416 628 373 q 478 458 549 458 l 193 458 l 193 590 l 473 590 q 634 555 568 590 q 735 454 700 520 q 770 294 770 389 l 770 294 q 735 135 770 201 q 634 35 700 69 q 473 0 568 0 l 193 0 m 122 0 l 122 986 l 260 986 l 260 0 l 122 0 m 1038 986 l 1038 0 l 900 0 l 900 986 l 1038 986 m 651 1067 l 651 1205 l 789 1205 l 789 1067 l 651 1067 m 373 1067 l 373 1205 l 511 1205 l 511 1067 l 373 1067 z "},"Ӻ":{"ha":817,"x_min":102,"x_max":804,"o":"m 251 -194 l 251 -62 l 328 -62 q 368 -9 368 -62 l 368 91 l 507 91 l 507 -7 q 464 -145 507 -96 q 342 -194 420 -194 l 251 -194 m 251 0 l 251 986 l 389 986 l 389 0 l 251 0 m 319 854 l 319 986 l 804 986 l 804 854 l 319 854 m 102 424 l 102 555 l 606 555 l 606 424 l 102 424 z "},"Ӽ":{"ha":800,"x_min":14,"x_max":760,"o":"m 553 -286 l 553 -155 q 610 -140 593 -155 q 627 -90 627 -125 q 611 -17 627 -60 q 561 90 595 26 q 475 243 528 153 l 363 433 l 344 465 l 22 986 l 177 986 l 415 585 l 437 548 l 579 323 q 681 151 642 224 q 740 18 721 77 q 758 -94 758 -41 q 738 -207 758 -164 q 673 -268 718 -249 q 553 -286 629 -286 m 14 0 l 357 564 l 604 986 l 760 986 l 433 452 l 169 0 l 14 0 z "},"Ӿ":{"ha":788,"x_min":14,"x_max":774,"o":"m 87 441 l 87 559 l 701 559 l 701 441 l 87 441 m 619 0 l 363 433 l 342 467 l 22 986 l 177 986 l 415 585 l 437 548 l 774 0 l 619 0 m 14 0 l 357 564 l 604 986 l 760 986 l 433 452 l 169 0 l 14 0 z "},"Ҁ":{"ha":900,"x_min":102,"x_max":825,"o":"m 499 200 q 205 300 309 200 q 102 581 102 399 l 102 594 q 202 891 102 786 q 486 996 302 996 q 646 962 576 996 q 762 862 715 928 q 825 703 808 797 l 825 703 l 684 703 l 684 703 q 612 820 663 779 q 486 861 560 861 q 307 791 370 861 q 243 594 243 722 l 243 581 q 310 399 243 464 q 499 335 377 335 l 499 200 m 429 0 l 429 335 l 567 335 l 567 0 l 429 0 z "},"Ҍ":{"ha":922,"x_min":41,"x_max":838,"o":"m 41 746 l 41 871 l 511 871 l 511 746 l 41 746 m 234 0 l 234 132 l 546 132 q 656 174 617 132 q 696 294 696 216 l 696 294 q 656 416 696 373 q 546 458 617 458 l 234 458 l 234 590 l 541 590 q 702 555 635 590 q 803 454 768 520 q 838 294 838 389 l 838 294 q 803 135 838 201 q 702 35 768 69 q 541 0 635 0 l 234 0 m 163 0 l 163 986 l 301 986 l 301 0 l 163 0 z "},"Ҏ":{"ha":865,"x_min":122,"x_max":800,"o":"m 663 227 l 402 614 l 498 680 l 760 292 l 663 227 m 193 382 l 193 514 l 509 514 q 617 561 576 514 q 659 684 659 608 l 659 684 q 617 808 659 761 q 509 854 576 854 l 193 854 l 193 986 l 504 986 q 660 948 593 986 q 763 843 726 911 q 800 684 800 775 l 800 684 q 763 525 800 593 q 660 420 726 457 q 504 382 593 382 l 193 382 m 122 0 l 122 986 l 260 986 l 260 0 l 122 0 z "},"а":{"ha":739,"x_min":75,"x_max":637,"o":"m 506 0 l 506 446 q 469 554 506 515 q 364 592 432 592 q 282 579 323 592 q 210 543 242 567 l 109 612 q 215 687 149 661 q 360 714 280 714 q 565 646 492 714 q 637 452 637 577 l 637 0 l 506 0 m 334 -10 q 139 43 204 -10 q 75 208 75 97 q 134 365 75 313 q 312 416 193 416 l 512 416 l 522 305 l 313 305 q 232 281 259 305 q 205 208 205 257 q 241 128 205 154 q 349 102 277 102 q 467 119 427 102 q 506 172 506 136 l 520 73 q 475 26 502 45 q 413 -1 448 8 q 334 -10 378 -10 z "},"б":{"ha":777,"x_min":109,"x_max":689,"o":"m 399 -10 q 184 70 260 -10 q 109 296 109 151 l 109 384 l 206 527 q 278 646 222 606 q 426 687 333 687 q 620 608 551 687 q 689 384 689 528 l 689 294 q 613 70 689 149 q 399 -10 537 -10 m 398 121 q 511 167 471 121 q 551 294 551 212 l 551 384 q 511 511 551 466 q 398 555 471 555 q 287 511 326 555 q 247 384 247 466 l 247 294 q 287 167 247 212 q 398 121 326 121 m 109 376 l 109 636 q 184 851 109 780 q 411 923 260 922 q 498 939 469 924 q 527 986 527 955 l 655 986 q 597 850 655 895 q 422 805 539 805 q 286 766 331 805 q 240 650 240 728 l 240 376 l 109 376 z "},"в":{"ha":751,"x_min":109,"x_max":676,"o":"m 190 0 l 190 125 l 450 125 q 514 148 492 125 q 536 213 536 172 l 536 215 q 514 283 536 259 q 450 308 492 308 l 190 308 l 190 433 l 450 433 q 524 500 524 433 l 524 500 q 452 579 524 579 l 190 579 l 190 704 l 456 704 q 609 658 555 704 q 663 529 663 612 l 663 529 q 623 423 663 465 q 511 370 583 381 q 633 306 589 355 q 676 182 676 256 l 676 180 q 618 47 676 94 q 454 0 560 0 l 190 0 m 109 0 l 109 704 l 246 704 l 246 0 l 109 0 z "},"г":{"ha":593,"x_min":109,"x_max":559,"o":"m 109 0 l 109 704 l 247 704 l 247 0 l 109 0 m 176 572 l 176 704 l 559 704 l 559 572 l 176 572 z "},"ѓ":{"ha":593,"x_min":109,"x_max":559,"o":"m 109 0 l 109 704 l 247 704 l 247 0 l 109 0 m 176 572 l 176 704 l 559 704 l 559 572 l 176 572 m 353 840 l 266 909 l 460 1150 l 559 1067 l 353 840 z "},"ґ":{"ha":593,"x_min":109,"x_max":559,"o":"m 421 604 l 421 826 l 559 826 l 559 604 l 421 604 m 109 0 l 109 704 l 247 704 l 247 0 l 109 0 m 176 572 l 176 704 l 559 704 l 559 572 l 176 572 z "},"д":{"ha":875,"x_min":61,"x_max":821,"o":"m 134 54 l 86 125 l 102 125 q 167 148 145 125 q 196 221 189 172 q 203 348 203 271 l 203 704 l 342 704 l 342 302 q 292 117 342 179 q 150 54 241 54 l 134 54 m 61 -177 l 61 125 l 199 125 l 199 -177 l 61 -177 m 61 0 l 61 125 l 739 125 l 739 0 l 61 0 m 682 -177 l 682 125 l 821 125 l 821 -177 l 682 -177 m 557 0 l 557 704 l 695 704 l 695 0 l 557 0 m 290 579 l 290 704 l 603 704 l 603 579 l 290 579 z "},"е":{"ha":745,"x_min":88,"x_max":663,"o":"m 397 -10 q 169 72 250 -10 q 88 305 88 154 l 88 385 q 166 628 88 542 q 385 714 243 714 q 590 616 517 714 q 663 342 663 519 l 663 296 l 189 296 l 189 408 l 532 408 l 532 408 q 487 541 526 493 q 385 589 449 589 q 263 538 307 589 q 220 392 220 486 l 220 302 q 266 168 220 215 q 397 121 313 121 q 480 138 439 121 q 554 186 522 155 l 554 186 l 645 95 l 645 95 q 528 17 593 45 q 397 -10 463 -10 z "},"ѐ":{"ha":745,"x_min":88,"x_max":663,"o":"m 397 -10 q 169 72 250 -10 q 88 305 88 154 l 88 385 q 166 628 88 542 q 385 714 243 714 q 590 616 517 714 q 663 342 663 519 l 663 296 l 189 296 l 189 408 l 532 408 l 532 408 q 487 541 526 493 q 385 589 449 589 q 263 538 307 589 q 220 392 220 486 l 220 302 q 266 168 220 215 q 397 121 313 121 q 480 138 439 121 q 554 186 522 155 l 554 186 l 645 95 l 645 95 q 528 17 593 45 q 397 -10 463 -10 m 360 840 l 153 1067 l 253 1150 l 447 909 l 360 840 z "},"ё":{"ha":745,"x_min":88,"x_max":663,"o":"m 397 -10 q 169 72 250 -10 q 88 305 88 154 l 88 385 q 166 628 88 542 q 385 714 243 714 q 590 616 517 714 q 663 342 663 519 l 663 296 l 189 296 l 189 408 l 532 408 l 532 408 q 487 541 526 493 q 385 589 449 589 q 263 538 307 589 q 220 392 220 486 l 220 302 q 266 168 220 215 q 397 121 313 121 q 480 138 439 121 q 554 186 522 155 l 554 186 l 645 95 l 645 95 q 528 17 593 45 q 397 -10 463 -10 m 450 848 l 450 986 l 588 986 l 588 848 l 450 848 m 165 848 l 165 986 l 303 986 l 303 848 l 165 848 z "},"ж":{"ha":993,"x_min":0,"x_max":993,"o":"m 814 0 l 627 304 l 728 375 l 993 0 l 814 0 m 0 0 l 265 375 l 366 304 l 178 0 l 0 0 m 316 290 l 41 704 l 201 704 l 372 411 l 316 290 m 427 0 l 427 704 l 566 704 l 566 0 l 427 0 m 264 297 l 264 422 l 728 422 l 728 297 l 264 297 m 677 290 l 621 411 l 791 704 l 951 704 l 677 290 z "},"з":{"ha":661,"x_min":61,"x_max":589,"o":"m 329 -10 q 149 44 218 -10 q 65 199 79 99 l 65 199 l 199 199 l 199 199 q 240 138 207 159 q 327 116 274 116 q 418 142 386 116 q 451 215 451 168 l 451 216 q 428 273 451 252 q 361 293 404 293 l 250 293 l 250 411 l 361 411 q 410 432 393 411 q 428 491 428 453 l 428 492 q 400 563 428 538 q 319 588 372 588 q 239 566 271 588 q 195 505 206 545 l 195 505 l 61 505 l 61 505 q 150 660 81 605 q 326 714 219 714 q 504 665 441 714 q 566 525 566 615 l 566 524 q 538 425 566 467 q 460 363 511 382 q 556 314 522 354 q 589 208 589 273 l 589 208 q 521 47 589 104 q 329 -10 453 -10 z "},"и":{"ha":796,"x_min":109,"x_max":688,"o":"m 688 1 l 551 1 l 551 500 l 567 483 l 229 1 l 109 1 l 109 704 l 245 704 l 245 193 l 229 210 l 569 704 l 688 704 l 688 1 z "},"й":{"ha":796,"x_min":109,"x_max":688,"o":"m 688 1 l 551 1 l 551 500 l 567 483 l 229 1 l 109 1 l 109 704 l 245 704 l 245 193 l 229 210 l 569 704 l 688 704 l 688 1 z "},"ѝ":{"ha":796,"x_min":109,"x_max":688,"o":"m 688 1 l 551 1 l 551 500 l 567 483 l 229 1 l 109 1 l 109 704 l 245 704 l 245 193 l 229 210 l 569 704 l 688 704 l 688 1 m 382 840 l 175 1067 l 275 1150 l 469 909 l 382 840 z "},"ҋ":{"ha":823,"x_min":109,"x_max":810,"o":"m 671 132 l 810 132 l 755 -177 l 617 -177 l 649 3 l 671 132 m 688 1 l 551 1 l 551 500 l 567 483 l 229 1 l 109 1 l 109 704 l 245 704 l 245 193 l 229 210 l 569 704 l 688 704 l 688 1 m 392 838 q 240 898 291 838 q 190 1080 190 959 l 190 1080 l 301 1080 l 301 1080 q 392 945 301 945 l 404 945 q 495 1080 495 945 l 495 1080 l 606 1080 l 606 1080 q 556 898 606 959 q 404 838 505 838 l 392 838 z "},"к":{"ha":715,"x_min":109,"x_max":715,"o":"m 378 283 l 315 404 l 507 704 l 673 704 l 378 283 m 109 0 l 109 704 l 247 704 l 247 0 l 109 0 m 530 0 l 321 297 l 429 368 l 715 0 l 530 0 m 176 287 l 176 418 l 430 418 l 430 287 l 176 287 z "},"ќ":{"ha":715,"x_min":109,"x_max":715,"o":"m 378 283 l 315 404 l 507 704 l 673 704 l 378 283 m 109 0 l 109 704 l 247 704 l 247 0 l 109 0 m 530 0 l 321 297 l 429 368 l 715 0 l 530 0 m 176 287 l 176 418 l 430 418 l 430 287 l 176 287 m 369 840 l 282 909 l 476 1150 l 576 1067 l 369 840 z "},"л":{"ha":781,"x_min":61,"x_max":672,"o":"m 61 -6 l 61 125 q 145 175 115 125 q 176 315 176 224 l 176 704 l 314 704 l 314 296 q 251 73 314 151 q 75 -6 189 -6 l 61 -6 m 534 0 l 534 704 l 672 704 l 672 0 l 534 0 m 262 572 l 262 704 l 607 704 l 607 572 l 262 572 z "},"м":{"ha":879,"x_min":109,"x_max":770,"o":"m 439 315 l 648 704 l 770 704 l 770 0 l 646 0 l 646 497 l 652 454 l 481 137 l 398 137 l 227 454 l 233 497 l 233 0 l 109 0 l 109 704 l 231 704 l 439 315 z "},"н":{"ha":800,"x_min":109,"x_max":692,"o":"m 553 0 l 553 704 l 692 704 l 692 0 l 553 0 m 109 0 l 109 704 l 247 704 l 247 0 l 109 0 m 195 283 l 195 408 l 627 408 l 627 283 l 195 283 z "},"о":{"ha":757,"x_min":88,"x_max":669,"o":"m 378 -10 q 164 70 240 -10 q 88 296 88 151 l 88 411 q 164 635 88 555 q 378 714 240 714 q 593 635 517 714 q 669 411 669 555 l 669 294 q 593 70 669 149 q 378 -10 517 -10 m 378 121 q 491 167 451 121 q 530 294 530 212 l 530 411 q 491 538 530 493 q 378 583 451 583 q 267 538 307 583 q 227 411 227 493 l 227 294 q 267 167 227 212 q 378 121 307 121 z "},"п":{"ha":800,"x_min":109,"x_max":692,"o":"m 553 0 l 553 704 l 692 704 l 692 0 l 553 0 m 109 0 l 109 704 l 247 704 l 247 0 l 109 0 m 195 572 l 195 704 l 627 704 l 627 572 l 195 572 z "},"р":{"ha":755,"x_min":109,"x_max":667,"o":"m 109 -286 l 109 704 l 247 704 l 247 -286 l 109 -286 m 424 -10 q 309 21 358 -10 q 237 111 260 53 l 247 258 q 263 180 247 212 q 310 132 279 149 q 385 115 341 115 q 491 156 454 115 q 529 274 529 198 l 529 427 q 491 547 529 504 q 385 589 454 589 q 310 573 341 589 q 263 526 279 557 q 247 450 247 494 l 233 585 q 316 681 264 647 q 431 714 368 714 q 606 639 544 714 q 667 427 667 564 l 667 274 q 604 64 667 139 q 424 -10 540 -10 z "},"с":{"ha":692,"x_min":88,"x_max":648,"o":"m 393 -10 q 168 70 248 -10 q 88 296 88 150 l 88 412 q 168 635 88 556 q 393 714 248 714 q 542 685 475 714 q 648 602 608 656 l 648 602 l 548 512 l 548 512 q 479 564 519 546 q 395 583 439 583 q 271 538 315 583 q 227 412 227 493 l 227 296 q 271 167 227 212 q 395 121 315 121 q 479 141 439 121 q 548 197 519 161 l 548 197 l 648 100 l 648 100 q 542 19 608 47 q 393 -10 475 -10 z "},"т":{"ha":696,"x_min":75,"x_max":621,"o":"m 279 0 l 279 630 l 417 630 l 417 0 l 279 0 m 75 579 l 75 704 l 621 704 l 621 579 l 75 579 z "},"у":{"ha":671,"x_min":34,"x_max":657,"o":"m 516 704 l 657 704 l 357 -165 q 285 -266 332 -237 q 155 -294 237 -294 l 127 -294 l 127 -161 l 155 -161 q 216 -145 193 -161 q 256 -92 239 -130 l 516 704 m 315 -58 l 34 704 l 175 704 l 391 92 l 315 -58 z "},"ў":{"ha":671,"x_min":34,"x_max":657,"o":"m 516 704 l 657 704 l 357 -165 q 285 -266 332 -237 q 155 -294 237 -294 l 127 -294 l 127 -161 l 155 -161 q 216 -145 193 -161 q 256 -92 239 -130 l 516 704 m 315 -58 l 34 704 l 175 704 l 391 92 l 315 -58 z "},"ф":{"ha":995,"x_min":88,"x_max":907,"o":"m 701 0 q 570 70 616 0 q 523 266 523 139 l 523 441 q 570 635 523 567 q 701 704 616 704 q 853 635 800 704 q 907 441 907 567 l 907 264 q 853 69 907 138 q 701 0 800 0 m 294 0 q 142 69 195 0 q 88 264 88 138 l 88 441 q 142 635 88 567 q 294 704 195 704 q 425 635 378 704 q 472 441 472 567 l 472 266 q 425 70 472 139 q 294 0 378 0 m 321 132 q 400 166 372 132 q 429 264 429 201 l 429 441 q 400 538 429 504 q 321 572 372 572 q 251 538 276 572 q 227 441 227 504 l 227 264 q 251 166 227 201 q 321 132 276 132 m 428 -204 l 428 908 l 566 908 l 566 -204 l 428 -204 m 673 132 q 744 166 719 132 q 768 264 768 201 l 768 441 q 744 538 768 504 q 673 572 719 572 q 594 538 623 572 q 566 441 566 504 l 566 264 q 594 166 566 201 q 673 132 623 132 z "},"х":{"ha":718,"x_min":41,"x_max":674,"o":"m 521 0 l 311 320 l 52 704 l 205 704 l 408 389 l 674 0 l 521 0 m 41 0 l 307 389 l 373 261 l 194 0 l 41 0 m 414 324 l 355 454 l 509 704 l 663 704 l 414 324 z "},"ч":{"ha":781,"x_min":102,"x_max":673,"o":"m 534 0 l 534 704 l 673 704 l 673 0 l 534 0 m 359 220 q 169 293 237 220 q 102 499 102 366 l 102 704 l 240 704 l 240 494 q 273 393 240 429 q 366 357 307 357 q 491 396 447 357 q 534 508 534 436 l 534 579 l 578 579 l 578 513 q 521 297 578 374 q 359 220 464 220 z "},"ц":{"ha":852,"x_min":109,"x_max":798,"o":"m 533 0 l 533 704 l 671 704 l 671 0 l 533 0 m 195 0 l 195 125 l 606 125 l 606 0 l 195 0 m 109 0 l 109 704 l 247 704 l 247 0 l 109 0 m 659 -177 l 659 125 l 798 125 l 798 -177 l 659 -177 z "},"ш":{"ha":1069,"x_min":109,"x_max":960,"o":"m 195 0 l 195 132 l 895 132 l 895 0 l 195 0 m 822 0 l 822 704 l 960 704 l 960 0 l 822 0 m 109 0 l 109 704 l 247 704 l 247 0 l 109 0 m 465 0 l 465 704 l 604 704 l 604 0 l 465 0 z "},"щ":{"ha":1141,"x_min":109,"x_max":1086,"o":"m 195 0 l 195 125 l 895 125 l 895 0 l 195 0 m 465 0 l 465 704 l 604 704 l 604 0 l 465 0 m 109 0 l 109 704 l 247 704 l 247 0 l 109 0 m 948 -177 l 948 125 l 1086 125 l 1086 -177 l 948 -177 m 822 0 l 822 704 l 960 704 l 960 0 l 822 0 z "},"џ":{"ha":780,"x_min":109,"x_max":671,"o":"m 533 0 l 533 704 l 671 704 l 671 0 l 533 0 m 327 -177 l 327 132 l 465 132 l 465 -177 l 327 -177 m 195 0 l 195 132 l 606 132 l 606 0 l 195 0 m 109 0 l 109 704 l 247 704 l 247 0 l 109 0 z "},"ь":{"ha":735,"x_min":109,"x_max":664,"o":"m 176 0 l 176 132 l 424 132 q 491 158 466 132 q 517 228 517 184 l 517 228 q 491 298 517 272 q 424 325 466 325 l 176 325 l 176 456 l 418 456 q 596 394 529 456 q 664 228 663 331 l 664 228 q 597 63 664 125 q 418 0 530 0 l 176 0 m 109 0 l 109 704 l 247 704 l 247 0 l 109 0 z "},"ъ":{"ha":851,"x_min":54,"x_max":780,"o":"m 54 572 l 54 704 l 268 704 l 268 572 l 54 572 m 305 0 l 305 132 l 540 132 q 607 158 582 132 q 633 228 633 184 l 633 228 q 607 298 633 272 q 540 325 582 325 l 305 325 l 305 456 l 534 456 q 712 394 645 456 q 780 228 779 331 l 780 228 q 713 63 780 125 q 534 0 646 0 l 305 0 m 238 0 l 238 704 l 376 704 l 376 0 l 238 0 z "},"ы":{"ha":972,"x_min":109,"x_max":871,"o":"m 732 0 l 732 704 l 871 704 l 871 0 l 732 0 m 176 0 l 176 132 l 390 132 q 457 158 432 132 q 483 228 483 184 l 483 228 q 457 298 483 272 q 390 325 432 325 l 176 325 l 176 456 l 385 456 q 562 394 495 456 q 630 228 629 331 l 630 228 q 563 63 630 125 q 385 0 496 0 l 176 0 m 109 0 l 109 704 l 247 704 l 247 0 l 109 0 z "},"љ":{"ha":1120,"x_min":61,"x_max":1048,"o":"m 594 0 l 594 132 l 808 132 q 876 158 850 132 q 901 228 901 184 l 901 228 q 876 298 901 272 q 808 325 850 325 l 594 325 l 594 456 l 803 456 q 981 394 913 456 q 1048 228 1048 331 l 1048 228 q 981 63 1048 125 q 803 0 914 0 l 594 0 m 61 -6 l 61 125 q 145 175 115 125 q 176 315 176 224 l 176 704 l 314 704 l 314 296 q 251 73 314 151 q 75 -6 189 -6 l 61 -6 m 534 0 l 534 704 l 672 704 l 672 0 l 534 0 m 262 572 l 262 704 l 607 704 l 607 572 l 262 572 z "},"њ":{"ha":1147,"x_min":109,"x_max":1076,"o":"m 594 0 l 594 132 l 836 132 q 903 158 878 132 q 928 228 928 184 l 928 228 q 903 298 928 272 q 836 325 878 325 l 594 325 l 594 456 l 830 456 q 1008 394 941 456 q 1076 228 1075 331 l 1076 228 q 1008 63 1076 125 q 830 0 941 0 l 594 0 m 553 0 l 553 704 l 692 704 l 692 0 l 553 0 m 109 0 l 109 704 l 247 704 l 247 0 l 109 0 m 195 283 l 195 408 l 627 408 l 627 283 l 195 283 z "},"ѕ":{"ha":720,"x_min":51,"x_max":652,"o":"m 357 -10 q 188 17 264 -10 q 51 100 111 45 l 51 100 l 133 201 l 133 201 q 247 136 191 157 q 357 114 302 114 q 480 139 439 114 q 522 216 522 165 q 494 271 522 255 q 422 293 467 288 q 327 301 378 298 q 242 312 284 304 q 165 337 200 319 q 110 393 131 356 q 90 491 90 429 q 158 659 90 603 q 362 714 227 714 q 516 692 445 714 q 650 623 587 669 l 650 623 l 566 522 l 566 522 q 462 573 513 556 q 362 590 411 590 q 256 566 292 590 q 221 494 221 542 q 245 448 221 462 q 310 430 270 434 q 396 422 350 426 q 485 413 440 420 q 568 385 530 406 q 629 325 606 365 q 652 216 652 285 q 579 46 652 102 q 357 -10 505 -10 z "},"є":{"ha":692,"x_min":88,"x_max":648,"o":"m 189 293 l 189 411 l 532 411 l 532 293 l 189 293 m 393 -10 q 168 70 248 -10 q 88 296 88 150 l 88 412 q 168 635 88 556 q 393 714 248 714 q 542 685 475 714 q 648 602 608 656 l 648 602 l 548 512 l 548 512 q 479 564 519 546 q 395 583 439 583 q 271 538 315 583 q 227 412 227 493 l 227 296 q 271 167 227 212 q 395 121 315 121 q 479 141 439 121 q 548 197 519 161 l 548 197 l 648 100 l 648 100 q 542 19 608 47 q 393 -10 475 -10 z "},"э":{"ha":692,"x_min":44,"x_max":604,"o":"m 503 293 l 160 293 l 160 411 l 503 411 l 503 293 m 299 -10 q 151 19 217 -10 q 44 100 84 47 l 44 100 l 144 190 l 144 190 q 213 134 173 154 q 297 115 254 115 q 421 162 378 115 q 465 296 465 210 l 465 412 q 421 538 465 493 q 297 583 378 583 q 214 564 254 583 q 144 512 174 546 l 144 512 l 44 602 l 44 602 q 150 685 83 656 q 299 714 217 714 q 524 635 444 714 q 604 412 604 556 l 604 296 q 524 70 604 150 q 299 -10 444 -10 z "},"і":{"ha":349,"x_min":109,"x_max":247,"o":"m 109 848 l 109 986 l 247 986 l 247 848 l 109 848 m 109 0 l 109 704 l 247 704 l 247 0 l 109 0 z "},"ї":{"ha":349,"x_min":-34,"x_max":389,"o":"m 109 0 l 109 704 l 247 704 l 247 0 l 109 0 m 251 848 l 251 986 l 389 986 l 389 848 l 251 848 m -34 848 l -34 986 l 104 986 l 104 848 l -34 848 z "},"ј":{"ha":372,"x_min":14,"x_max":271,"o":"m 14 -286 l 14 -155 l 91 -155 q 121 -140 111 -155 q 131 -101 131 -126 l 131 704 l 269 704 l 269 -100 q 226 -237 269 -189 q 104 -286 183 -286 l 14 -286 m 130 848 l 130 986 l 271 986 l 271 848 l 130 848 z "},"ћ":{"ha":789,"x_min":-14,"x_max":688,"o":"m -14 726 l -14 844 l 545 844 l 545 726 l -14 726 m 122 0 l 122 986 l 260 986 l 260 0 l 122 0 m 549 0 l 549 345 q 511 460 549 420 q 402 501 473 501 q 297 466 334 501 q 260 366 260 431 l 246 502 q 331 598 279 564 q 448 633 384 633 q 625 558 562 633 q 688 346 688 483 l 688 0 l 549 0 z "},"ю":{"ha":1078,"x_min":109,"x_max":990,"o":"m 189 293 l 189 411 l 491 411 l 491 293 l 189 293 m 109 0 l 109 704 l 247 704 l 247 0 l 109 0 m 700 -10 q 486 70 562 -10 q 410 296 410 151 l 410 411 q 486 635 410 555 q 700 714 562 714 q 914 635 838 714 q 990 411 990 555 l 990 294 q 914 70 990 149 q 700 -10 838 -10 m 700 121 q 812 167 772 121 q 852 294 852 212 l 852 411 q 812 538 852 493 q 700 583 772 583 q 588 538 628 583 q 548 411 548 493 l 548 294 q 588 167 548 212 q 700 121 628 121 z "},"я":{"ha":746,"x_min":61,"x_max":637,"o":"m 570 248 l 321 248 q 143 310 210 248 q 75 476 76 373 l 75 476 q 143 642 75 579 q 321 704 210 704 l 570 704 l 570 572 l 315 572 q 248 546 273 572 q 222 476 222 519 l 222 476 q 248 406 222 433 q 315 379 274 379 l 570 379 l 570 248 m 637 0 l 499 0 l 499 704 l 637 704 l 637 0 m 225 0 l 61 0 l 259 309 l 397 278 l 225 0 z "},"ђ":{"ha":789,"x_min":-14,"x_max":688,"o":"m 432 -286 l 432 -155 l 509 -155 q 539 -140 529 -155 q 549 -101 549 -126 l 549 347 q 511 463 549 422 q 402 503 473 503 q 297 468 334 503 q 260 368 260 433 l 246 504 q 331 601 279 566 q 448 635 384 635 q 625 560 562 635 q 688 348 688 485 l 688 -100 q 645 -237 688 -189 q 523 -286 602 -286 l 432 -286 m 122 0 l 122 986 l 260 986 l 260 0 l 122 0 m -14 726 l -14 844 l 545 844 l 545 726 l -14 726 z "},"ѡ":{"ha":1027,"x_min":27,"x_max":972,"o":"m 637 0 l 414 704 l 558 704 l 710 181 q 780 337 753 250 q 821 520 808 425 q 835 704 835 614 l 972 704 q 955 517 972 616 q 905 321 937 418 q 831 141 873 224 q 742 0 789 58 l 637 0 m 271 0 l 27 704 l 172 704 l 351 174 l 516 481 l 568 361 l 376 0 l 271 0 z "},"ѣ":{"ha":752,"x_min":-14,"x_max":681,"o":"m -14 654 l -14 772 l 505 772 l 505 654 l -14 654 m 186 0 l 186 132 l 441 132 q 508 158 483 132 q 534 228 534 184 l 534 228 q 508 298 534 272 q 441 325 483 325 l 186 325 l 186 456 l 435 456 q 613 394 546 456 q 681 228 680 331 l 681 228 q 614 63 681 125 q 435 0 547 0 l 186 0 m 119 0 l 119 909 l 257 909 l 257 0 l 119 0 z "},"ѥ":{"ha":1013,"x_min":109,"x_max":969,"o":"m 189 293 l 189 411 l 532 411 l 532 293 l 189 293 m 109 0 l 109 704 l 247 704 l 247 0 l 109 0 m 511 293 l 511 411 l 853 411 l 853 293 l 511 293 m 714 -10 q 489 70 569 -10 q 410 296 410 150 l 410 412 q 489 635 410 556 q 714 714 569 714 q 863 685 797 714 q 969 602 930 656 l 969 602 l 869 512 l 869 512 q 800 564 840 546 q 716 583 760 583 q 592 538 636 583 q 548 412 548 493 l 548 296 q 592 167 548 212 q 716 121 636 121 q 800 141 760 121 q 869 197 840 161 l 869 197 l 969 100 l 969 100 q 863 19 930 47 q 714 -10 796 -10 z "},"ѧ":{"ha":736,"x_min":27,"x_max":709,"o":"m 27 0 l 309 708 l 427 708 l 709 0 l 567 0 l 368 538 l 170 0 l 27 0 m 306 0 l 306 239 l 431 239 l 431 0 l 306 0 m 181 161 l 181 273 l 564 273 l 564 161 l 181 161 z "},"ѩ":{"ha":1044,"x_min":109,"x_max":1017,"o":"m 201 161 l 201 273 l 585 273 l 585 161 l 201 161 m 109 0 l 109 704 l 247 704 l 247 0 l 109 0 m 335 0 l 617 708 l 735 708 l 1017 0 l 875 0 l 676 538 l 477 0 l 335 0 m 614 0 l 614 239 l 739 239 l 739 0 l 614 0 m 489 161 l 489 273 l 872 273 l 872 161 l 489 161 z "},"ѫ":{"ha":817,"x_min":0,"x_max":817,"o":"m 508 298 l 370 301 l 649 704 l 809 704 l 508 298 m 0 0 l 55 182 q 154 349 89 293 q 319 405 219 405 l 306 281 q 236 252 263 281 q 193 164 208 222 l 151 0 l 0 0 m 339 0 l 339 301 l 477 301 l 477 0 l 339 0 m 292 281 l 306 405 l 326 405 l 411 313 l 477 405 l 497 405 l 517 281 l 292 281 m 296 321 l 7 704 l 168 704 l 443 308 l 296 321 m 665 0 l 623 164 q 577 252 608 223 q 504 281 547 281 l 490 405 q 659 350 591 405 q 762 182 728 294 l 817 0 l 665 0 m 130 572 l 130 704 l 694 704 l 694 572 l 130 572 z "},"ѭ":{"ha":1131,"x_min":109,"x_max":1131,"o":"m 204 281 l 204 405 l 578 405 l 578 281 l 204 281 m 109 0 l 109 704 l 247 704 l 247 0 l 109 0 m 823 298 l 684 301 l 964 704 l 1124 704 l 823 298 m 315 0 l 370 182 q 469 349 404 293 q 634 405 534 405 l 621 281 q 550 252 578 281 q 508 164 523 222 l 466 0 l 315 0 m 654 0 l 654 301 l 792 301 l 792 0 l 654 0 m 607 281 l 621 405 l 641 405 l 726 313 l 791 405 l 812 405 l 832 281 l 607 281 m 610 321 l 322 704 l 482 704 l 758 308 l 610 321 m 980 0 l 938 164 q 892 252 923 223 q 819 281 861 281 l 805 405 q 974 350 905 405 q 1076 182 1042 294 l 1131 0 l 980 0 m 444 572 l 444 704 l 1008 704 l 1008 572 l 444 572 z "},"ѯ":{"ha":629,"x_min":61,"x_max":557,"o":"m 498 -286 l 283 -286 q 117 -236 172 -286 q 61 -85 61 -185 q 116 71 61 18 q 283 123 172 123 l 309 123 q 385 147 358 123 q 412 215 412 172 l 412 216 q 391 281 412 258 q 329 304 369 304 l 273 304 l 273 446 l 329 446 q 378 464 361 446 q 396 511 396 481 l 396 511 q 373 563 396 545 q 308 581 350 581 q 240 562 268 581 q 203 506 213 542 l 203 505 l 63 505 l 63 506 q 146 660 82 605 q 308 714 210 714 q 480 666 419 714 q 541 530 541 618 l 541 530 q 513 436 541 481 q 435 377 486 391 q 502 346 474 374 q 543 280 529 319 q 557 201 557 241 l 557 201 q 491 45 557 100 q 302 -10 424 -10 l 283 -10 q 220 -29 241 -10 q 199 -85 199 -48 q 220 -137 199 -119 q 283 -154 241 -154 l 498 -154 l 498 -286 m 306 833 l 86 1039 l 170 1117 l 306 988 l 441 1117 l 526 1039 l 306 833 z "},"ѱ":{"ha":985,"x_min":109,"x_max":883,"o":"m 495 -10 q 210 93 311 -10 q 109 384 109 196 l 109 704 l 247 704 l 247 379 q 312 182 247 252 q 495 113 376 113 q 680 182 614 113 q 745 379 745 252 l 745 704 l 883 704 l 883 384 q 781 93 883 196 q 495 -10 680 -10 m 427 -204 l 427 908 l 565 908 l 565 -204 l 427 -204 z "},"ѳ":{"ha":757,"x_min":88,"x_max":669,"o":"m 149 296 l 149 408 l 640 408 l 640 296 l 149 296 m 378 -10 q 164 70 240 -10 q 88 296 88 151 l 88 411 q 164 635 88 555 q 378 714 240 714 q 593 635 517 714 q 669 411 669 555 l 669 294 q 593 70 669 149 q 378 -10 517 -10 m 378 121 q 491 167 451 121 q 530 294 530 212 l 530 411 q 491 538 530 493 q 378 583 451 583 q 267 538 307 583 q 227 411 227 493 l 227 294 q 267 167 227 212 q 378 121 307 121 z "},"ѵ":{"ha":706,"x_min":41,"x_max":665,"o":"m 298 0 l 41 704 l 185 704 l 351 201 l 437 528 q 479 632 454 591 q 535 694 504 673 q 602 714 566 714 l 665 714 l 665 583 l 635 583 q 600 569 615 583 q 575 529 584 556 l 403 0 l 298 0 z "},"ѷ":{"ha":706,"x_min":39,"x_max":665,"o":"m 225 833 l 39 1061 l 152 1150 l 326 909 l 225 833 m 503 833 l 317 1061 l 430 1150 l 604 909 l 503 833 m 298 0 l 41 704 l 185 704 l 351 201 l 437 528 q 479 632 454 591 q 535 694 504 673 q 602 714 566 714 l 665 714 l 665 583 l 635 583 q 600 569 615 583 q 575 529 584 556 l 403 0 l 298 0 z "},"ѹ":{"ha":1387,"x_min":88,"x_max":1373,"o":"m 378 -10 q 164 70 240 -10 q 88 296 88 151 l 88 411 q 164 635 88 555 q 378 714 240 714 q 593 635 517 714 q 669 411 669 555 l 669 294 q 593 70 669 149 q 378 -10 517 -10 m 378 121 q 491 167 451 121 q 530 294 530 212 l 530 411 q 491 538 530 493 q 378 583 451 583 q 267 538 307 583 q 227 411 227 493 l 227 294 q 267 167 227 212 q 378 121 307 121 m 1232 704 l 1373 704 l 1074 -165 q 1001 -266 1048 -237 q 871 -294 954 -294 l 843 -294 l 843 -161 l 871 -161 q 932 -145 909 -161 q 972 -92 955 -130 l 1232 704 m 1031 -58 l 750 704 l 891 704 l 1107 92 l 1031 -58 z "},"ғ":{"ha":654,"x_min":41,"x_max":621,"o":"m 41 251 l 41 369 l 491 369 l 491 251 l 41 251 m 170 0 l 170 704 l 308 704 l 308 0 l 170 0 m 237 572 l 237 704 l 621 704 l 621 572 l 237 572 z "},"ҕ":{"ha":770,"x_min":109,"x_max":709,"o":"m 439 434 q 639 339 568 434 q 709 73 709 244 l 709 66 q 627 -201 709 -116 q 379 -286 545 -286 l 371 -286 l 371 -155 l 379 -155 q 524 -100 476 -155 q 571 71 571 -45 l 571 71 q 526 241 571 180 q 398 302 481 302 q 287 263 326 302 q 247 153 247 224 l 247 102 l 203 115 l 203 189 q 265 370 203 306 q 439 434 327 434 m 109 0 l 109 704 l 247 704 l 247 0 l 109 0 m 176 572 l 176 704 l 559 704 l 559 572 l 176 572 z "},"җ":{"ha":1047,"x_min":0,"x_max":1042,"o":"m 814 0 l 627 304 l 728 375 l 993 0 l 814 0 m 0 0 l 265 375 l 366 304 l 178 0 l 0 0 m 316 290 l 41 704 l 201 704 l 372 411 l 316 290 m 427 0 l 427 704 l 566 704 l 566 0 l 427 0 m 264 297 l 264 422 l 728 422 l 728 297 l 264 297 m 677 290 l 621 411 l 791 704 l 951 704 l 677 290 m 904 125 l 1042 125 l 1042 -177 l 904 -177 l 904 125 z "},"ҙ":{"ha":636,"x_min":61,"x_max":589,"o":"m 248 91 l 386 91 l 386 -177 l 248 -177 l 248 91 m 329 -10 q 149 44 218 -10 q 65 199 79 99 l 65 199 l 199 199 l 199 199 q 240 138 207 159 q 327 116 274 116 q 418 142 386 116 q 451 215 451 168 l 451 216 q 428 273 451 252 q 361 293 404 293 l 250 293 l 250 411 l 361 411 q 410 432 393 411 q 428 491 428 453 l 428 492 q 400 563 428 538 q 319 588 372 588 q 239 566 271 588 q 195 505 206 545 l 195 505 l 61 505 l 61 505 q 150 660 81 605 q 326 714 219 714 q 504 665 441 714 q 566 525 566 615 l 566 524 q 538 425 566 467 q 460 363 511 382 q 556 314 522 354 q 589 208 589 273 l 589 208 q 521 47 589 104 q 329 -10 453 -10 z "},"қ":{"ha":783,"x_min":109,"x_max":757,"o":"m 378 283 l 315 404 l 507 704 l 673 704 l 378 283 m 109 0 l 109 704 l 247 704 l 247 0 l 109 0 m 530 0 l 321 297 l 429 368 l 715 0 l 530 0 m 176 287 l 176 418 l 430 418 l 430 287 l 176 287 m 618 125 l 757 125 l 757 -177 l 618 -177 l 618 125 z "},"ҝ":{"ha":715,"x_min":109,"x_max":715,"o":"m 530 0 l 355 304 l 470 375 l 715 0 l 530 0 m 109 0 l 109 704 l 247 704 l 247 0 l 109 0 m 278 115 l 278 586 l 369 586 l 369 115 l 278 115 m 176 287 l 176 418 l 464 418 l 464 287 l 176 287 m 453 290 l 356 411 l 507 704 l 673 704 l 453 290 z "},"ҟ":{"ha":742,"x_min":-14,"x_max":742,"o":"m 136 610 l 136 986 l 274 986 l 274 610 l 136 610 m -14 780 l -14 898 l 423 898 l 423 780 l -14 780 m 406 283 l 342 404 l 534 704 l 701 704 l 406 283 m 136 0 l 136 704 l 274 704 l 274 0 l 136 0 m 557 0 l 349 297 l 456 368 l 742 0 l 557 0 m 203 287 l 203 418 l 457 418 l 457 287 l 203 287 z "},"ҡ":{"ha":884,"x_min":54,"x_max":884,"o":"m 54 572 l 54 704 l 309 704 l 309 572 l 54 572 m 548 283 l 485 404 l 676 704 l 843 704 l 548 283 m 278 0 l 278 704 l 416 704 l 416 0 l 278 0 m 699 0 l 491 297 l 599 368 l 884 0 l 699 0 m 345 287 l 345 418 l 600 418 l 600 287 l 345 287 z "},"ң":{"ha":800,"x_min":109,"x_max":817,"o":"m 553 0 l 553 704 l 692 704 l 692 0 l 553 0 m 109 0 l 109 704 l 247 704 l 247 0 l 109 0 m 195 283 l 195 408 l 627 408 l 627 283 l 195 283 m 679 125 l 817 125 l 817 -177 l 679 -177 l 679 125 z "},"ҥ":{"ha":998,"x_min":109,"x_max":964,"o":"m 621 572 l 621 704 l 964 704 l 964 572 l 621 572 m 553 0 l 553 704 l 692 704 l 692 0 l 553 0 m 109 0 l 109 704 l 247 704 l 247 0 l 109 0 m 195 283 l 195 408 l 627 408 l 627 283 l 195 283 z "},"ҧ":{"ha":1208,"x_min":109,"x_max":1147,"o":"m 816 -286 l 816 -155 l 824 -155 q 963 -100 918 -155 q 1009 71 1009 -45 l 1009 71 q 965 241 1009 180 q 840 302 920 302 q 730 263 769 302 q 692 153 692 224 l 692 102 l 648 115 l 648 189 q 709 370 648 306 q 880 434 770 434 q 1078 339 1008 434 q 1147 73 1147 244 l 1147 66 q 1067 -201 1147 -116 q 824 -286 986 -286 l 816 -286 m 553 0 l 553 704 l 692 704 l 692 0 l 553 0 m 109 0 l 109 704 l 247 704 l 247 0 l 109 0 m 195 572 l 195 704 l 627 704 l 627 572 l 195 572 z "},"ԥ":{"ha":800,"x_min":109,"x_max":817,"o":"m 553 0 l 553 704 l 692 704 l 692 0 l 553 0 m 109 0 l 109 704 l 247 704 l 247 0 l 109 0 m 195 572 l 195 704 l 627 704 l 627 572 l 195 572 m 679 125 l 817 125 l 817 -177 l 679 -177 l 679 125 z "},"ҩ":{"ha":964,"x_min":102,"x_max":882,"o":"m 833 -10 q 588 38 692 -10 q 429 179 485 87 q 373 401 373 271 l 373 477 q 437 652 373 590 q 609 714 500 714 q 787 652 722 714 q 852 477 852 590 l 852 401 q 734 113 852 218 q 401 0 616 8 l 401 132 q 632 202 550 132 q 713 401 713 273 l 713 477 q 685 555 713 527 q 608 583 656 583 q 537 555 563 583 q 511 477 511 527 l 511 401 q 592 195 511 268 q 819 121 672 121 l 882 121 l 882 -10 l 833 -10 m 401 0 q 180 71 258 0 q 102 272 102 142 l 102 452 q 173 646 102 577 q 374 714 244 714 l 374 578 q 278 546 312 578 q 243 457 243 515 l 243 267 q 285 167 243 203 q 401 132 326 132 l 401 0 z "},"ҫ":{"ha":692,"x_min":88,"x_max":648,"o":"m 326 91 l 465 91 l 465 -177 l 326 -177 l 326 91 m 393 -10 q 168 70 248 -10 q 88 296 88 150 l 88 412 q 168 635 88 556 q 393 714 248 714 q 542 685 475 714 q 648 602 608 656 l 648 602 l 548 512 l 548 512 q 479 564 519 546 q 395 583 439 583 q 271 538 315 583 q 227 412 227 493 l 227 296 q 271 167 227 212 q 395 121 315 121 q 479 141 439 121 q 548 197 519 161 l 548 197 l 648 100 l 648 100 q 542 19 608 47 q 393 -10 475 -10 z "},"ҭ":{"ha":696,"x_min":75,"x_max":621,"o":"m 279 0 l 279 630 l 417 630 l 417 0 l 279 0 m 75 579 l 75 704 l 621 704 l 621 579 l 75 579 m 404 125 l 543 125 l 543 -177 l 404 -177 l 404 125 z "},"ү":{"ha":694,"x_min":34,"x_max":667,"o":"m 281 -286 l 281 133 l 420 133 l 420 -286 l 281 -286 m 351 201 l 523 704 l 667 704 l 403 0 l 298 0 l 34 704 l 178 704 l 351 201 z "},"ұ":{"ha":694,"x_min":34,"x_max":667,"o":"m 117 -125 l 117 0 l 581 0 l 581 -125 l 117 -125 m 281 -286 l 281 133 l 420 133 l 420 -286 l 281 -286 m 351 201 l 523 704 l 667 704 l 403 0 l 298 0 l 34 704 l 178 704 l 351 201 z "},"ҳ":{"ha":718,"x_min":41,"x_max":709,"o":"m 521 0 l 311 320 l 52 704 l 205 704 l 408 389 l 674 0 l 521 0 m 41 0 l 307 389 l 373 261 l 194 0 l 41 0 m 414 324 l 355 454 l 509 704 l 663 704 l 414 324 m 571 125 l 709 125 l 709 -177 l 571 -177 l 571 125 z "},"ҵ":{"ha":924,"x_min":75,"x_max":870,"o":"m 606 0 l 606 704 l 745 704 l 745 0 l 606 0 m 243 0 l 243 125 l 680 125 l 680 0 l 243 0 m 219 0 l 219 630 l 357 630 l 357 0 l 219 0 m 732 -177 l 732 125 l 870 125 l 870 -177 l 732 -177 m 75 579 l 75 704 l 505 704 l 505 579 l 75 579 z "},"ҷ":{"ha":781,"x_min":102,"x_max":798,"o":"m 534 0 l 534 704 l 673 704 l 673 0 l 534 0 m 359 220 q 169 293 237 220 q 102 499 102 366 l 102 704 l 240 704 l 240 494 q 273 393 240 429 q 366 357 307 357 q 491 396 447 357 q 534 508 534 436 l 534 579 l 578 579 l 578 513 q 521 297 578 374 q 359 220 464 220 m 660 125 l 798 125 l 798 -177 l 660 -177 l 660 125 z "},"ҹ":{"ha":781,"x_min":102,"x_max":673,"o":"m 332 75 l 332 545 l 423 545 l 423 75 l 332 75 m 534 0 l 534 704 l 673 704 l 673 0 l 534 0 m 359 220 q 169 293 237 220 q 102 499 102 366 l 102 704 l 240 704 l 240 494 q 273 393 240 429 q 366 357 307 357 q 491 396 447 357 q 534 508 534 436 l 534 579 l 578 579 l 578 513 q 521 297 578 374 q 359 220 464 220 z "},"һ":{"ha":776,"x_min":109,"x_max":674,"o":"m 109 0 l 109 986 l 247 986 l 247 0 l 109 0 m 536 0 l 536 427 q 497 542 536 501 q 389 583 459 583 q 284 547 321 583 q 247 448 247 512 l 233 583 q 318 680 265 646 q 434 714 370 714 q 611 639 549 714 q 674 427 674 564 l 674 0 l 536 0 z "},"ҽ":{"ha":884,"x_min":34,"x_max":803,"o":"m 200 297 q 75 333 117 297 q 34 441 34 370 l 34 492 l 161 492 l 161 455 q 209 408 161 408 l 387 408 l 387 297 l 200 297 m 536 -10 q 309 72 389 -10 q 228 305 228 154 l 228 385 q 306 628 228 542 q 524 714 383 714 q 730 616 657 714 q 803 342 803 519 l 803 296 l 328 296 l 328 408 l 671 408 l 671 408 q 627 541 665 493 q 524 589 589 589 q 403 538 446 589 q 359 392 359 486 l 359 302 q 406 168 359 215 q 536 121 452 121 q 620 138 578 121 q 694 186 661 155 l 694 186 l 785 95 l 785 95 q 667 17 732 45 q 536 -10 602 -10 z "},"ҿ":{"ha":884,"x_min":34,"x_max":803,"o":"m 452 91 l 591 91 l 591 -177 l 452 -177 l 452 91 m 200 297 q 75 333 117 297 q 34 441 34 370 l 34 492 l 161 492 l 161 455 q 209 408 161 408 l 387 408 l 387 297 l 200 297 m 536 -10 q 309 72 389 -10 q 228 305 228 154 l 228 385 q 306 628 228 542 q 524 714 383 714 q 730 616 657 714 q 803 342 803 519 l 803 296 l 328 296 l 328 408 l 671 408 l 671 408 q 627 541 665 493 q 524 589 589 589 q 403 538 446 589 q 359 392 359 486 l 359 302 q 406 168 359 215 q 536 121 452 121 q 620 138 578 121 q 694 186 661 155 l 694 186 l 785 95 l 785 95 q 667 17 732 45 q 536 -10 602 -10 z "},"ӏ":{"ha":382,"x_min":122,"x_max":260,"o":"m 260 986 l 260 0 l 122 0 l 122 986 l 260 986 z "},"ӂ":{"ha":993,"x_min":0,"x_max":993,"o":"m 814 0 l 627 304 l 728 375 l 993 0 l 814 0 m 0 0 l 265 375 l 366 304 l 178 0 l 0 0 m 316 290 l 41 704 l 201 704 l 372 411 l 316 290 m 427 0 l 427 704 l 566 704 l 566 0 l 427 0 m 264 297 l 264 422 l 728 422 l 728 297 l 264 297 m 677 290 l 621 411 l 791 704 l 951 704 l 677 290 z "},"ӄ":{"ha":781,"x_min":109,"x_max":720,"o":"m 399 -286 l 399 -156 l 410 -156 q 539 -102 496 -156 q 582 62 582 -48 l 582 62 q 534 234 582 174 q 399 294 486 294 l 352 294 l 367 425 l 399 425 q 636 331 551 425 q 720 64 720 236 l 720 57 q 642 -202 720 -119 q 410 -286 564 -286 l 399 -286 m 109 0 l 109 704 l 247 704 l 247 0 l 109 0 m 176 294 l 176 425 l 382 425 l 403 294 l 176 294 m 370 306 l 295 411 l 507 704 l 673 704 l 370 306 z "},"ӆ":{"ha":808,"x_min":61,"x_max":794,"o":"m 656 132 l 794 132 l 740 -177 l 602 -177 l 633 3 l 656 132 m 61 -6 l 61 125 q 145 175 115 125 q 176 315 176 224 l 176 704 l 314 704 l 314 296 q 251 73 314 151 q 75 -6 189 -6 l 61 -6 m 534 0 l 534 704 l 672 704 l 672 0 l 534 0 m 262 572 l 262 704 l 607 704 l 607 572 l 262 572 z "},"ӈ":{"ha":800,"x_min":109,"x_max":692,"o":"m 436 -286 l 436 -155 l 513 -155 q 543 -140 533 -155 q 553 -101 553 -126 l 553 704 l 692 704 l 692 -100 q 649 -237 692 -189 q 527 -286 606 -286 l 436 -286 m 109 0 l 109 704 l 247 704 l 247 0 l 109 0 m 195 280 l 195 412 l 627 412 l 627 280 l 195 280 z "},"ӊ":{"ha":827,"x_min":109,"x_max":814,"o":"m 675 132 l 814 132 l 760 -177 l 621 -177 l 653 3 l 675 132 m 553 0 l 553 704 l 692 704 l 692 0 l 553 0 m 109 0 l 109 704 l 247 704 l 247 0 l 109 0 m 195 283 l 195 408 l 627 408 l 627 283 l 195 283 z "},"ӌ":{"ha":781,"x_min":102,"x_max":673,"o":"m 409 -177 l 409 125 l 547 125 l 547 -177 l 409 -177 m 534 0 l 534 704 l 673 704 l 673 0 l 534 0 m 359 220 q 169 293 237 220 q 102 499 102 366 l 102 704 l 240 704 l 240 494 q 273 393 240 429 q 366 357 307 357 q 491 396 447 357 q 534 508 534 436 l 534 579 l 578 579 l 578 513 q 521 297 578 374 q 359 220 464 220 z "},"ӎ":{"ha":906,"x_min":109,"x_max":892,"o":"m 754 132 l 892 132 l 838 -177 l 700 -177 l 732 3 l 754 132 m 439 315 l 648 704 l 770 704 l 770 0 l 646 0 l 646 497 l 652 454 l 481 137 l 398 137 l 227 454 l 233 497 l 233 0 l 109 0 l 109 704 l 231 704 l 439 315 z "},"ӑ":{"ha":739,"x_min":75,"x_max":637,"o":"m 506 0 l 506 446 q 469 554 506 515 q 364 592 432 592 q 282 579 323 592 q 210 543 242 567 l 109 612 q 215 687 149 661 q 360 714 280 714 q 565 646 492 714 q 637 452 637 577 l 637 0 l 506 0 m 334 -10 q 139 43 204 -10 q 75 208 75 97 q 134 365 75 313 q 312 416 193 416 l 512 416 l 522 305 l 313 305 q 232 281 259 305 q 205 208 205 257 q 241 128 205 154 q 349 102 277 102 q 467 119 427 102 q 506 172 506 136 l 520 73 q 475 26 502 45 q 413 -1 448 8 q 334 -10 378 -10 z "},"ӓ":{"ha":739,"x_min":75,"x_max":637,"o":"m 506 0 l 506 446 q 469 554 506 515 q 364 592 432 592 q 282 579 323 592 q 210 543 242 567 l 109 612 q 215 687 149 661 q 360 714 280 714 q 565 646 492 714 q 637 452 637 577 l 637 0 l 506 0 m 334 -10 q 139 43 204 -10 q 75 208 75 97 q 134 365 75 313 q 312 416 193 416 l 512 416 l 522 305 l 313 305 q 232 281 259 305 q 205 208 205 257 q 241 128 205 154 q 349 102 277 102 q 467 119 427 102 q 506 172 506 136 l 520 73 q 475 26 502 45 q 413 -1 448 8 q 334 -10 378 -10 m 439 848 l 439 986 l 578 986 l 578 848 l 439 848 m 155 848 l 155 986 l 293 986 l 293 848 l 155 848 z "},"ӕ":{"ha":1158,"x_min":75,"x_max":1077,"o":"m 513 329 l 513 446 q 474 554 513 515 q 364 592 435 592 q 283 579 323 592 q 212 543 244 567 l 109 612 q 215 687 149 661 q 360 714 280 714 q 525 654 467 714 q 583 486 583 595 l 583 329 l 513 329 m 313 -10 q 134 43 194 -10 q 75 208 75 97 q 134 362 75 311 q 312 413 193 413 l 559 413 l 569 305 l 313 305 q 232 281 259 305 q 205 208 205 257 q 236 133 205 157 q 328 109 267 109 q 432 139 393 109 q 491 216 472 170 q 509 311 509 262 l 581 311 l 581 143 q 474 27 541 65 q 313 -10 407 -10 m 810 -10 q 623 67 690 -10 q 556 288 556 145 l 556 415 q 620 636 556 557 q 798 714 684 714 q 1004 615 931 714 q 1077 339 1077 517 l 1077 305 l 595 305 l 595 413 l 945 413 l 945 413 q 901 545 939 498 q 798 592 863 592 q 672 539 717 592 q 627 389 627 486 l 627 299 q 675 158 627 208 q 810 109 723 109 q 898 127 854 109 q 976 176 941 144 l 976 176 l 1059 95 l 1059 95 q 941 17 1006 45 q 810 -10 876 -10 z "},"ӗ":{"ha":745,"x_min":88,"x_max":663,"o":"m 397 -10 q 169 72 250 -10 q 88 305 88 154 l 88 385 q 166 628 88 542 q 385 714 243 714 q 590 616 517 714 q 663 342 663 519 l 663 296 l 189 296 l 189 408 l 532 408 l 532 408 q 487 541 526 493 q 385 589 449 589 q 263 538 307 589 q 220 392 220 486 l 220 302 q 266 168 220 215 q 397 121 313 121 q 480 138 439 121 q 554 186 522 155 l 554 186 l 645 95 l 645 95 q 528 17 593 45 q 397 -10 463 -10 z "},"ә":{"ha":745,"x_min":81,"x_max":656,"o":"m 360 -10 q 154 86 227 -10 q 81 355 81 182 l 81 401 l 556 401 l 556 290 l 213 290 l 213 290 q 257 161 219 208 q 360 115 296 115 q 482 164 439 115 q 525 305 525 214 l 525 395 q 479 534 525 486 q 348 583 433 583 q 264 566 306 583 q 191 518 223 549 l 191 518 l 100 609 l 100 609 q 217 687 152 659 q 348 714 282 714 q 576 630 495 714 q 656 392 656 547 l 656 313 q 579 74 656 159 q 360 -10 501 -10 z "},"ӛ":{"ha":745,"x_min":81,"x_max":656,"o":"m 360 -10 q 154 86 227 -10 q 81 355 81 182 l 81 401 l 556 401 l 556 290 l 213 290 l 213 290 q 257 161 219 208 q 360 115 296 115 q 482 164 439 115 q 525 305 525 214 l 525 395 q 479 534 525 486 q 348 583 433 583 q 264 566 306 583 q 191 518 223 549 l 191 518 l 100 609 l 100 609 q 217 687 152 659 q 348 714 282 714 q 576 630 495 714 q 656 392 656 547 l 656 313 q 579 74 656 159 q 360 -10 501 -10 m 449 848 l 449 986 l 587 986 l 587 848 l 449 848 m 164 848 l 164 986 l 302 986 l 302 848 l 164 848 z "},"ӝ":{"ha":993,"x_min":0,"x_max":993,"o":"m 814 0 l 627 304 l 728 375 l 993 0 l 814 0 m 0 0 l 265 375 l 366 304 l 178 0 l 0 0 m 316 290 l 41 704 l 201 704 l 372 411 l 316 290 m 427 0 l 427 704 l 566 704 l 566 0 l 427 0 m 264 297 l 264 422 l 728 422 l 728 297 l 264 297 m 677 290 l 621 411 l 791 704 l 951 704 l 677 290 m 570 848 l 570 986 l 708 986 l 708 848 l 570 848 m 285 848 l 285 986 l 423 986 l 423 848 l 285 848 z "},"ӟ":{"ha":661,"x_min":61,"x_max":589,"o":"m 329 -10 q 149 44 218 -10 q 65 199 79 99 l 65 199 l 199 199 l 199 199 q 240 138 207 159 q 327 116 274 116 q 418 142 386 116 q 451 215 451 168 l 451 216 q 428 273 451 252 q 361 293 404 293 l 250 293 l 250 411 l 361 411 q 410 432 393 411 q 428 491 428 453 l 428 492 q 400 563 428 538 q 319 588 372 588 q 239 566 271 588 q 195 505 206 545 l 195 505 l 61 505 l 61 505 q 150 660 81 605 q 326 714 219 714 q 504 665 441 714 q 566 525 566 615 l 566 524 q 538 425 566 467 q 460 363 511 382 q 556 314 522 354 q 589 208 589 273 l 589 208 q 521 47 589 104 q 329 -10 453 -10 m 401 848 l 401 986 l 539 986 l 539 848 l 401 848 m 116 848 l 116 986 l 254 986 l 254 848 l 116 848 z "},"ӡ":{"ha":616,"x_min":7,"x_max":545,"o":"m 272 -204 q 88 -139 154 -204 q 7 58 22 -73 l 7 59 l 148 59 l 148 58 q 189 -39 157 -7 q 279 -71 222 -71 q 369 -36 339 -71 q 399 72 399 0 l 399 73 q 366 188 399 149 q 255 226 332 226 l 158 226 l 158 303 l 255 351 q 473 282 401 351 q 545 75 545 213 l 545 75 q 477 -135 545 -65 q 272 -204 409 -204 m 158 303 l 340 572 l 42 572 l 42 704 l 514 704 l 514 585 l 312 303 l 158 303 z "},"ӣ":{"ha":796,"x_min":109,"x_max":688,"o":"m 688 1 l 551 1 l 551 500 l 567 483 l 229 1 l 109 1 l 109 704 l 245 704 l 245 193 l 229 210 l 569 704 l 688 704 l 688 1 m 151 985 l 646 985 l 646 848 l 151 848 l 151 985 z "},"ӥ":{"ha":796,"x_min":109,"x_max":688,"o":"m 688 1 l 551 1 l 551 500 l 567 483 l 229 1 l 109 1 l 109 704 l 245 704 l 245 193 l 229 210 l 569 704 l 688 704 l 688 1 m 471 848 l 471 986 l 610 986 l 610 848 l 471 848 m 186 848 l 186 986 l 325 986 l 325 848 l 186 848 z "},"ӧ":{"ha":757,"x_min":88,"x_max":669,"o":"m 378 -10 q 164 70 240 -10 q 88 296 88 151 l 88 411 q 164 635 88 555 q 378 714 240 714 q 593 635 517 714 q 669 411 669 555 l 669 294 q 593 70 669 149 q 378 -10 517 -10 m 378 121 q 491 167 451 121 q 530 294 530 212 l 530 411 q 491 538 530 493 q 378 583 451 583 q 267 538 307 583 q 227 411 227 493 l 227 294 q 267 167 227 212 q 378 121 307 121 m 452 848 l 452 986 l 591 986 l 591 848 l 452 848 m 168 848 l 168 986 l 306 986 l 306 848 l 168 848 z "},"ө":{"ha":757,"x_min":88,"x_max":669,"o":"m 149 296 l 149 408 l 640 408 l 640 296 l 149 296 m 378 -10 q 164 70 240 -10 q 88 296 88 151 l 88 411 q 164 635 88 555 q 378 714 240 714 q 593 635 517 714 q 669 411 669 555 l 669 294 q 593 70 669 149 q 378 -10 517 -10 m 378 121 q 491 167 451 121 q 530 294 530 212 l 530 411 q 491 538 530 493 q 378 583 451 583 q 267 538 307 583 q 227 411 227 493 l 227 294 q 267 167 227 212 q 378 121 307 121 z "},"ӫ":{"ha":757,"x_min":88,"x_max":669,"o":"m 149 296 l 149 408 l 640 408 l 640 296 l 149 296 m 378 -10 q 164 70 240 -10 q 88 296 88 151 l 88 411 q 164 635 88 555 q 378 714 240 714 q 593 635 517 714 q 669 411 669 555 l 669 294 q 593 70 669 149 q 378 -10 517 -10 m 378 121 q 491 167 451 121 q 530 294 530 212 l 530 411 q 491 538 530 493 q 378 583 451 583 q 267 538 307 583 q 227 411 227 493 l 227 294 q 267 167 227 212 q 378 121 307 121 m 452 848 l 452 986 l 590 986 l 590 848 l 452 848 m 167 848 l 167 986 l 305 986 l 305 848 l 167 848 z "},"ӭ":{"ha":692,"x_min":44,"x_max":604,"o":"m 503 293 l 160 293 l 160 411 l 503 411 l 503 293 m 299 -10 q 151 19 217 -10 q 44 100 84 47 l 44 100 l 144 190 l 144 190 q 213 134 173 154 q 297 115 254 115 q 421 162 378 115 q 465 296 465 210 l 465 412 q 421 538 465 493 q 297 583 378 583 q 214 564 254 583 q 144 512 174 546 l 144 512 l 44 602 l 44 602 q 150 685 83 656 q 299 714 217 714 q 524 635 444 714 q 604 412 604 556 l 604 296 q 524 70 604 150 q 299 -10 444 -10 m 414 848 l 414 986 l 553 986 l 553 848 l 414 848 m 130 848 l 130 986 l 268 986 l 268 848 l 130 848 z "},"ӯ":{"ha":671,"x_min":34,"x_max":657,"o":"m 516 704 l 657 704 l 357 -165 q 285 -266 332 -237 q 155 -294 237 -294 l 127 -294 l 127 -161 l 155 -161 q 216 -145 193 -161 q 256 -92 239 -130 l 516 704 m 315 -58 l 34 704 l 175 704 l 391 92 l 315 -58 m 105 985 l 600 985 l 600 848 l 105 848 l 105 985 z "},"ӱ":{"ha":671,"x_min":34,"x_max":657,"o":"m 516 704 l 657 704 l 357 -165 q 285 -266 332 -237 q 155 -294 237 -294 l 127 -294 l 127 -161 l 155 -161 q 216 -145 193 -161 q 256 -92 239 -130 l 516 704 m 315 -58 l 34 704 l 175 704 l 391 92 l 315 -58 m 426 848 l 426 986 l 564 986 l 564 848 l 426 848 m 141 848 l 141 986 l 279 986 l 279 848 l 141 848 z "},"ӳ":{"ha":671,"x_min":34,"x_max":657,"o":"m 516 704 l 657 704 l 357 -165 q 285 -266 332 -237 q 155 -294 237 -294 l 127 -294 l 127 -161 l 155 -161 q 216 -145 193 -161 q 256 -92 239 -130 l 516 704 m 315 -58 l 34 704 l 175 704 l 391 92 l 315 -58 m 508 836 l 404 896 l 530 1137 l 647 1064 l 508 836 m 237 836 l 133 896 l 259 1137 l 376 1064 l 237 836 z "},"ӵ":{"ha":781,"x_min":102,"x_max":673,"o":"m 534 0 l 534 704 l 673 704 l 673 0 l 534 0 m 359 220 q 169 293 237 220 q 102 499 102 366 l 102 704 l 240 704 l 240 494 q 273 393 240 429 q 366 357 307 357 q 491 396 447 357 q 534 508 534 436 l 534 579 l 578 579 l 578 513 q 521 297 578 374 q 359 220 464 220 m 460 848 l 460 986 l 599 986 l 599 848 l 460 848 m 176 848 l 176 986 l 314 986 l 314 848 l 176 848 z "},"ӷ":{"ha":593,"x_min":109,"x_max":559,"o":"m 109 0 l 109 704 l 247 704 l 247 0 l 109 0 m 176 572 l 176 704 l 559 704 l 559 572 l 176 572 m 234 125 l 372 125 l 372 -177 l 234 -177 l 234 125 z "},"ӹ":{"ha":972,"x_min":109,"x_max":871,"o":"m 732 0 l 732 704 l 871 704 l 871 0 l 732 0 m 176 0 l 176 132 l 390 132 q 457 158 432 132 q 483 228 483 184 l 483 228 q 457 298 483 272 q 390 325 432 325 l 176 325 l 176 456 l 385 456 q 562 394 495 456 q 630 228 629 331 l 630 228 q 563 63 630 125 q 385 0 496 0 l 176 0 m 109 0 l 109 704 l 247 704 l 247 0 l 109 0 m 563 848 l 563 986 l 701 986 l 701 848 l 563 848 m 278 848 l 278 986 l 416 986 l 416 848 l 278 848 z "},"ӻ":{"ha":654,"x_min":41,"x_max":621,"o":"m 163 -194 l 163 -62 l 240 -62 q 288 -9 288 -62 l 288 91 l 426 91 l 426 -7 q 381 -145 426 -96 q 254 -194 336 -194 l 163 -194 m 170 0 l 170 704 l 308 704 l 308 0 l 170 0 m 237 572 l 237 704 l 621 704 l 621 572 l 237 572 m 41 251 l 41 369 l 491 369 l 491 251 l 41 251 z "},"ӽ":{"ha":710,"x_min":41,"x_max":666,"o":"m 459 -286 l 459 -155 l 469 -155 q 534 -87 534 -155 q 521 -27 534 -62 q 475 60 507 8 l 311 320 l 52 704 l 205 704 l 408 389 l 593 109 q 649 0 632 49 q 666 -100 666 -50 q 619 -242 666 -198 q 469 -286 572 -286 l 459 -286 m 41 0 l 307 389 l 373 261 l 194 0 l 41 0 m 414 324 l 355 454 l 509 704 l 663 704 l 414 324 z "},"ӿ":{"ha":718,"x_min":41,"x_max":674,"o":"m 83 307 l 83 397 l 632 397 l 632 307 l 83 307 m 521 0 l 311 320 l 52 704 l 205 704 l 408 389 l 674 0 l 521 0 m 41 0 l 307 389 l 373 261 l 194 0 l 41 0 m 414 324 l 355 454 l 509 704 l 663 704 l 414 324 z "},"ҁ":{"ha":692,"x_min":88,"x_max":648,"o":"m 393 -10 q 168 70 248 -10 q 88 296 88 150 l 88 412 q 168 635 88 556 q 393 714 248 714 q 542 685 475 714 q 648 602 608 656 l 648 602 l 548 512 l 548 512 q 479 564 519 546 q 395 583 439 583 q 271 538 315 583 q 227 412 227 493 l 227 296 q 270 162 227 210 q 393 115 314 115 l 393 -10 m 340 -184 l 340 115 l 479 115 l 479 -184 l 340 -184 z "},"ҍ":{"ha":749,"x_min":-14,"x_max":678,"o":"m -14 583 l -14 704 l 423 704 l 423 583 l -14 583 m 123 610 l 123 986 l 261 986 l 261 610 l 123 610 m 190 0 l 190 132 l 438 132 q 506 158 480 132 q 531 228 531 184 l 531 228 q 506 298 531 272 q 438 325 480 325 l 190 325 l 190 456 l 433 456 q 610 394 543 456 q 678 228 677 331 l 678 228 q 611 63 678 125 q 433 0 544 0 l 190 0 m 123 0 l 123 704 l 261 704 l 261 0 l 123 0 z "},"ҏ":{"ha":755,"x_min":109,"x_max":667,"o":"m 551 -156 l 307 241 l 404 307 l 648 -90 l 551 -156 m 109 -286 l 109 704 l 247 704 l 247 -286 l 109 -286 m 424 -10 q 309 21 358 -10 q 237 111 260 53 l 247 258 q 263 180 247 212 q 310 132 279 149 q 385 115 341 115 q 491 156 454 115 q 529 274 529 198 l 529 427 q 491 547 529 504 q 385 589 454 589 q 310 573 341 589 q 263 526 279 557 q 247 450 247 494 l 233 585 q 316 681 264 647 q 431 714 368 714 q 606 639 544 714 q 667 427 667 564 l 667 274 q 604 64 667 139 q 424 -10 540 -10 z "},"Ϯ":{"ha":690,"x_min":-41,"x_max":649,"o":"m 125 846 l 649 846 l 649 714 l 148 714 q 109 704 123 714 q 94 674 94 694 l 94 597 l -41 597 l -41 688 q 2 804 -41 762 q 125 846 45 846 m 376 986 l 376 0 l 237 0 l 237 986 l 376 986 z "},"Ϥ":{"ha":854,"x_min":64,"x_max":732,"o":"m 359 308 q 141 398 218 308 q 64 649 64 488 l 64 656 q 140 910 64 829 q 368 991 216 991 l 403 991 l 403 859 l 368 859 q 243 809 284 859 q 203 650 203 758 l 203 650 q 251 495 203 551 q 386 440 298 440 q 539 490 485 440 q 593 630 593 540 l 593 681 l 637 667 l 637 594 q 564 383 637 458 q 359 308 491 308 m 593 0 l 593 986 l 732 986 l 732 0 l 593 0 z "},"Ϫ":{"ha":922,"x_min":27,"x_max":895,"o":"m 27 0 l 562 878 q 611 948 590 924 q 655 981 633 972 q 709 991 678 991 l 800 991 l 800 859 l 723 859 q 703 854 710 859 q 686 833 695 848 l 172 0 l 27 0 m 138 0 l 138 132 l 793 132 l 793 0 l 138 0 m 750 0 l 250 833 q 234 854 241 848 q 213 859 227 859 l 136 859 l 136 991 l 227 991 q 281 981 258 991 q 325 947 304 972 q 374 877 347 923 l 895 0 l 750 0 z "},"Ϩ":{"ha":842,"x_min":75,"x_max":814,"o":"m 457 -10 q 165 61 256 -10 q 75 289 75 132 l 75 290 q 155 504 75 428 q 414 611 235 580 q 496 638 465 620 q 542 686 527 657 q 556 751 556 714 l 556 752 q 525 839 556 812 q 425 866 494 866 q 326 848 372 866 q 227 790 279 830 l 227 790 l 149 900 l 149 900 q 283 974 217 951 q 425 996 349 996 q 630 939 566 996 q 693 755 693 882 l 693 754 q 667 621 693 677 q 585 530 641 565 q 439 481 530 496 q 265 416 319 463 q 212 286 212 369 l 212 286 q 270 159 212 199 q 457 120 328 120 q 604 143 540 120 q 728 218 669 166 l 728 218 l 814 112 l 814 112 q 654 19 739 48 q 457 -10 570 -10 z "},"Ϧ":{"ha":871,"x_min":109,"x_max":783,"o":"m 314 -223 l 314 -92 l 516 -92 q 599 -75 572 -92 q 635 -26 627 -58 q 644 50 644 5 l 644 277 q 597 393 644 352 q 463 433 550 433 l 233 433 l 233 565 l 509 565 q 711 490 640 565 q 783 278 783 415 l 783 52 q 726 -151 783 -79 q 530 -223 670 -223 l 314 -223 m 109 0 l 109 986 l 247 986 l 247 0 l 109 0 m 329 -223 q 273 -239 292 -224 q 254 -286 254 -255 l 122 -286 q 314 -92 122 -92 l 329 -223 z "},"Ϣ":{"ha":1356,"x_min":122,"x_max":1234,"o":"m 921 -10 q 711 74 785 -10 q 636 309 636 157 l 636 986 l 747 986 l 747 304 q 793 173 747 220 q 921 126 838 126 q 1050 173 1004 126 q 1096 304 1096 220 l 1096 986 l 1234 986 l 1234 309 l 1171 188 q 1081 41 1144 92 q 921 -10 1018 -10 m 434 -10 q 204 74 286 -10 q 122 309 122 157 l 122 986 l 260 986 l 260 304 q 306 173 260 220 q 434 126 351 126 q 563 173 517 126 q 609 304 609 220 l 609 986 l 720 986 l 720 309 q 645 74 720 157 q 434 -10 570 -10 m 372 -223 l 361 -92 l 968 -92 q 1051 -75 1023 -92 q 1087 -26 1078 -58 q 1096 50 1096 5 l 1096 387 l 1234 387 l 1234 52 q 1178 -151 1234 -79 q 981 -223 1122 -223 l 372 -223 m 383 -223 q 308 -286 308 -224 l 170 -286 q 361 -92 170 -92 l 383 -223 z "},"Ϭ":{"ha":947,"x_min":102,"x_max":845,"o":"m 473 -10 q 199 81 296 -10 q 102 337 102 172 l 102 425 l 227 595 q 279 690 241 652 q 377 749 317 729 q 521 768 438 768 q 760 679 675 768 q 845 425 845 589 l 845 335 q 748 80 845 171 q 473 -10 650 -10 m 473 121 q 645 177 584 121 q 707 335 707 233 l 707 425 q 645 581 707 526 q 473 637 584 637 q 301 581 362 637 q 240 425 240 526 l 240 335 q 301 177 240 233 q 473 121 362 121 m 102 416 l 102 659 q 411 986 102 986 l 570 986 q 683 1049 683 986 l 811 1049 q 581 868 811 868 l 422 868 q 233 672 233 868 l 233 416 l 102 416 z "},"Ϳ":{"ha":702,"x_min":20,"x_max":580,"o":"m 272 -10 q 128 22 194 -10 q 20 111 62 54 l 134 193 q 189 141 153 159 q 272 123 224 123 q 397 173 353 123 q 441 314 441 223 l 441 986 l 580 986 l 580 313 q 499 75 580 159 q 272 -10 419 -10 z "},"Α":{"ha":899,"x_min":27,"x_max":872,"o":"m 27 0 l 391 986 l 509 986 l 872 0 l 723 0 l 450 795 l 176 0 l 27 0 m 195 216 l 195 348 l 713 348 l 713 216 l 195 216 z "}}}
